<!-- Generator: Adobe Illustrator 21.1.0, SVG Export Plug-In  -->
<svg version="1.1"
	 xmlns="http://www.w3.org/2000/svg" xmlns:xlink="http://www.w3.org/1999/xlink" xmlns:a="http://ns.adobe.com/AdobeSVGViewerExtensions/3.0/"
	 x="0px" y="0px" width="45.0480042px" height="32px" viewBox="0 0 45.0480042 32"
	 style="enable-background:new 0 0 45.0480042 32;" xml:space="preserve">
<style type="text/css">
	.st0{fill:#FFFFFF;}
</style>
<defs>
</defs>
<path class="st0" d="M10.552002,31.0829468c2.1240234-0.6389771,3.927002-1.7779541,5.4100037-3.4169922
	c1.4840088-1.6939697,2.3789978-3.4029541,2.6860046-5.125c0.3070068-1.6939697,0.4609985-4.8889771,0.4609985-9.5830078V0H0
	v15.2079468h7.1370239c-0.0250244,2.6110229-0.1790161,4.375-0.460022,5.2920532
	c-0.2559814,0.9159546-0.9339905,1.7079468-2.0339966,2.375C3.5940247,23.5130005,2.0470276,23.8329468,0,23.8329468V32
	C4.9630127,32,8.480011,31.6939697,10.552002,31.0829468 M36.4910278,31.0829468
	c2.1239929-0.6389771,3.9269714-1.7779541,5.4099731-3.4169922c1.4840088-1.6939697,2.3789978-3.4029541,2.6860046-5.125
	c0.3070068-1.6939697,0.4609985-4.8889771,0.4609985-9.5830078V0H25.901001v15.2079468h7.1750183
	C33.0250244,17.8469849,32.8590088,19.6099854,32.5770264,20.5c-0.2550049,0.8880005-0.9210205,1.6799927-1.9950256,2.375
	c-1.0489807,0.6380005-2.6089783,0.9579468-4.6809998,0.9579468V32C30.8890076,32,34.4190063,31.6939697,36.4910278,31.0829468"/>
</svg>
