<!-- Generator: Adobe Illustrator 21.1.0, SVG Export Plug-In  -->
<svg version="1.1"
	 xmlns="http://www.w3.org/2000/svg" xmlns:xlink="http://www.w3.org/1999/xlink" xmlns:a="http://ns.adobe.com/AdobeSVGViewerExtensions/3.0/"
	 x="0px" y="0px" width="372.6px" height="72.4px" viewBox="0 0 372.6 72.4" style="enable-background:new 0 0 372.6 72.4;"
	 xml:space="preserve">
<style type="text/css">
	.st0{fill:#A8C643;}
	.st1{fill:#333E48;}
	.st2{fill:#303C42;}
	.st3{fill:#3E8B94;}
	.st4{fill:none;stroke:#3E8B94;stroke-width:0.451;stroke-miterlimit:10;}
</style>
<defs>
</defs>
<path class="st0" d="M164.9,63.6l-6-8.1l-0.5,3.1l-54.9,0h-6c-2.7,0-4.7-0.7-6.2-2c-0.9-0.8-1.6-1.8-2-2.9h-9c1,3.6,2.7,6.4,5,8.5
	c2.9,2.6,6.9,4,11.9,4.2l0.6,0l0.6,0l0,0h7.2l30,0h21.5l-0.5,3.2L164.9,63.6z"/>
<path class="st1" d="M21.4,14.5h-0.1L10,29h9.4L21.4,14.5z M18.3,36.5H0L1.1,29L21.9,2.9h9.7L28,29h5.4l-1.1,7.5h-5.4l-1.1,8.4h-8.6
	L18.3,36.5z"/>
<path class="st2" d="M56.1,24.5c-1.1-1.6-2.7-2.4-4.9-2.4c-0.8,0-1.5,0.2-2.3,0.5c-0.8,0.4-1.2,1-1.3,1.8c-0.1,0.7,0.2,1.2,0.9,1.6
	c0.7,0.3,1.6,0.6,2.7,0.9c1.1,0.3,2.2,0.5,3.5,0.8c1.2,0.3,2.4,0.8,3.4,1.4c1,0.6,1.8,1.5,2.4,2.6c0.6,1.1,0.7,2.5,0.5,4.4
	c-0.2,1.9-0.9,3.4-1.8,4.6c-1,1.2-2.2,2.2-3.5,2.9c-1.4,0.7-2.9,1.2-4.5,1.5c-1.6,0.3-3.2,0.4-4.8,0.4c-2,0-4-0.3-6-0.9
	c-2-0.6-3.6-1.6-4.8-3.1l6.2-6c0.7,1,1.5,1.8,2.5,2.3c0.9,0.5,2.1,0.8,3.4,0.8c1,0,2-0.1,2.8-0.4c0.9-0.3,1.4-0.8,1.5-1.6
	c0.1-0.8-0.2-1.3-0.9-1.7c-0.7-0.4-1.6-0.7-2.7-0.9c-1.1-0.3-2.3-0.5-3.5-0.8c-1.2-0.3-2.4-0.7-3.4-1.3c-1-0.6-1.9-1.4-2.5-2.5
	c-0.6-1.1-0.8-2.5-0.5-4.4c0.2-1.7,0.8-3.2,1.7-4.4c0.9-1.2,1.9-2.2,3.2-3c1.2-0.8,2.6-1.4,4.1-1.8c1.5-0.4,3-0.6,4.5-0.6
	c1.9,0,3.8,0.3,5.6,0.8c1.9,0.6,3.4,1.5,4.5,3L56.1,24.5z"/>
<path class="st2" d="M67.9,6.9c0.1-0.7,0.4-1.4,0.7-2C69,4.3,69.4,3.8,70,3.3c0.5-0.5,1.1-0.8,1.8-1.1c0.7-0.3,1.4-0.4,2.1-0.4
	c1.4,0,2.6,0.5,3.4,1.5c0.9,1,1.2,2.2,1,3.7c-0.1,0.7-0.3,1.4-0.7,2c-0.4,0.6-0.8,1.2-1.3,1.6c-0.5,0.5-1.1,0.8-1.8,1.1
	c-0.7,0.3-1.4,0.4-2.1,0.4c-0.7,0-1.4-0.1-2-0.4c-0.6-0.3-1.1-0.6-1.5-1.1c-0.4-0.5-0.7-1-0.9-1.6C67.9,8.3,67.9,7.7,67.9,6.9
	 M67.4,16h8.9l-4,28.9h-8.9L67.4,16z"/>
<path class="st2" d="M127.7,0l-2.8,20h0.1c0.3-0.6,0.7-1.1,1.2-1.7c0.5-0.6,1.2-1,1.9-1.5c0.7-0.4,1.6-0.8,2.5-1.1
	c1-0.3,2-0.4,3-0.4c2.3,0,4,0.3,5.3,1c1.3,0.7,2.3,1.7,2.8,2.9c0.6,1.2,0.9,2.7,1,4.3c0,1.7-0.1,3.5-0.4,5.4l-2.2,15.9h-8.9l2-14.1
	c0.1-0.8,0.2-1.7,0.3-2.6c0.1-0.9,0-1.7-0.2-2.5c-0.2-0.8-0.6-1.4-1.1-1.8c-0.6-0.5-1.4-0.7-2.6-0.7s-2.1,0.2-2.9,0.6
	c-0.8,0.4-1.4,1-1.9,1.7c-0.5,0.7-0.8,1.5-1.1,2.3c-0.2,0.9-0.4,1.8-0.5,2.7l-2,14.4h-8.9L118.8,0H127.7z"/>
<path class="st2" d="M168.1,23.2h-7.8l-1.4,9.6c-0.1,0.8-0.2,1.5-0.2,2.2c0,0.7,0.1,1.2,0.3,1.7c0.2,0.5,0.6,0.8,1.1,1.1
	c0.5,0.3,1.3,0.4,2.2,0.4c0.5,0,1.1,0,1.9-0.1c0.8-0.1,1.4-0.3,1.8-0.7l-1,7.4c-1,0.4-2.1,0.6-3.2,0.7c-1.1,0.1-2.1,0.2-3.2,0.2
	c-1.5,0-2.9-0.2-4.1-0.5c-1.2-0.3-2.3-0.8-3.1-1.5c-0.9-0.7-1.5-1.6-1.8-2.7c-0.4-1.1-0.5-2.5-0.3-4l2-13.7h-5.7l1-7.1h5.7l1.2-8.5
	h8.9l-1.2,8.5h7.8L168.1,23.2z"/>
<path class="st2" d="M177.7,62.1c0-0.8-0.2-1.5-0.7-2c-0.5-0.5-1.2-0.8-2.1-0.8c-0.4,0-0.8,0.1-1.1,0.2c-0.4,0.2-0.7,0.4-1,0.6
	c-0.3,0.3-0.5,0.6-0.7,0.9c-0.2,0.3-0.2,0.7-0.2,1H177.7z M171.8,63.1c0,0.4,0.1,0.8,0.3,1.2c0.2,0.4,0.4,0.7,0.7,1
	c0.3,0.3,0.6,0.5,1,0.7c0.4,0.2,0.8,0.2,1.2,0.2c0.6,0,1.2-0.1,1.7-0.4c0.5-0.3,0.8-0.6,1.1-1l0.9,0.8c-0.5,0.6-1.1,1.1-1.7,1.4
	c-0.6,0.3-1.3,0.4-2,0.4c-0.6,0-1.2-0.1-1.8-0.3c-0.5-0.2-1-0.5-1.4-0.9c-0.4-0.4-0.7-0.9-0.9-1.4c-0.2-0.5-0.3-1.1-0.3-1.8
	c0-0.6,0.1-1.2,0.3-1.8c0.2-0.6,0.5-1,0.9-1.4c0.4-0.4,0.9-0.7,1.4-0.9c0.5-0.2,1.1-0.3,1.7-0.3c0.6,0,1.2,0.1,1.7,0.3
	c0.5,0.2,0.9,0.5,1.3,0.9c0.3,0.4,0.6,0.8,0.8,1.4c0.2,0.5,0.3,1.1,0.3,1.7v0.5H171.8z"/>
<polygon class="st2" points="183.4,62.5 180.3,58.5 181.9,58.5 184.3,61.7 186.6,58.5 188.1,58.5 185.1,62.5 188.7,67.1 187,67.1 
	184.2,63.3 181.4,67.1 179.9,67.1 "/>
<path class="st2" d="M197.8,62.8c0-0.5-0.1-0.9-0.2-1.3c-0.2-0.4-0.4-0.8-0.7-1.1c-0.3-0.3-0.6-0.5-1-0.7c-0.4-0.2-0.8-0.3-1.3-0.3
	c-0.5,0-1,0.1-1.4,0.3c-0.4,0.2-0.8,0.4-1.1,0.7c-0.3,0.3-0.5,0.7-0.7,1.1c-0.2,0.4-0.3,0.9-0.3,1.3c0,0.5,0.1,0.9,0.3,1.3
	c0.2,0.4,0.4,0.8,0.7,1.1c0.3,0.3,0.7,0.5,1.1,0.7c0.4,0.2,0.9,0.3,1.4,0.3c0.5,0,1-0.1,1.3-0.3c0.4-0.2,0.7-0.4,1-0.7
	c0.3-0.3,0.5-0.7,0.7-1.1C197.8,63.7,197.8,63.3,197.8,62.8 M190,58.5h1.2v1.4h0c0.2-0.3,0.4-0.5,0.7-0.8c0.3-0.2,0.6-0.4,0.8-0.5
	c0.3-0.1,0.6-0.2,0.9-0.3c0.3-0.1,0.6-0.1,0.9-0.1c0.7,0,1.3,0.1,1.8,0.3c0.6,0.2,1,0.5,1.4,0.9c0.4,0.4,0.7,0.9,0.9,1.4
	c0.2,0.6,0.3,1.1,0.3,1.8c0,0.6-0.1,1.2-0.3,1.8c-0.2,0.6-0.5,1-0.9,1.4c-0.4,0.4-0.9,0.7-1.4,0.9c-0.6,0.2-1.2,0.3-1.8,0.3
	c-0.3,0-0.6,0-0.9-0.1c-0.3-0.1-0.6-0.2-0.9-0.3c-0.3-0.1-0.6-0.3-0.8-0.5c-0.3-0.2-0.5-0.5-0.7-0.8h0v6.7H190V58.5z"/>
<path class="st2" d="M207.9,62.1c0-0.8-0.2-1.5-0.7-2c-0.5-0.5-1.2-0.8-2.1-0.8c-0.4,0-0.8,0.1-1.1,0.2c-0.4,0.2-0.7,0.4-1,0.6
	c-0.3,0.3-0.5,0.6-0.7,0.9c-0.2,0.3-0.2,0.7-0.2,1H207.9z M202.1,63.1c0,0.4,0.1,0.8,0.3,1.2c0.2,0.4,0.4,0.7,0.7,1
	c0.3,0.3,0.6,0.5,1,0.7c0.4,0.2,0.8,0.2,1.2,0.2c0.6,0,1.2-0.1,1.7-0.4c0.5-0.3,0.8-0.6,1.1-1l0.9,0.8c-0.5,0.6-1.1,1.1-1.7,1.4
	c-0.6,0.3-1.3,0.4-2,0.4c-0.6,0-1.2-0.1-1.8-0.3c-0.5-0.2-1-0.5-1.4-0.9c-0.4-0.4-0.7-0.9-0.9-1.4c-0.2-0.5-0.3-1.1-0.3-1.8
	c0-0.6,0.1-1.2,0.3-1.8c0.2-0.6,0.5-1,0.9-1.4c0.4-0.4,0.9-0.7,1.4-0.9c0.5-0.2,1.1-0.3,1.7-0.3c0.6,0,1.2,0.1,1.7,0.3
	c0.5,0.2,0.9,0.5,1.3,0.9c0.3,0.4,0.6,0.8,0.8,1.4c0.2,0.5,0.3,1.1,0.3,1.7v0.5H202.1z"/>
<path class="st2" d="M217.7,60.5c-0.2-0.3-0.5-0.6-0.9-0.8c-0.4-0.2-0.8-0.3-1.3-0.3c-0.5,0-1,0.1-1.3,0.2c-0.4,0.2-0.7,0.4-1,0.7
	c-0.3,0.3-0.5,0.7-0.6,1.1c-0.1,0.4-0.2,0.9-0.2,1.4c0,0.5,0.1,0.9,0.2,1.4c0.1,0.4,0.4,0.8,0.6,1.1c0.3,0.3,0.6,0.5,1,0.7
	c0.4,0.2,0.8,0.2,1.3,0.2c0.5,0,0.9-0.1,1.3-0.3c0.4-0.2,0.7-0.5,0.9-0.8l1,0.8c-0.4,0.5-0.9,0.9-1.4,1.1c-0.5,0.2-1.1,0.4-1.7,0.4
	c-0.7,0-1.3-0.1-1.9-0.3c-0.6-0.2-1-0.5-1.4-0.9c-0.4-0.4-0.7-0.9-0.9-1.4c-0.2-0.6-0.3-1.2-0.3-1.8c0-0.6,0.1-1.2,0.3-1.8
	c0.2-0.6,0.5-1,0.9-1.4c0.4-0.4,0.9-0.7,1.4-0.9c0.6-0.2,1.2-0.3,1.9-0.3c0.6,0,1.1,0.1,1.7,0.4c0.5,0.2,1,0.6,1.4,1.1L217.7,60.5z"
	/>
<path class="st2" d="M224.7,59.6h-2.5v5.1c0,0.3,0,0.6,0.1,0.8c0.1,0.2,0.1,0.4,0.3,0.5c0.1,0.1,0.2,0.2,0.4,0.2
	c0.2,0,0.3,0.1,0.5,0.1c0.2,0,0.4,0,0.6-0.1c0.2-0.1,0.4-0.1,0.6-0.2l0.1,1.1c-0.5,0.2-1,0.3-1.6,0.3c-0.2,0-0.5,0-0.7-0.1
	c-0.2-0.1-0.5-0.2-0.7-0.3s-0.4-0.4-0.5-0.7c-0.1-0.3-0.2-0.7-0.2-1.2v-5.4h-1.8v-1.1h1.8v-2.4h1.2v2.4h2.5V59.6z"/>
<path class="st2" d="M239.3,62.8c0-0.5-0.1-0.9-0.2-1.3c-0.2-0.4-0.4-0.8-0.7-1.1c-0.3-0.3-0.6-0.5-1-0.7c-0.4-0.2-0.8-0.3-1.3-0.3
	c-0.5,0-1,0.1-1.4,0.3c-0.4,0.2-0.8,0.4-1.1,0.7c-0.3,0.3-0.5,0.7-0.7,1.1s-0.3,0.9-0.3,1.3s0.1,0.9,0.3,1.3
	c0.2,0.4,0.4,0.8,0.7,1.1c0.3,0.3,0.7,0.5,1.1,0.7c0.4,0.2,0.9,0.3,1.4,0.3c0.5,0,1-0.1,1.3-0.3c0.4-0.2,0.7-0.4,1-0.7
	c0.3-0.3,0.5-0.7,0.7-1.1C239.2,63.7,239.3,63.3,239.3,62.8 M231.4,53.2h1.2v6.7h0c0.2-0.3,0.4-0.5,0.7-0.8c0.3-0.2,0.6-0.4,0.8-0.5
	c0.3-0.1,0.6-0.2,0.9-0.3c0.3-0.1,0.6-0.1,0.9-0.1c0.7,0,1.3,0.1,1.8,0.3c0.6,0.2,1,0.5,1.4,0.9c0.4,0.4,0.7,0.9,0.9,1.4
	c0.2,0.5,0.3,1.1,0.3,1.8c0,0.6-0.1,1.2-0.3,1.8c-0.2,0.6-0.5,1-0.9,1.4c-0.4,0.4-0.9,0.7-1.4,0.9c-0.6,0.2-1.2,0.3-1.8,0.3
	c-0.3,0-0.6,0-0.9-0.1c-0.3-0.1-0.6-0.2-0.9-0.3c-0.3-0.1-0.6-0.3-0.8-0.5c-0.3-0.2-0.5-0.5-0.7-0.8h0v1.4h-1.2V53.2z"/>
<path class="st2" d="M249.3,62.1c0-0.8-0.2-1.5-0.7-2c-0.5-0.5-1.2-0.8-2.1-0.8c-0.4,0-0.8,0.1-1.1,0.2c-0.4,0.2-0.7,0.4-1,0.6
	c-0.3,0.3-0.5,0.6-0.7,0.9c-0.2,0.3-0.2,0.7-0.2,1H249.3z M243.5,63.1c0,0.4,0.1,0.8,0.3,1.2c0.2,0.4,0.4,0.7,0.7,1
	c0.3,0.3,0.6,0.5,1,0.7c0.4,0.2,0.8,0.2,1.2,0.2c0.6,0,1.2-0.1,1.7-0.4c0.5-0.3,0.8-0.6,1.1-1l0.9,0.8c-0.5,0.6-1.1,1.1-1.7,1.4
	c-0.6,0.3-1.3,0.4-2,0.4c-0.6,0-1.2-0.1-1.8-0.3c-0.5-0.2-1-0.5-1.4-0.9c-0.4-0.4-0.7-0.9-0.9-1.4c-0.2-0.5-0.3-1.1-0.3-1.8
	c0-0.6,0.1-1.2,0.3-1.8c0.2-0.6,0.5-1,0.9-1.4c0.4-0.4,0.9-0.7,1.4-0.9c0.5-0.2,1.1-0.3,1.7-0.3c0.6,0,1.2,0.1,1.7,0.3
	c0.5,0.2,0.9,0.5,1.3,0.9c0.3,0.4,0.6,0.8,0.8,1.4c0.2,0.5,0.3,1.1,0.3,1.7v0.5H243.5z"/>
<path class="st2" d="M257.3,59.6h-2.5v5.1c0,0.3,0,0.6,0.1,0.8c0.1,0.2,0.1,0.4,0.3,0.5c0.1,0.1,0.2,0.2,0.4,0.2
	c0.2,0,0.3,0.1,0.5,0.1c0.2,0,0.4,0,0.6-0.1c0.2-0.1,0.4-0.1,0.6-0.2l0.1,1.1c-0.5,0.2-1,0.3-1.6,0.3c-0.2,0-0.5,0-0.7-0.1
	c-0.2-0.1-0.5-0.2-0.7-0.3s-0.4-0.4-0.5-0.7c-0.1-0.3-0.2-0.7-0.2-1.2v-5.4h-1.8v-1.1h1.8v-2.4h1.2v2.4h2.5V59.6z"/>
<path class="st2" d="M263.4,59.6h-2.5v5.1c0,0.3,0,0.6,0.1,0.8c0.1,0.2,0.1,0.4,0.3,0.5c0.1,0.1,0.2,0.2,0.4,0.2
	c0.2,0,0.3,0.1,0.5,0.1c0.2,0,0.4,0,0.6-0.1c0.2-0.1,0.4-0.1,0.6-0.2l0.1,1.1c-0.5,0.2-1,0.3-1.6,0.3c-0.2,0-0.5,0-0.7-0.1
	c-0.2-0.1-0.5-0.2-0.7-0.3s-0.4-0.4-0.5-0.7c-0.1-0.3-0.2-0.7-0.2-1.2v-5.4h-1.8v-1.1h1.8v-2.4h1.2v2.4h2.5V59.6z"/>
<path class="st2" d="M271.7,62.1c0-0.8-0.2-1.5-0.7-2c-0.5-0.5-1.2-0.8-2.1-0.8c-0.4,0-0.8,0.1-1.1,0.2c-0.4,0.2-0.7,0.4-1,0.6
	c-0.3,0.3-0.5,0.6-0.7,0.9c-0.2,0.3-0.2,0.7-0.2,1H271.7z M265.9,63.1c0,0.4,0.1,0.8,0.3,1.2c0.2,0.4,0.4,0.7,0.7,1
	c0.3,0.3,0.6,0.5,1,0.7c0.4,0.2,0.8,0.2,1.2,0.2c0.6,0,1.2-0.1,1.7-0.4c0.5-0.3,0.8-0.6,1.1-1l0.9,0.8c-0.5,0.6-1.1,1.1-1.7,1.4
	c-0.6,0.3-1.3,0.4-2,0.4c-0.6,0-1.2-0.1-1.8-0.3c-0.5-0.2-1-0.5-1.4-0.9c-0.4-0.4-0.7-0.9-0.9-1.4c-0.2-0.5-0.3-1.1-0.3-1.8
	c0-0.6,0.1-1.2,0.3-1.8c0.2-0.6,0.5-1,0.9-1.4c0.4-0.4,0.9-0.7,1.4-0.9c0.5-0.2,1.1-0.3,1.7-0.3c0.6,0,1.2,0.1,1.7,0.3
	c0.5,0.2,0.9,0.5,1.3,0.9c0.3,0.4,0.6,0.8,0.8,1.4c0.2,0.5,0.3,1.1,0.3,1.7v0.5H265.9z"/>
<path class="st2" d="M275.3,61.2c0-0.4,0-0.8,0-1.2c0-0.4,0-0.9,0-1.5h1.2v1.6h0c0.1-0.2,0.2-0.5,0.4-0.7c0.2-0.2,0.4-0.4,0.6-0.6
	c0.2-0.2,0.5-0.3,0.8-0.4c0.3-0.1,0.6-0.2,1-0.2c0.3,0,0.6,0,0.9,0.1l-0.2,1.2c-0.2-0.1-0.4-0.1-0.7-0.1c-0.5,0-0.9,0.1-1.2,0.3
	c-0.3,0.2-0.6,0.4-0.8,0.7c-0.2,0.3-0.4,0.6-0.5,0.9c-0.1,0.3-0.2,0.6-0.2,0.9v4.8h-1.2V61.2z"/>
<path class="st2" d="M286.4,53.2h1.2v6.7h0c0.1-0.2,0.3-0.4,0.5-0.6c0.2-0.2,0.4-0.4,0.7-0.5c0.3-0.1,0.5-0.2,0.8-0.3
	c0.3-0.1,0.6-0.1,0.9-0.1c1.1,0,1.9,0.3,2.4,0.9c0.5,0.6,0.8,1.4,0.8,2.5v5.4h-1.2v-4.8c0-1-0.2-1.7-0.5-2.2
	c-0.3-0.5-0.9-0.8-1.8-0.8c-0.1,0-0.2,0-0.5,0.1c-0.3,0-0.6,0.2-0.9,0.4c-0.3,0.2-0.6,0.6-0.8,1c-0.2,0.4-0.4,1.1-0.4,1.8v4.4h-1.2
	V53.2z"/>
<path class="st2" d="M303.3,62.1c0-0.8-0.2-1.5-0.7-2c-0.5-0.5-1.2-0.8-2.1-0.8c-0.4,0-0.8,0.1-1.1,0.2c-0.4,0.2-0.7,0.4-1,0.6
	c-0.3,0.3-0.5,0.6-0.7,0.9c-0.2,0.3-0.2,0.7-0.2,1H303.3z M297.4,63.1c0,0.4,0.1,0.8,0.3,1.2c0.2,0.4,0.4,0.7,0.7,1
	c0.3,0.3,0.6,0.5,1,0.7c0.4,0.2,0.8,0.2,1.2,0.2c0.6,0,1.2-0.1,1.7-0.4c0.5-0.3,0.8-0.6,1.1-1l0.9,0.8c-0.5,0.6-1.1,1.1-1.7,1.4
	c-0.6,0.3-1.3,0.4-2,0.4c-0.6,0-1.2-0.1-1.8-0.3c-0.5-0.2-1-0.5-1.4-0.9c-0.4-0.4-0.7-0.9-0.9-1.4c-0.2-0.5-0.3-1.1-0.3-1.8
	c0-0.6,0.1-1.2,0.3-1.8c0.2-0.6,0.5-1,0.9-1.4c0.4-0.4,0.9-0.7,1.4-0.9c0.5-0.2,1.1-0.3,1.7-0.3c0.6,0,1.2,0.1,1.7,0.3
	c0.5,0.2,0.9,0.5,1.3,0.9c0.3,0.4,0.6,0.8,0.8,1.4c0.2,0.5,0.3,1.1,0.3,1.7v0.5H297.4z"/>
<path class="st2" d="M311.7,62.8c-0.3,0-0.7,0-1.1,0c-0.5,0-0.9,0.1-1.3,0.2c-0.4,0.1-0.8,0.3-1.1,0.5c-0.3,0.2-0.4,0.6-0.4,1
	c0,0.3,0.1,0.5,0.2,0.7c0.1,0.2,0.3,0.4,0.5,0.5c0.2,0.1,0.4,0.2,0.7,0.3s0.5,0.1,0.7,0.1c0.4,0,0.8-0.1,1.1-0.2
	c0.3-0.1,0.6-0.3,0.8-0.6c0.2-0.2,0.4-0.5,0.5-0.9c0.1-0.3,0.2-0.7,0.2-1.1v-0.6H311.7z M312.3,61.8v-0.2c0-1.5-0.7-2.2-2.2-2.2
	c-1,0-1.9,0.3-2.6,1l-0.7-0.9c0.8-0.8,2-1.2,3.6-1.2c0.4,0,0.8,0.1,1.2,0.2c0.4,0.1,0.7,0.3,1,0.6c0.3,0.2,0.5,0.6,0.7,0.9
	c0.2,0.4,0.3,0.8,0.3,1.4v3.8c0,0.3,0,0.7,0,1c0,0.4,0.1,0.7,0.1,0.9h-1.2c0-0.2-0.1-0.4-0.1-0.7c0-0.2,0-0.5,0-0.7h0
	c-0.4,0.6-0.8,1-1.3,1.2c-0.5,0.2-1.1,0.4-1.8,0.4c-0.4,0-0.7-0.1-1.1-0.2c-0.4-0.1-0.7-0.3-0.9-0.5c-0.3-0.2-0.5-0.5-0.7-0.8
	c-0.2-0.3-0.2-0.7-0.2-1.1c0-0.7,0.2-1.2,0.5-1.6c0.4-0.4,0.8-0.7,1.4-0.9c0.5-0.2,1.1-0.3,1.7-0.4c0.6,0,1.2-0.1,1.7-0.1H312.3z"/>
<rect x="316.6" y="53.2" class="st2" width="1.2" height="13.9"/>
<path class="st2" d="M325.1,59.6h-2.5v5.1c0,0.3,0,0.6,0.1,0.8c0.1,0.2,0.1,0.4,0.3,0.5c0.1,0.1,0.2,0.2,0.4,0.2
	c0.2,0,0.3,0.1,0.5,0.1c0.2,0,0.4,0,0.6-0.1c0.2-0.1,0.4-0.1,0.6-0.2l0.1,1.1c-0.5,0.2-1,0.3-1.6,0.3c-0.2,0-0.5,0-0.7-0.1
	c-0.2-0.1-0.5-0.2-0.7-0.3s-0.4-0.4-0.5-0.7c-0.1-0.3-0.2-0.7-0.2-1.2v-5.4h-1.8v-1.1h1.8v-2.4h1.2v2.4h2.5V59.6z"/>
<path class="st2" d="M326.8,53.2h1.2v6.7h0c0.1-0.2,0.3-0.4,0.5-0.6c0.2-0.2,0.4-0.4,0.7-0.5c0.3-0.1,0.5-0.2,0.8-0.3
	c0.3-0.1,0.6-0.1,0.9-0.1c1.1,0,1.9,0.3,2.4,0.9c0.5,0.6,0.8,1.4,0.8,2.5v5.4h-1.2v-4.8c0-1-0.2-1.7-0.5-2.2
	c-0.3-0.5-0.9-0.8-1.8-0.8c-0.1,0-0.2,0-0.5,0.1c-0.3,0-0.6,0.2-0.9,0.4c-0.3,0.2-0.6,0.6-0.8,1c-0.2,0.4-0.4,1.1-0.4,1.8v4.4h-1.2
	V53.2z"/>
<path class="st2" d="M343.2,60.5c-0.2-0.3-0.5-0.6-0.9-0.8c-0.4-0.2-0.8-0.3-1.3-0.3c-0.5,0-1,0.1-1.3,0.2c-0.4,0.2-0.7,0.4-1,0.7
	c-0.3,0.3-0.5,0.7-0.6,1.1c-0.1,0.4-0.2,0.9-0.2,1.4c0,0.5,0.1,0.9,0.2,1.4c0.1,0.4,0.4,0.8,0.6,1.1c0.3,0.3,0.6,0.5,1,0.7
	c0.4,0.2,0.8,0.2,1.3,0.2c0.5,0,0.9-0.1,1.3-0.3c0.4-0.2,0.7-0.5,0.9-0.8l1,0.8c-0.4,0.5-0.9,0.9-1.4,1.1c-0.5,0.2-1.1,0.4-1.7,0.4
	c-0.7,0-1.3-0.1-1.9-0.3c-0.6-0.2-1-0.5-1.4-0.9c-0.4-0.4-0.7-0.9-0.9-1.4c-0.2-0.6-0.3-1.2-0.3-1.8c0-0.6,0.1-1.2,0.3-1.8
	c0.2-0.6,0.5-1,0.9-1.4c0.4-0.4,0.9-0.7,1.4-0.9c0.6-0.2,1.2-0.3,1.9-0.3c0.6,0,1.1,0.1,1.7,0.4c0.5,0.2,1,0.6,1.4,1.1L343.2,60.5z"
	/>
<path class="st2" d="M350.7,62.8c-0.3,0-0.7,0-1.1,0c-0.5,0-0.9,0.1-1.3,0.2c-0.4,0.1-0.8,0.3-1.1,0.5c-0.3,0.2-0.4,0.6-0.4,1
	c0,0.3,0.1,0.5,0.2,0.7c0.1,0.2,0.3,0.4,0.5,0.5c0.2,0.1,0.4,0.2,0.7,0.3s0.5,0.1,0.7,0.1c0.4,0,0.8-0.1,1.1-0.2
	c0.3-0.1,0.6-0.3,0.8-0.6c0.2-0.2,0.4-0.5,0.5-0.9c0.1-0.3,0.2-0.7,0.2-1.1v-0.6H350.7z M351.3,61.8v-0.2c0-1.5-0.7-2.2-2.2-2.2
	c-1,0-1.9,0.3-2.6,1l-0.7-0.9c0.8-0.8,2-1.2,3.6-1.2c0.4,0,0.8,0.1,1.2,0.2c0.4,0.1,0.7,0.3,1,0.6c0.3,0.2,0.5,0.6,0.7,0.9
	c0.2,0.4,0.3,0.8,0.3,1.4v3.8c0,0.3,0,0.7,0,1c0,0.4,0.1,0.7,0.1,0.9h-1.2c0-0.2-0.1-0.4-0.1-0.7c0-0.2,0-0.5,0-0.7h0
	c-0.4,0.6-0.8,1-1.3,1.2c-0.5,0.2-1.1,0.4-1.8,0.4c-0.4,0-0.7-0.1-1.1-0.2c-0.4-0.1-0.7-0.3-0.9-0.5c-0.3-0.2-0.5-0.5-0.7-0.8
	c-0.2-0.3-0.2-0.7-0.2-1.1c0-0.7,0.2-1.2,0.5-1.6c0.4-0.4,0.8-0.7,1.4-0.9c0.5-0.2,1.1-0.3,1.7-0.4c0.6,0,1.2-0.1,1.7-0.1H351.3z"/>
<path class="st2" d="M355.5,61.2c0-0.4,0-0.8,0-1.2c0-0.4,0-0.9,0-1.5h1.2v1.6h0c0.1-0.2,0.2-0.5,0.4-0.7c0.2-0.2,0.4-0.4,0.6-0.6
	c0.2-0.2,0.5-0.3,0.8-0.4c0.3-0.1,0.6-0.2,1-0.2c0.3,0,0.6,0,0.9,0.1l-0.2,1.2c-0.2-0.1-0.4-0.1-0.7-0.1c-0.5,0-0.9,0.1-1.2,0.3
	c-0.3,0.2-0.6,0.4-0.8,0.7c-0.2,0.3-0.4,0.6-0.5,0.9c-0.1,0.3-0.2,0.6-0.2,0.9v4.8h-1.2V61.2z"/>
<path class="st2" d="M367.8,62.1c0-0.8-0.2-1.5-0.7-2c-0.5-0.5-1.2-0.8-2.1-0.8c-0.4,0-0.8,0.1-1.1,0.2c-0.4,0.2-0.7,0.4-1,0.6
	c-0.3,0.3-0.5,0.6-0.7,0.9c-0.2,0.3-0.2,0.7-0.2,1H367.8z M362,63.1c0,0.4,0.1,0.8,0.3,1.2c0.2,0.4,0.4,0.7,0.7,1
	c0.3,0.3,0.6,0.5,1,0.7c0.4,0.2,0.8,0.2,1.2,0.2c0.6,0,1.2-0.1,1.7-0.4c0.5-0.3,0.8-0.6,1.1-1l0.9,0.8c-0.5,0.6-1.1,1.1-1.7,1.4
	c-0.6,0.3-1.3,0.4-2,0.4c-0.6,0-1.2-0.1-1.8-0.3c-0.5-0.2-1-0.5-1.4-0.9c-0.4-0.4-0.7-0.9-0.9-1.4c-0.2-0.5-0.3-1.1-0.3-1.8
	c0-0.6,0.1-1.2,0.3-1.8c0.2-0.6,0.5-1,0.9-1.4c0.4-0.4,0.9-0.7,1.4-0.9c0.5-0.2,1.1-0.3,1.7-0.3c0.6,0,1.2,0.1,1.7,0.3
	c0.5,0.2,0.9,0.5,1.3,0.9c0.3,0.4,0.6,0.8,0.8,1.4c0.2,0.5,0.3,1.1,0.3,1.7v0.5H362z"/>
<path class="st2" d="M101.6,30.4c-0.1,1-0.4,1.9-0.9,2.7c-0.5,0.9-1.1,1.6-1.8,2.3c-0.7,0.7-1.6,1.2-2.5,1.6
	c-0.9,0.4-1.9,0.6-2.9,0.6c-1,0-2-0.2-2.8-0.6c-0.8-0.4-1.5-0.9-2-1.6c-0.5-0.7-0.9-1.4-1.2-2.3c-0.2-0.9-0.3-1.8-0.2-2.7
	c0.1-1,0.4-1.9,0.9-2.7c0.5-0.9,1.1-1.6,1.8-2.3c0.7-0.7,1.6-1.2,2.5-1.6c0.9-0.4,1.9-0.6,2.9-0.6c1,0,1.9,0.2,2.7,0.6
	s1.5,0.9,2,1.6c0.5,0.7,0.9,1.4,1.2,2.3C101.7,28.6,101.7,29.5,101.6,30.4 M103.6,16.2l-0.5,3.8H103c-0.3-0.5-0.7-1-1.2-1.6
	c-0.5-0.5-1.2-1-1.9-1.5c-0.8-0.4-1.7-0.8-2.7-1.1c-1-0.3-2.2-0.4-3.4-0.4c-2.1,0-4,0.4-5.7,1.3c-1.7,0.9-3.3,2-4.6,3.4
	c-1.3,1.4-2.4,3-3.3,4.8c-0.9,1.8-1.4,3.7-1.7,5.6c-0.3,2.2-0.3,4.2,0.1,6c0.4,1.8,1.2,3.4,2.2,4.7c1.1,1.3,2.4,2.4,4.1,3.1
	c1.6,0.7,3.5,1.1,5.7,1.1c1.3,0,2.8-0.3,4.4-0.9c1.6-0.6,3-1.6,4.2-2.9h0.1l-0.4,2.8c-0.3,2.1-1.2,3.8-2.7,5.1c-1.4,1.3-3.5,2-6.2,2
	h-47l0.5-3.2l-8.1,6l6,8.1l0.5-3.1l48.4,0c5-0.2,9-1.6,11.9-4.2c3.1-2.8,5.1-7,5.9-12.4l3.7-26.4H103.6z"/>
<polygon class="st3" points="182.2,10.3 178.1,10.3 178.6,8 189.6,8 189.1,10.3 185.1,10.3 181.8,24.3 200.8,24.3 204.1,10.3 
	200.2,10.3 200.7,8 210.5,8 209.9,10.3 207,10.3 199.6,42.6 203.6,42.6 203,44.9 192.2,44.9 192.7,42.6 196.6,42.6 200.3,26.6 
	181.4,26.6 177.7,42.6 181.8,42.6 181.3,44.9 170.5,44.9 171.1,42.6 174.7,42.6 "/>
<polygon class="st4" points="182.2,10.3 178.1,10.3 178.6,8 189.6,8 189.1,10.3 185.1,10.3 181.8,24.3 200.8,24.3 204.1,10.3 
	200.2,10.3 200.7,8 210.5,8 209.9,10.3 207,10.3 199.6,42.6 203.6,42.6 203,44.9 192.2,44.9 192.7,42.6 196.6,42.6 200.3,26.6 
	181.4,26.6 177.7,42.6 181.8,42.6 181.3,44.9 170.5,44.9 171.1,42.6 174.7,42.6 "/>
<polygon class="st3" points="218.9,10.3 214.8,10.3 215.3,8 241.7,8 239.1,19.3 236.8,19.3 238.9,10.3 221.8,10.3 218.5,24.8 
	232.1,24.8 231.5,27.1 217.9,27.1 214.3,42.6 231.7,42.6 233.8,33.6 236.1,33.6 233.5,44.9 207.1,44.9 207.6,42.6 211.4,42.6 "/>
<polygon class="st4" points="218.9,10.3 214.8,10.3 215.3,8 241.7,8 239.1,19.3 236.8,19.3 238.9,10.3 221.8,10.3 218.5,24.8 
	232.1,24.8 231.5,27.1 217.9,27.1 214.3,42.6 231.7,42.6 233.8,33.6 236.1,33.6 233.5,44.9 207.1,44.9 207.6,42.6 211.4,42.6 "/>
<path class="st3" d="M265.2,28.6l-2-18.8h-1.5l-9.8,18.8H265.2z M237.1,42.6h4.7l17.1-32.3h-4.8l0.5-2.3h16l-0.5,2.3h-4.2l3.7,32.3
	h4.8l-0.5,2.3h-12.4l0.5-2.3h4.7l-1.3-11.7h-14.7l-6.1,11.7h4.6l-0.5,2.3h-12L237.1,42.6z"/>
<path class="st4" d="M265.2,28.6l-2-18.8h-1.5l-9.8,18.8H265.2z M237.1,42.6h4.7l17.1-32.3h-4.8l0.5-2.3h16l-0.5,2.3h-4.2l3.7,32.3
	h4.8l-0.5,2.3h-12.4l0.5-2.3h4.7l-1.3-11.7h-14.7l-6.1,11.7h4.6l-0.5,2.3h-12L237.1,42.6z"/>
<polygon class="st3" points="288,10.3 283.5,10.3 284,8 295.7,8 295.2,10.3 290.9,10.3 283.5,42.6 298.8,42.6 301.8,29.7 
	304.5,29.7 301.1,44.9 275.8,44.9 276.3,42.6 280.5,42.6 "/>
<polygon class="st4" points="288,10.3 283.5,10.3 284,8 295.7,8 295.2,10.3 290.9,10.3 283.5,42.6 298.8,42.6 301.8,29.7 
	304.5,29.7 301.1,44.9 275.8,44.9 276.3,42.6 280.5,42.6 "/>
<polygon class="st3" points="321.2,10.3 311.5,10.3 308.9,21.7 306.5,21.7 309.8,8 336.7,8 333.5,21.7 331.2,21.7 333.8,10.3 
	324.2,10.3 316.7,42.6 320.8,42.6 320.3,44.9 309.1,44.9 309.6,42.6 313.7,42.6 "/>
<polygon class="st4" points="321.2,10.3 311.5,10.3 308.9,21.7 306.5,21.7 309.8,8 336.7,8 333.5,21.7 331.2,21.7 333.8,10.3 
	324.2,10.3 316.7,42.6 320.8,42.6 320.3,44.9 309.1,44.9 309.6,42.6 313.7,42.6 "/>
<polygon class="st3" points="344,10.3 339.9,10.3 340.5,8 351.4,8 350.9,10.3 346.9,10.3 343.7,24.3 362.6,24.3 365.9,10.3 
	362,10.3 362.5,8 372.3,8 371.8,10.3 368.8,10.3 361.4,42.6 365.4,42.6 364.9,44.9 354,44.9 354.5,42.6 358.4,42.6 362.1,26.6 
	343.2,26.6 339.5,42.6 343.7,42.6 343.1,44.9 332.4,44.9 332.9,42.6 336.5,42.6 "/>
<polygon class="st4" points="344,10.3 339.9,10.3 340.5,8 351.4,8 350.9,10.3 346.9,10.3 343.7,24.3 362.6,24.3 365.9,10.3 
	362,10.3 362.5,8 372.3,8 371.8,10.3 368.8,10.3 361.4,42.6 365.4,42.6 364.9,44.9 354,44.9 354.5,42.6 358.4,42.6 362.1,26.6 
	343.2,26.6 339.5,42.6 343.7,42.6 343.1,44.9 332.4,44.9 332.9,42.6 336.5,42.6 "/>
</svg>
