<svg viewBox="0 0 280 260" version="1.1" xmlns="http://www.w3.org/2000/svg" xmlns:xlink="http://www.w3.org/1999/xlink">
  <path d="M199.967154,0 L199.967154,90.0311534 L199.967154,100.034615 L189.969067,100.034615 L164.973076,100.034615 L164.973076,230.079614 L154.974474,230.079614 L129.978483,230.079614 L119.980395,230.079614 L119.980395,0 L74.987715,0 L74.987715,90.0311534 L74.987715,100.034615 L64.9893702,100.034615 L39.9936368,100.034615 L39.9936368,230.079614 L29.9950345,230.079614 L0,230.079614 L0,240.083333 L29.9950345,240.083333 L39.9936368,240.083333 L64.9893702,240.083333 L74.987715,240.083333 L84.9860598,240.083333 L94.9844047,240.083333 L119.980395,240.083333 L129.978483,240.083333 L154.974474,240.083333 L164.973076,240.083333 L189.969067,240.083333 L199.967154,240.083333 L209.965499,240.083333 L219.963844,240.083333 L244.959835,240.083333 L254.958437,240.083333 L280,240.083333 L280,230.079614 L254.958437,230.079614 L244.959835,230.079614 L244.959835,0 L199.967154,0 Z M209.965499,90.0311534 L209.965499,10.0034615 L234.96149,10.0034615 L234.96149,230.079614 L219.963844,230.079614 L209.965499,230.079614 L209.965499,90.0311534 Z M84.9860598,100.034615 L84.9860598,90.0311534 L84.9860598,10.0034615 L109.982051,10.0034615 L109.982051,230.079614 L94.9844047,230.079614 L84.9860598,230.079614 L84.9860598,100.034615 Z M174.971163,110.038076 L189.969067,110.038076 L199.967154,110.038076 L199.967154,230.079614 L189.969067,230.079614 L174.971163,230.079614 L174.971163,110.038076 Z M49.9917242,110.038076 L64.9893702,110.038076 L74.987715,110.038076 L74.987715,230.079614 L64.9893702,230.079614 L49.9917242,230.079614 L49.9917242,110.038076 Z" id="Fill-1"></path>
  <polygon points="244.960092 250.25 209.965756 250.25 199.967412 250.25 164.973076 250.25 119.980653 250.25 84.9863173 250.25 74.987715 250.25 39.9936368 250.25 0 250.25 0 259.805556 280 259.805556 280 250.25"></polygon>
</svg>
