<?xml version="1.0" encoding="utf-8"?>
<!-- Generator: Adobe Illustrator 21.1.0, SVG Export Plug-In . SVG Version: 6.00 Build 0)  -->
<svg version="1.1" id="Layer_1" xmlns="http://www.w3.org/2000/svg" xmlns:xlink="http://www.w3.org/1999/xlink" x="0px" y="0px"
	 viewBox="0 0 564.7 98.2" style="enable-background:new 0 0 564.7 98.2;" xml:space="preserve">
<style type="text/css">
	.st0{fill:none;}
</style>
<g>
	<polygon class="st0" points="276.8,57.4 271.2,57.4 276,36.8 300.5,36.8 295.7,57.4 290.6,57.4 289.7,61 304.7,61 305.6,57.4 
		300.2,57.4 310,15.2 313.8,15.2 314.7,11.5 301.1,11.5 300.3,15.2 305.5,15.2 301.3,33.2 276.8,33.2 281,15.2 286.2,15.2 
		287.1,11.5 271.9,11.5 271.1,15.2 276.5,15.2 266.7,57.4 261.9,57.4 261.1,61 275.9,61 	"/>
	<polygon class="st0" points="310.3,57.4 309.5,61 345.1,61 348.6,45.5 345,45.5 342.2,57.4 319.8,57.4 324.4,37.5 342.4,37.5 
		343.3,33.9 325.3,33.9 329.6,15.2 351.6,15.2 348.9,27.1 352.5,27.1 356.1,11.5 320.4,11.5 319.6,15.2 325.1,15.2 315.3,57.4 	"/>
	<path class="st0" d="M388.1,15.2h5.5l0.9-3.6h-21.8l-0.9,3.6h6.2l-22.4,42.2h-6.2l-0.9,3.6H365l0.9-3.6h-5.9l7.7-14.9h19.1
		l1.7,14.9h-6.1l-0.9,3.6h17l0.9-3.6h-6.4L388.1,15.2z M369.6,38.9l12.7-24.3h1.5l2.6,24.3H369.6z"/>
	<polygon class="st0" points="431,57.4 411.3,57.4 421.1,15.2 426.7,15.2 427.6,11.5 411.5,11.5 410.7,15.2 416.6,15.2 406.8,57.4 
		401.2,57.4 400.4,61 434.5,61 439.3,40.3 435,40.3 	"/>
	<polygon class="st0" points="448.4,15.2 460.6,15.2 450.8,57.4 445.3,57.4 444.6,61 460,61 460.8,57.4 455.3,57.4 465.1,15.2 
		477.3,15.2 473.8,30.4 477.5,30.4 481.9,11.5 445.6,11.5 441.2,30.4 444.9,30.4 	"/>
	<polygon class="st0" points="515.4,11.5 514.6,15.2 519.8,15.2 515.6,33.2 491.1,33.2 495.2,15.2 500.5,15.2 501.4,11.5 
		486.2,11.5 485.3,15.2 490.7,15.2 481,57.4 476.2,57.4 475.3,61 490.2,61 491.1,57.4 485.5,57.4 490.3,36.8 514.8,36.8 510,57.4 
		504.9,57.4 504,61 519,61 519.9,57.4 514.5,57.4 524.3,15.2 528.1,15.2 529,11.5 	"/>
	<path class="st0" d="M271.2,80.2c-0.5-0.5-1-0.9-1.7-1.2s-1.4-0.5-2.3-0.5c-0.8,0-1.6,0.2-2.3,0.5c-0.7,0.3-1.3,0.7-1.8,1.3
		c-0.5,0.5-0.9,1.2-1.2,1.9c-0.3,0.7-0.4,1.5-0.4,2.4c0,0.9,0.1,1.7,0.4,2.4c0.3,0.7,0.7,1.4,1.2,1.9c0.5,0.5,1.1,1,1.9,1.3
		c0.7,0.3,1.5,0.4,2.3,0.4c0.9,0,1.8-0.2,2.6-0.6c0.8-0.4,1.6-1,2.2-1.8l-1.2-1c-0.3,0.5-0.8,1-1.4,1.4c-0.6,0.4-1.4,0.6-2.2,0.6
		c-0.6,0-1.1-0.1-1.6-0.3c-0.5-0.2-0.9-0.5-1.3-0.9c-0.4-0.4-0.7-0.8-0.9-1.3c-0.2-0.5-0.4-1-0.4-1.6h9.5v-0.7
		c0-0.8-0.1-1.5-0.4-2.2C272,81.3,271.6,80.7,271.2,80.2z M263.2,83.6c0-0.5,0.1-0.9,0.3-1.4c0.2-0.4,0.5-0.8,0.9-1.2
		c0.4-0.3,0.8-0.6,1.3-0.8c0.5-0.2,1-0.3,1.5-0.3c1.2,0,2.1,0.3,2.7,1c0.6,0.7,1,1.6,1,2.6H263.2z"/>
	<polygon class="st0" points="284.7,78.8 282.7,78.8 279.7,83 276.5,78.8 274.3,78.8 278.5,84.1 273.8,90.1 275.8,90.1 279.5,85.1 
		283.3,90.1 285.5,90.1 280.7,84.1 	"/>
	<path class="st0" d="M297.6,80.2c-0.5-0.5-1.2-1-1.9-1.3c-0.7-0.3-1.6-0.5-2.4-0.5c-0.4,0-0.8,0-1.2,0.1c-0.4,0.1-0.8,0.2-1.2,0.4
		c-0.4,0.2-0.8,0.4-1.1,0.7s-0.7,0.6-0.9,1h0v-1.9h-1.6v18.4h1.6v-8.9h0c0.3,0.4,0.6,0.7,0.9,1c0.4,0.3,0.7,0.5,1.1,0.7
		c0.4,0.2,0.8,0.3,1.2,0.4c0.4,0.1,0.8,0.1,1.2,0.1c0.9,0,1.7-0.2,2.4-0.4c0.7-0.3,1.4-0.7,1.9-1.3c0.5-0.5,1-1.2,1.3-1.9
		c0.3-0.7,0.4-1.5,0.4-2.4c0-0.9-0.1-1.7-0.4-2.4C298.6,81.3,298.2,80.7,297.6,80.2z M297.3,86.2c-0.2,0.5-0.5,1-0.9,1.4
		c-0.4,0.4-0.8,0.7-1.3,1c-0.5,0.2-1.1,0.4-1.8,0.4c-0.7,0-1.3-0.1-1.8-0.4c-0.6-0.2-1-0.6-1.4-1c-0.4-0.4-0.7-0.9-0.9-1.4
		c-0.2-0.6-0.3-1.1-0.3-1.8c0-0.6,0.1-1.2,0.3-1.8c0.2-0.6,0.5-1,0.9-1.4c0.4-0.4,0.9-0.7,1.4-1c0.5-0.2,1.2-0.4,1.8-0.4
		c0.7,0,1.3,0.1,1.8,0.4c0.5,0.2,1,0.6,1.3,1c0.4,0.4,0.7,0.9,0.9,1.4c0.2,0.6,0.3,1.1,0.3,1.8C297.6,85.1,297.5,85.7,297.3,86.2z"
		/>
	<path class="st0" d="M311.2,80.2c-0.5-0.5-1-0.9-1.7-1.2s-1.4-0.5-2.3-0.5c-0.8,0-1.6,0.2-2.3,0.5c-0.7,0.3-1.3,0.7-1.8,1.3
		c-0.5,0.5-0.9,1.2-1.2,1.9c-0.3,0.7-0.4,1.5-0.4,2.4c0,0.9,0.1,1.7,0.4,2.4c0.3,0.7,0.7,1.4,1.2,1.9c0.5,0.5,1.1,1,1.9,1.3
		c0.7,0.3,1.5,0.4,2.3,0.4c0.9,0,1.8-0.2,2.6-0.6c0.8-0.4,1.6-1,2.2-1.8l-1.2-1c-0.3,0.5-0.8,1-1.4,1.4c-0.6,0.4-1.4,0.6-2.2,0.6
		c-0.6,0-1.1-0.1-1.6-0.3c-0.5-0.2-0.9-0.5-1.3-0.9c-0.4-0.4-0.7-0.8-0.9-1.3c-0.2-0.5-0.4-1-0.4-1.6h9.5v-0.7
		c0-0.8-0.1-1.5-0.4-2.2C312,81.3,311.7,80.7,311.2,80.2z M303.2,83.6c0-0.5,0.1-0.9,0.3-1.4s0.5-0.8,0.9-1.2
		c0.4-0.3,0.8-0.6,1.3-0.8c0.5-0.2,1-0.3,1.5-0.3c1.2,0,2.1,0.3,2.7,1c0.6,0.7,1,1.6,1,2.6H303.2z"/>
	<path class="st0" d="M317.9,81.2c0.4-0.4,0.8-0.7,1.3-0.9c0.5-0.2,1.1-0.3,1.8-0.3c0.6,0,1.2,0.1,1.7,0.4c0.5,0.3,0.9,0.6,1.2,1.1
		l1.3-1c-0.6-0.7-1.2-1.2-1.9-1.5c-0.7-0.3-1.5-0.5-2.2-0.5c-0.9,0-1.8,0.1-2.5,0.4c-0.7,0.3-1.4,0.7-1.9,1.2
		c-0.5,0.5-0.9,1.2-1.2,1.9c-0.3,0.7-0.4,1.5-0.4,2.4c0,0.9,0.1,1.7,0.4,2.4c0.3,0.7,0.7,1.4,1.2,1.9c0.5,0.5,1.2,1,1.9,1.3
		c0.7,0.3,1.6,0.4,2.5,0.4c0.8,0,1.5-0.2,2.2-0.5c0.7-0.3,1.4-0.8,1.9-1.5l-1.3-1c-0.3,0.4-0.7,0.8-1.2,1.1
		c-0.5,0.3-1.1,0.4-1.7,0.4c-0.7,0-1.3-0.1-1.8-0.3c-0.5-0.2-1-0.5-1.3-0.9c-0.4-0.4-0.7-0.9-0.8-1.4c-0.2-0.6-0.3-1.2-0.3-1.8
		c0-0.6,0.1-1.2,0.3-1.8C317.2,82.1,317.5,81.6,317.9,81.2z"/>
	<path class="st0" d="M332.4,88.8c-0.3,0.1-0.6,0.1-0.9,0.1c-0.2,0-0.5,0-0.7-0.1c-0.2-0.1-0.4-0.2-0.5-0.3
		c-0.1-0.1-0.3-0.4-0.3-0.6c-0.1-0.3-0.1-0.6-0.1-1v-6.7h3.3v-1.5h-3.3v-3.2h-1.6v3.2h-2.4v1.5h2.4v7.2c0,0.6,0.1,1.1,0.3,1.5
		c0.2,0.4,0.4,0.7,0.7,0.9c0.3,0.2,0.6,0.4,0.9,0.5c0.3,0.1,0.7,0.1,1,0.1c0.8,0,1.6-0.1,2.2-0.4l-0.1-1.5
		C332.9,88.7,332.7,88.8,332.4,88.8z"/>
	<path class="st0" d="M352.5,80.2c-0.5-0.5-1.2-1-1.9-1.3s-1.6-0.5-2.4-0.5c-0.4,0-0.8,0-1.2,0.1c-0.4,0.1-0.8,0.2-1.2,0.4
		c-0.4,0.2-0.8,0.4-1.1,0.7c-0.4,0.3-0.7,0.6-0.9,1h0v-8.9h-1.6v18.4h1.6v-1.9h0c0.3,0.4,0.6,0.7,0.9,1c0.4,0.3,0.7,0.5,1.1,0.7
		c0.4,0.2,0.8,0.3,1.2,0.4c0.4,0.1,0.8,0.1,1.2,0.1c0.9,0,1.7-0.2,2.4-0.4c0.7-0.3,1.4-0.7,1.9-1.3c0.5-0.5,1-1.2,1.3-1.9
		c0.3-0.7,0.4-1.5,0.4-2.4c0-0.9-0.2-1.7-0.4-2.4C353.5,81.3,353,80.7,352.5,80.2z M352.2,86.2c-0.2,0.5-0.5,1-0.9,1.4
		c-0.4,0.4-0.8,0.7-1.3,1c-0.5,0.2-1.1,0.4-1.8,0.4c-0.7,0-1.3-0.1-1.8-0.4c-0.5-0.2-1-0.6-1.4-1c-0.4-0.4-0.7-0.9-0.9-1.4
		c-0.2-0.6-0.3-1.1-0.3-1.8c0-0.6,0.1-1.2,0.3-1.8c0.2-0.6,0.5-1,0.9-1.4c0.4-0.4,0.9-0.7,1.4-1c0.6-0.2,1.2-0.4,1.8-0.4
		c0.7,0,1.3,0.1,1.8,0.4c0.5,0.2,1,0.6,1.3,1c0.4,0.4,0.7,0.9,0.9,1.4c0.2,0.6,0.3,1.1,0.3,1.8C352.5,85.1,352.4,85.7,352.2,86.2z"
		/>
	<path class="st0" d="M366.1,80.2c-0.5-0.5-1-0.9-1.7-1.2s-1.4-0.5-2.3-0.5c-0.8,0-1.6,0.2-2.3,0.5s-1.3,0.7-1.8,1.3
		c-0.5,0.5-0.9,1.2-1.2,1.9c-0.3,0.7-0.4,1.5-0.4,2.4c0,0.9,0.1,1.7,0.4,2.4c0.3,0.7,0.7,1.4,1.2,1.9c0.5,0.5,1.1,1,1.9,1.3
		c0.7,0.3,1.5,0.4,2.3,0.4c0.9,0,1.8-0.2,2.6-0.6c0.8-0.4,1.6-1,2.2-1.8l-1.2-1c-0.3,0.5-0.8,1-1.4,1.4c-0.6,0.4-1.4,0.6-2.2,0.6
		c-0.6,0-1.1-0.1-1.6-0.3c-0.5-0.2-0.9-0.5-1.3-0.9c-0.4-0.4-0.7-0.8-0.9-1.3c-0.2-0.5-0.4-1-0.4-1.6h9.5v-0.7
		c0-0.8-0.1-1.5-0.4-2.2C366.9,81.3,366.6,80.7,366.1,80.2z M358.1,83.6c0-0.5,0.1-0.9,0.3-1.4s0.5-0.8,0.9-1.2
		c0.4-0.3,0.8-0.6,1.3-0.8c0.5-0.2,1-0.3,1.5-0.3c1.2,0,2.1,0.3,2.7,1c0.6,0.7,1,1.6,1,2.6H358.1z"/>
	<path class="st0" d="M375.5,88.8c-0.3,0.1-0.6,0.1-0.9,0.1c-0.2,0-0.5,0-0.7-0.1c-0.2-0.1-0.4-0.2-0.5-0.3
		c-0.1-0.1-0.3-0.4-0.3-0.6c-0.1-0.3-0.1-0.6-0.1-1v-6.7h3.3v-1.5H373v-3.2h-1.6v3.2H369v1.5h2.4v7.2c0,0.6,0.1,1.1,0.3,1.5
		c0.2,0.4,0.4,0.7,0.7,0.9c0.3,0.2,0.6,0.4,0.9,0.5c0.3,0.1,0.7,0.1,1,0.1c0.8,0,1.6-0.1,2.2-0.4l-0.1-1.5
		C376.1,88.7,375.8,88.8,375.5,88.8z"/>
	<path class="st0" d="M383.6,88.8c-0.3,0.1-0.6,0.1-0.8,0.1c-0.2,0-0.5,0-0.7-0.1c-0.2-0.1-0.4-0.2-0.5-0.3
		c-0.1-0.1-0.3-0.4-0.3-0.6c-0.1-0.3-0.1-0.6-0.1-1v-6.7h3.3v-1.5h-3.3v-3.2h-1.6v3.2h-2.4v1.5h2.4v7.2c0,0.6,0.1,1.1,0.3,1.5
		c0.2,0.4,0.4,0.7,0.7,0.9c0.3,0.2,0.6,0.4,0.9,0.5c0.3,0.1,0.7,0.1,1,0.1c0.8,0,1.6-0.1,2.2-0.4l-0.1-1.5
		C384.2,88.7,383.9,88.8,383.6,88.8z"/>
	<path class="st0" d="M395.7,80.2c-0.5-0.5-1-0.9-1.7-1.2c-0.7-0.3-1.4-0.5-2.3-0.5c-0.8,0-1.6,0.2-2.3,0.5
		c-0.7,0.3-1.3,0.7-1.8,1.3c-0.5,0.5-0.9,1.2-1.2,1.9c-0.3,0.7-0.4,1.5-0.4,2.4c0,0.9,0.2,1.7,0.5,2.4c0.3,0.7,0.7,1.4,1.2,1.9
		c0.5,0.5,1.1,1,1.9,1.3c0.7,0.3,1.5,0.4,2.3,0.4c0.9,0,1.8-0.2,2.6-0.6c0.8-0.4,1.6-1,2.2-1.8l-1.2-1c-0.3,0.5-0.8,1-1.4,1.4
		c-0.6,0.4-1.4,0.6-2.2,0.6c-0.6,0-1.1-0.1-1.6-0.3c-0.5-0.2-0.9-0.5-1.3-0.9c-0.4-0.4-0.7-0.8-0.9-1.3c-0.2-0.5-0.4-1-0.4-1.6h9.5
		v-0.7c0-0.8-0.1-1.5-0.4-2.2S396.2,80.7,395.7,80.2z M387.7,83.6c0-0.5,0.1-0.9,0.3-1.4s0.5-0.8,0.9-1.2c0.4-0.3,0.8-0.6,1.3-0.8
		c0.5-0.2,1-0.3,1.5-0.3c1.2,0,2.1,0.3,2.7,1c0.6,0.7,1,1.6,1,2.6H387.7z"/>
	<path class="st0" d="M404.1,78.7c-0.4,0.1-0.7,0.3-1,0.5c-0.3,0.2-0.6,0.5-0.8,0.8c-0.2,0.3-0.4,0.6-0.5,0.9h0v-2.1h-1.6
		c0,0.8,0,1.5,0.1,2c0,0.5,0,1,0,1.5v7.8h1.6v-6.4c0-0.4,0.1-0.8,0.2-1.2c0.1-0.4,0.4-0.8,0.6-1.2c0.3-0.4,0.7-0.7,1.1-0.9
		c0.4-0.2,1-0.4,1.6-0.4c0.4,0,0.7,0,0.9,0.1l0.3-1.6c-0.3-0.1-0.7-0.1-1.2-0.1C404.9,78.5,404.4,78.5,404.1,78.7z"/>
	<path class="st0" d="M420.3,78.5c-0.4,0-0.7,0.1-1.1,0.2c-0.4,0.1-0.7,0.3-1.1,0.4c-0.3,0.2-0.6,0.4-0.9,0.7
		c-0.3,0.3-0.5,0.5-0.7,0.8h0v-8.8h-1.6v18.4h1.6v-5.8c0-1,0.2-1.8,0.5-2.4c0.3-0.6,0.7-1,1.1-1.3c0.4-0.3,0.8-0.5,1.2-0.5
		c0.4-0.1,0.6-0.1,0.7-0.1c1.2,0,2,0.3,2.4,1c0.4,0.7,0.7,1.6,0.7,2.9v6.3h1.6v-7.2c0-1.4-0.3-2.5-1-3.3
		C422.9,78.9,421.8,78.5,420.3,78.5z"/>
	<path class="st0" d="M437.5,80.2c-0.5-0.5-1-0.9-1.7-1.2c-0.7-0.3-1.4-0.5-2.3-0.5c-0.8,0-1.6,0.2-2.3,0.5s-1.3,0.7-1.8,1.3
		c-0.5,0.5-0.9,1.2-1.2,1.9c-0.3,0.7-0.4,1.5-0.4,2.4c0,0.9,0.1,1.7,0.4,2.4c0.3,0.7,0.7,1.4,1.2,1.9c0.5,0.5,1.1,1,1.9,1.3
		c0.7,0.3,1.5,0.4,2.3,0.4c0.9,0,1.8-0.2,2.6-0.6c0.8-0.4,1.6-1,2.2-1.8l-1.2-1c-0.3,0.5-0.8,1-1.4,1.4c-0.6,0.4-1.4,0.6-2.2,0.6
		c-0.6,0-1.1-0.1-1.6-0.3c-0.5-0.2-0.9-0.5-1.3-0.9c-0.4-0.4-0.7-0.8-0.9-1.3c-0.2-0.5-0.4-1-0.4-1.6h9.5v-0.7
		c0-0.8-0.1-1.5-0.4-2.2C438.4,81.3,438,80.7,437.5,80.2z M429.5,83.6c0-0.5,0.1-0.9,0.3-1.4s0.5-0.8,0.9-1.2
		c0.4-0.3,0.8-0.6,1.3-0.8c0.5-0.2,1-0.3,1.5-0.3c1.2,0,2.1,0.3,2.7,1c0.6,0.7,1,1.6,1,2.6H429.5z"/>
	<path class="st0" d="M450.8,87.6v-5.1c0-0.7-0.1-1.3-0.3-1.8c-0.2-0.5-0.5-0.9-0.9-1.2c-0.4-0.3-0.8-0.6-1.3-0.7
		c-0.5-0.2-1-0.2-1.6-0.2c-2.1,0-3.7,0.6-4.8,1.7l1,1.1c1-0.9,2.1-1.3,3.5-1.3c1.9,0,2.9,1,2.9,2.9v0.3h-0.8c-0.7,0-1.4,0-2.2,0.1
		s-1.6,0.2-2.3,0.5c-0.7,0.3-1.3,0.7-1.8,1.2c-0.5,0.5-0.7,1.3-0.7,2.2c0,0.6,0.1,1,0.3,1.4c0.2,0.4,0.5,0.8,0.9,1
		c0.4,0.3,0.8,0.5,1.3,0.6c0.5,0.1,1,0.2,1.5,0.2c0.9,0,1.7-0.2,2.3-0.5c0.6-0.3,1.2-0.9,1.7-1.6h0c0,0.3,0,0.6,0,0.9
		c0,0.3,0.1,0.6,0.1,0.9h1.6c0-0.3-0.1-0.7-0.1-1.2C450.8,88.5,450.8,88,450.8,87.6z M449.2,85.3c0,0.5-0.1,1-0.2,1.4
		c-0.1,0.4-0.4,0.8-0.6,1.2c-0.3,0.3-0.7,0.6-1.1,0.8c-0.4,0.2-0.9,0.3-1.5,0.3c-0.3,0-0.6,0-1-0.1s-0.6-0.2-0.9-0.4
		c-0.3-0.2-0.5-0.4-0.6-0.7c-0.2-0.3-0.2-0.6-0.2-1c0-0.6,0.2-1,0.6-1.3c0.4-0.3,0.9-0.6,1.4-0.7c0.6-0.2,1.1-0.3,1.7-0.3
		c0.6,0,1.1-0.1,1.5-0.1h0.8V85.3z"/>
	<rect x="454.9" y="71.8" class="st0" width="1.6" height="18.4"/>
	<path class="st0" d="M465.4,88.8c-0.3,0.1-0.6,0.1-0.9,0.1c-0.2,0-0.5,0-0.7-0.1c-0.2-0.1-0.4-0.2-0.5-0.3
		c-0.1-0.1-0.3-0.4-0.3-0.6c-0.1-0.3-0.1-0.6-0.1-1v-6.7h3.3v-1.5h-3.3v-3.2h-1.6v3.2h-2.4v1.5h2.4v7.2c0,0.6,0.1,1.1,0.3,1.5
		c0.2,0.4,0.4,0.7,0.7,0.9c0.3,0.2,0.6,0.4,0.9,0.5c0.3,0.1,0.7,0.1,1,0.1c0.8,0,1.6-0.1,2.2-0.4l-0.1-1.5
		C466,88.7,465.7,88.8,465.4,88.8z"/>
	<path class="st0" d="M473.8,78.5c-0.4,0-0.7,0.1-1.1,0.2c-0.4,0.1-0.7,0.3-1.1,0.4c-0.3,0.2-0.6,0.4-0.9,0.7
		c-0.3,0.3-0.5,0.5-0.7,0.8h0v-8.8h-1.6v18.4h1.6v-5.8c0-1,0.2-1.8,0.5-2.4c0.3-0.6,0.7-1,1.1-1.3c0.4-0.3,0.8-0.5,1.2-0.5
		c0.4-0.1,0.6-0.1,0.7-0.1c1.2,0,2,0.3,2.4,1s0.7,1.6,0.7,2.9v6.3h1.6v-7.2c0-1.4-0.3-2.5-1-3.3C476.4,78.9,475.3,78.5,473.8,78.5z"
		/>
	<path class="st0" d="M484.2,81.2c0.4-0.4,0.8-0.7,1.3-0.9c0.5-0.2,1.1-0.3,1.8-0.3c0.6,0,1.2,0.1,1.7,0.4c0.5,0.3,0.9,0.6,1.2,1.1
		l1.3-1c-0.6-0.7-1.2-1.2-1.9-1.5c-0.7-0.3-1.5-0.5-2.2-0.5c-0.9,0-1.8,0.1-2.5,0.4c-0.7,0.3-1.4,0.7-1.9,1.2
		c-0.5,0.5-0.9,1.2-1.2,1.9c-0.3,0.7-0.4,1.5-0.4,2.4c0,0.9,0.1,1.7,0.4,2.4c0.3,0.7,0.7,1.4,1.2,1.9c0.5,0.5,1.2,1,1.9,1.3
		c0.7,0.3,1.6,0.4,2.5,0.4c0.8,0,1.5-0.2,2.2-0.5c0.7-0.3,1.4-0.8,1.9-1.5l-1.3-1c-0.3,0.4-0.7,0.8-1.2,1.1
		c-0.5,0.3-1.1,0.4-1.7,0.4c-0.7,0-1.3-0.1-1.8-0.3c-0.5-0.2-1-0.5-1.3-0.9c-0.4-0.4-0.7-0.9-0.8-1.4c-0.2-0.6-0.3-1.2-0.3-1.8
		c0-0.6,0.1-1.2,0.3-1.8C483.5,82.1,483.8,81.6,484.2,81.2z"/>
	<path class="st0" d="M502.5,87.6v-5.1c0-0.7-0.1-1.3-0.3-1.8c-0.2-0.5-0.5-0.9-0.9-1.2c-0.4-0.3-0.8-0.6-1.3-0.7
		c-0.5-0.2-1-0.2-1.6-0.2c-2.1,0-3.7,0.6-4.8,1.7l1,1.1c1-0.9,2.1-1.3,3.5-1.3c1.9,0,2.9,1,2.9,2.9v0.3h-0.8c-0.7,0-1.4,0-2.2,0.1
		c-0.8,0.1-1.6,0.2-2.3,0.5c-0.7,0.3-1.3,0.7-1.8,1.2c-0.5,0.5-0.7,1.3-0.7,2.2c0,0.6,0.1,1,0.3,1.4c0.2,0.4,0.5,0.8,0.9,1
		c0.4,0.3,0.8,0.5,1.3,0.6c0.5,0.1,1,0.2,1.5,0.2c0.9,0,1.7-0.2,2.3-0.5c0.6-0.3,1.2-0.9,1.7-1.6h0c0,0.3,0,0.6,0,0.9
		c0,0.3,0.1,0.6,0.1,0.9h1.6c0-0.3-0.1-0.7-0.1-1.2C502.5,88.5,502.5,88,502.5,87.6z M500.9,85.3c0,0.5-0.1,1-0.2,1.4
		c-0.1,0.4-0.4,0.8-0.6,1.2s-0.7,0.6-1.1,0.8S498,89,497.4,89c-0.3,0-0.6,0-1-0.1s-0.6-0.2-0.9-0.4c-0.3-0.2-0.5-0.4-0.6-0.7
		c-0.2-0.3-0.2-0.6-0.2-1c0-0.6,0.2-1,0.6-1.3s0.9-0.6,1.4-0.7c0.6-0.2,1.1-0.3,1.7-0.3c0.6,0,1.1-0.1,1.5-0.1h0.8V85.3z"/>
	<path class="st0" d="M510.2,78.7c-0.4,0.1-0.7,0.3-1,0.5c-0.3,0.2-0.6,0.5-0.8,0.8c-0.2,0.3-0.4,0.6-0.5,0.9h0v-2.1h-1.6
		c0,0.8,0,1.5,0.1,2c0,0.5,0,1,0,1.5v7.8h1.6v-6.4c0-0.4,0.1-0.8,0.2-1.2c0.1-0.4,0.4-0.8,0.6-1.2c0.3-0.4,0.7-0.7,1.1-0.9
		c0.4-0.2,1-0.4,1.6-0.4c0.4,0,0.7,0,0.9,0.1l0.3-1.6c-0.3-0.1-0.7-0.1-1.2-0.1C511,78.5,510.6,78.5,510.2,78.7z"/>
	<path class="st0" d="M523,80.2c-0.5-0.5-1-0.9-1.7-1.2c-0.7-0.3-1.4-0.5-2.3-0.5c-0.8,0-1.6,0.2-2.3,0.5c-0.7,0.3-1.3,0.7-1.8,1.3
		c-0.5,0.5-0.9,1.2-1.2,1.9c-0.3,0.7-0.4,1.5-0.4,2.4c0,0.9,0.2,1.7,0.5,2.4c0.3,0.7,0.7,1.4,1.2,1.9c0.5,0.5,1.1,1,1.9,1.3
		c0.7,0.3,1.5,0.4,2.3,0.4c0.9,0,1.8-0.2,2.6-0.6c0.8-0.4,1.6-1,2.2-1.8l-1.2-1c-0.3,0.5-0.8,1-1.4,1.4c-0.6,0.4-1.4,0.6-2.2,0.6
		c-0.6,0-1.1-0.1-1.6-0.3c-0.5-0.2-0.9-0.5-1.3-0.9c-0.4-0.4-0.7-0.8-0.9-1.3s-0.4-1-0.4-1.6h9.5v-0.7c0-0.8-0.1-1.5-0.4-2.2
		C523.8,81.3,523.4,80.7,523,80.2z M515,83.6c0-0.5,0.1-0.9,0.3-1.4s0.5-0.8,0.9-1.2c0.4-0.3,0.8-0.6,1.3-0.8c0.5-0.2,1-0.3,1.5-0.3
		c1.2,0,2.1,0.3,2.7,1c0.6,0.7,1,1.6,1,2.6H515z"/>
	<path class="st0" d="M245.4,78.9l-72.8,0h-7.9c-0.9,0-1.7-0.1-2.5-0.2c3.5-0.9,6.4-2.4,8.8-4.6c4.2-3.7,6.8-9.2,7.7-16.5l5-35
		h-10.9l-0.7,5h-0.2c-0.4-0.7-0.9-1.4-1.6-2.1c-0.7-0.7-1.5-1.4-2.6-1.9c-1-0.6-2.2-1-3.6-1.4c-1.4-0.4-2.9-0.6-4.6-0.6
		c-2.7,0-5.2,0.6-7.5,1.7c-2.3,1.1-4.3,2.6-6.1,4.4c-1.8,1.8-3.2,4-4.3,6.4c-1.1,2.4-1.9,4.9-2.2,7.4c-0.4,2.9-0.4,5.5,0.2,7.9
		c0.5,2.4,1.5,4.5,2.9,6.3c1.4,1.8,3.2,3.1,5.4,4.1c2.2,1,4.7,1.5,7.5,1.5c1.8,0,3.7-0.4,5.9-1.1c2.1-0.8,4-2.1,5.6-3.9h0.2
		l-0.5,3.7c-0.4,2.7-1.6,5-3.5,6.7c-1.9,1.7-4.7,2.6-8.2,2.6H92.6l0.6-4.2l-10.8,8l8,10.8l0.6-4.1l54.1,0c1,1.5,2.1,2.8,3.4,3.9
		c3.9,3.5,9.1,5.3,15.8,5.6l0.9,0l0.7,0l0,0h9.5l39.8,0h28.5l-0.6,4.2l10.8-8l-8-10.8L245.4,78.9z M166.5,48.1
		c-1,0.9-2.1,1.6-3.3,2.1c-1.2,0.5-2.5,0.8-3.8,0.8c-1.4,0-2.6-0.3-3.7-0.8c-1.1-0.5-2-1.2-2.7-2.1c-0.7-0.9-1.2-1.9-1.5-3
		c-0.3-1.1-0.4-2.3-0.2-3.6c0.2-1.3,0.6-2.5,1.2-3.6c0.7-1.1,1.5-2.1,2.4-3c1-0.9,2.1-1.6,3.3-2.1c1.2-0.5,2.5-0.8,3.9-0.8
		c1.3,0,2.5,0.3,3.6,0.8c1.1,0.5,2,1.2,2.7,2.1c0.7,0.9,1.2,1.9,1.5,3c0.3,1.1,0.4,2.3,0.2,3.6c-0.2,1.3-0.6,2.5-1.2,3.6
		C168.3,46.3,167.4,47.3,166.5,48.1z"/>
	<path class="st0" d="M77.5,5H64.6L37,39.6l-1.4,9.9h24.3l-1.5,11.2h11.3l1.5-11.2h7.2l1.4-9.9h-7.2L77.5,5z M61.3,39.6H48.8
		l15-19.2H64L61.3,39.6z"/>
	<path class="st0" d="M102.6,52.1c-1.2,0.4-2.4,0.6-3.8,0.6c-1.8,0-3.3-0.4-4.5-1.1c-1.2-0.7-2.3-1.7-3.3-3.1l-8.3,7.9
		c1.6,1.9,3.7,3.3,6.4,4.1c2.6,0.8,5.3,1.1,7.9,1.1c2,0,4.1-0.2,6.3-0.6c2.1-0.4,4.1-1.1,5.9-2c1.8-1,3.4-2.3,4.7-3.9
		c1.3-1.6,2.1-3.6,2.4-6.1c0.3-2.4,0.1-4.3-0.7-5.8c-0.8-1.4-1.8-2.6-3.2-3.4c-1.4-0.8-2.9-1.5-4.5-1.8c-1.7-0.4-3.2-0.8-4.6-1.1
		c-1.4-0.3-2.6-0.7-3.5-1.2c-0.9-0.4-1.3-1.1-1.2-2.1c0.2-1.2,0.7-2,1.7-2.4c1-0.5,2-0.7,3-0.7c2.9,0,5,1.1,6.4,3.2l8.2-7.2
		c-1.5-1.9-3.5-3.2-6-3.9c-2.5-0.7-5-1.1-7.5-1.1c-2,0-4,0.2-6,0.7c-2,0.5-3.8,1.3-5.5,2.3c-1.7,1.1-3.1,2.4-4.2,4
		c-1.2,1.6-1.9,3.6-2.2,5.8c-0.4,2.4-0.2,4.3,0.6,5.8c0.8,1.4,1.9,2.6,3.3,3.3c1.4,0.8,2.9,1.4,4.6,1.8c1.7,0.4,3.2,0.8,4.6,1.1
		c1.4,0.3,2.6,0.8,3.5,1.3c0.9,0.5,1.3,1.2,1.1,2.2C104.4,51,103.7,51.7,102.6,52.1z"/>
	<path class="st0" d="M126.9,15.3c0.5,0.6,1.2,1.1,2,1.5c0.8,0.4,1.7,0.6,2.6,0.6c0.9,0,1.9-0.2,2.8-0.6c0.9-0.4,1.7-0.9,2.4-1.5
		c0.7-0.6,1.3-1.3,1.8-2.2c0.5-0.8,0.8-1.7,0.9-2.7c0.3-1.9-0.2-3.5-1.3-4.8c-1.1-1.3-2.6-2-4.5-2c-0.9,0-1.9,0.2-2.8,0.5
		c-0.9,0.4-1.7,0.9-2.4,1.5c-0.7,0.6-1.3,1.3-1.8,2.2c-0.5,0.8-0.8,1.7-0.9,2.7c-0.1,0.9,0,1.8,0.2,2.7
		C126,14,126.4,14.7,126.9,15.3z"/>
	<polygon class="st0" points="136.6,22.5 124.8,22.5 119.5,60.7 131.3,60.7 	"/>
	<path class="st0" d="M199.1,41.7c0.2-1.3,0.4-2.5,0.7-3.6c0.3-1.2,0.8-2.2,1.4-3.1c0.6-0.9,1.5-1.7,2.5-2.2c1-0.5,2.3-0.8,3.8-0.8
		s2.6,0.3,3.4,0.9c0.7,0.6,1.2,1.4,1.5,2.4c0.3,1,0.3,2.1,0.2,3.3c-0.1,1.2-0.2,2.3-0.4,3.4l-2.6,18.7h11.8l2.9-21.1
		c0.4-2.6,0.5-5,0.5-7.2c-0.1-2.2-0.5-4.1-1.3-5.7c-0.8-1.6-2-2.9-3.8-3.8c-1.7-0.9-4.1-1.4-7.1-1.4c-1.4,0-2.8,0.2-4,0.6
		c-1.3,0.4-2.4,0.8-3.3,1.4c-1,0.6-1.8,1.2-2.5,2c-0.7,0.7-1.2,1.5-1.6,2.2H201l3.7-26.4h-11.8l-8.3,59.4h11.8L199.1,41.7z"/>
	<path class="st0" d="M250.7,11.2h-11.8l-1.6,11.3h-7.5l-1.3,9.4h7.5l-2.6,18.2c-0.3,2.1-0.1,3.9,0.4,5.3c0.5,1.5,1.3,2.7,2.4,3.6
		c1.1,0.9,2.5,1.6,4.1,2c1.6,0.4,3.4,0.6,5.4,0.6c1.4,0,2.8-0.1,4.2-0.2c1.4-0.2,2.8-0.5,4.2-0.9l1.3-9.8c-0.6,0.5-1.4,0.8-2.4,0.9
		c-1,0.1-1.8,0.2-2.5,0.2c-1.3,0-2.2-0.2-2.9-0.5c-0.7-0.3-1.2-0.8-1.5-1.5c-0.3-0.6-0.4-1.4-0.4-2.2c0-0.9,0.1-1.8,0.2-2.9
		l1.8-12.7h10.4l1.3-9.4h-10.4L250.7,11.2z"/>
</g>
</svg>
