<?xml version="1.0" encoding="UTF-8"?>
<svg version="1.1" viewBox="0 0 564.7 98.2" xmlns="http://www.w3.org/2000/svg">
<style type="text/css">.st0{fill:url(#b);}</style>
$darkTeal:#333E48;
  $teal:#4D868E;
  $green:#A8C643;
  $green:#82BC00;
  $lightGray:#E6E7E8;
  $gray:#333E48;
  $darkGray:#848B91;
<defs>
<linearGradient id="a">
<stop stop-color="#333E48" offset="0"/>
<stop stop-color="#4D868E" offset=".143"/>
<stop stop-color="#4D868E" offset=".286"/>
<stop stop-color="#333E48" offset=".429"/>
<stop stop-color="#333E48" offset=".572"/>
<stop stop-color="#4D868E" offset=".858"/>
<stop stop-color="#333E48" offset="1"/>
</linearGradient>
<pattern id="b" width="300%" height="100%" patternUnits="userSpaceOnUse">
<rect width="150%" height="100%" fill="url(#a)">
<animate attributeName="x" attributeType="XML" dur="2s" from="0" repeatCount="indefinite" to="150%"/>
</rect>
<rect x="-150%" width="150%" height="100%" fill="url(#a)">
<animate attributeName="x" attributeType="XML" dur="2s" from="-150%" repeatCount="indefinite" to="0"/>
</rect>
</pattern>
</defs>
<path class="st0" d="m240.3 59.7h-14.8l0.79999-3.6h4.8l9.8-42.2h-5.4l0.79999-3.7h15.2l-0.90002 3.7h-5.2l-4.2 18h24.5l4.2-18h-5.2l0.80005-3.7h13.6l-0.90002 3.7h-3.8l-9.8 42.2h5.4l-0.90002 3.6h-15l0.90002-3.6h5.1l4.8-20.6h-24.5l-4.8 20.6h5.6l-0.89996 3.6zm34.4-3.6l-0.79999 3.6h35.6l3.5-15.5h-3.6l-2.8 11.9h-22.4l4.6-19.9h18l0.89996-3.6h-18l4.3-18.7h22l-2.7 11.9h3.6l3.6-15.6h-35.7l-0.79999 3.7h5.5l-9.8 42.2h-5zm82.7 0h6.4l-0.89996 3.6h-17l0.89996-3.6h6.1l-1.7-14.9h-19.1l-7.7 14.9h5.9l-0.90002 3.6h-16.5l0.89996-3.6h6.2l22.4-42.2h-6.2l0.89996-3.6h21.8l-0.89996 3.6h-5.5l4.9 42.2zm-6.6-18.5l-2.6-24.3h-1.5l-12.7 24.3h16.8zm44.6 18.5h-19.7l9.8-42.2h5.6l0.90002-3.7h-16.1l-0.79999 3.7h5.9l-9.8 42.2h-5.6l-0.79999 3.6h34.1l4.8-20.7h-4.3l-4 17.1zm17.4-42.2h12.2l-9.8 42.2h-5.5l-0.69995 3.6h15.4l0.79999-3.6h-5.5l9.8-42.2h12.2l-3.5 15.2h3.7l4.4-18.9h-36.3l-4.4 18.9h3.7l3.5-15.2zm67-3.7l-0.80005 3.7h5.2l-4.2 18h-24.5l4.1-18h5.3l0.90002-3.7h-15.2l-0.90002 3.7h5.4l-9.7 42.2h-4.8l-0.90002 3.6h14.9l0.90002-3.6h-5.6l4.8-20.6h24.5l-4.8 20.6h-5.1l-0.90002 3.6h15l0.90002-3.6h-5.4l9.8-42.2h3.8l0.90002-3.7h-13.6zm-243.2 70.7c0.29999 0.70001 0.39996 1.4 0.39996 2.2v0.70001h-9.5c0 0.59998 0.20001 1.1 0.40002 1.6 0.19995 0.5 0.5 0.90002 0.89996 1.3 0.40002 0.40002 0.79999 0.70001 1.3 0.90002s1 0.29999 1.6 0.29999c0.79999 0 1.6-0.20001 2.2-0.59998 0.59998-0.40002 1.1-0.90002 1.4-1.4l1.2 1c-0.59998 0.79999-1.4 1.4-2.2 1.8-0.79999 0.40002-1.7 0.60004-2.6 0.60004-0.79999 0-1.6-0.10004-2.3-0.40002-0.79999-0.29999-1.4-0.79999-1.9-1.3s-0.90002-1.2-1.2-1.9-0.39996-1.5-0.39996-2.4c0-0.90002 0.099976-1.7 0.39996-2.4 0.30005-0.70001 0.70001-1.4 1.2-1.9 0.5-0.59998 1.1-1 1.8-1.3s1.5-0.5 2.3-0.5c0.90002 0 1.6 0.20001 2.3 0.5s1.2 0.70001 1.7 1.2c0.40002 0.5 0.79999 1.1 1.0001 2zm-1.3 1.3c0-1-0.40002-1.9-1-2.6-0.60004-0.70001-1.5-1-2.7-1-0.5 0-1 0.099976-1.5 0.29999s-0.90002 0.5-1.3 0.79999c-0.40002 0.40002-0.70001 0.79999-0.90002 1.2-0.18567 0.46429-0.276 0.84802-0.28925 1.3h7.6893zm13.8-4.7h-2l-3 4.2-3.2-4.2h-2.2l4.2 5.3-4.7 6h2l3.7-5 3.8 5h2.2l-4.8-6 4-5.3zm14.2 3.2c0.29999 0.70001 0.39996 1.5 0.39996 2.4 0 0.90002-0.099976 1.7-0.39996 2.4s-0.79999 1.4-1.3 1.9c-0.5 0.59998-1.2 1-1.9 1.3-0.69995 0.20001-1.5 0.40002-2.4 0.40002-0.40002 0-0.80005 0-1.2-0.10004-0.40002-0.099976-0.80005-0.20001-1.2-0.39996-0.40002-0.20001-0.70001-0.40002-1.1-0.70001-0.29999-0.29999-0.59998-0.60004-0.89996-1v8.9h-1.6v-18.4h1.6v1.9c0.19995-0.39996 0.59998-0.69995 0.89996-1 0.30005-0.29999 0.70001-0.5 1.1-0.69995 0.40002-0.20001 0.79999-0.30005 1.2-0.40002s0.79999-0.099976 1.2-0.099976c0.79999 0 1.7 0.19995 2.4 0.5 0.70001 0.29999 1.4 0.79999 1.9 1.3 0.59998 0.5 1 1.1 1.3 1.8zm-1.3 2.4c0-0.70001-0.099976-1.2-0.29999-1.8-0.19995-0.5-0.5-1-0.89996-1.4-0.29999-0.40002-0.79999-0.79999-1.3-1-0.5-0.29999-1.1-0.40002-1.8-0.40002-0.59998 0-1.3 0.20001-1.8 0.40002-0.5 0.29999-1 0.59998-1.4 1-0.39996 0.39996-0.69995 0.79999-0.89996 1.4-0.20001 0.60004-0.29999 1.2-0.29999 1.8 0 0.70001 0.099976 1.2 0.29999 1.8 0.19995 0.5 0.5 1 0.89996 1.4 0.40002 0.39996 0.79999 0.79999 1.4 1 0.5 0.29999 1.1 0.39996 1.8 0.39996 0.69995 0 1.3-0.20001 1.8-0.39996 0.5-0.30005 0.89996-0.60004 1.3-1 0.39996-0.40002 0.69995-0.90002 0.89996-1.4s0.30005-1.1 0.29999-1.8zm14.6-2.2c0.29999 0.70001 0.39996 1.4 0.39996 2.2v0.70001h-9.5c0 0.59998 0.20001 1.1 0.40002 1.6 0.19995 0.5 0.5 0.90002 0.89996 1.3 0.40002 0.40002 0.79999 0.70001 1.3 0.90002s1 0.29999 1.6 0.29999c0.79999 0 1.6-0.20001 2.2-0.59998 0.59998-0.40002 1.1-0.90002 1.4-1.4l1.2 1c-0.59998 0.79999-1.4 1.4-2.2 1.8-0.79999 0.40002-1.7 0.60004-2.6 0.60004-0.79999 0-1.6-0.10004-2.3-0.40002-0.79999-0.29999-1.4-0.79999-1.9-1.3s-0.90002-1.2-1.2-1.9-0.39996-1.5-0.39996-2.4c0-0.90002 0.099976-1.7 0.39996-2.4 0.30005-0.70001 0.70001-1.4 1.2-1.9 0.5-0.59998 1.1-1 1.8-1.3s1.5-0.5 2.3-0.5c0.90002 0 1.6 0.20001 2.3 0.5s1.2 0.70001 1.7 1.2 0.79999 1.1 1.0001 2zm-1.3 1.3c0-1-0.40002-1.9-1-2.6-0.60004-0.70001-1.5-1-2.7-1-0.5 0-1 0.099976-1.5 0.29999s-0.90002 0.5-1.3 0.79999c-0.40002 0.40002-0.70001 0.70001-0.90002 1.2-0.18567 0.46429-0.276 0.84802-0.28925 1.3h7.6893zm7-2.3c0.39996-0.40002 0.79999-0.70001 1.3-0.90002 0.5-0.19995 1.1-0.29999 1.8-0.29999 0.59998 0 1.2 0.099976 1.7 0.40002 0.5 0.29999 0.89996 0.59998 1.2 1.1l1.3-1c-0.60004-0.70001-1.2-1.2-1.9-1.5s-1.5-0.5-2.2-0.5c-0.89996 0-1.8 0.099976-2.5 0.40002-0.70001 0.29999-1.4 0.69995-1.9 1.2s-0.90002 1.2-1.2 1.9-0.40002 1.5-0.40002 2.4c0 0.89996 0.10004 1.7 0.40002 2.4s0.70001 1.4 1.2 1.9 1.2 1 1.9 1.3c0.70001 0.29999 1.6 0.40002 2.5 0.40002 0.79999 0 1.5-0.20001 2.2-0.5s1.4-0.79999 1.9-1.5l-1.3-1c-0.29999 0.39996-0.70001 0.79999-1.2 1.1s-1.1 0.40002-1.7 0.40002c-0.70001 0-1.3-0.10004-1.8-0.29999-0.5-0.20001-1-0.5-1.3-0.90002-0.40002-0.40002-0.70001-0.90002-0.79999-1.4-0.20001-0.59998-0.29999-1.2-0.29999-1.8 0-0.59998 0.099976-1.2 0.29999-1.8 0.099976-0.59998 0.39996-1.1 0.79999-1.5zm14.5 7.6c-0.29999 0.10004-0.60004 0.10004-0.90002 0.10004-0.20001 0-0.5 0-0.70001-0.10004-0.20001-0.099976-0.39996-0.19995-0.5-0.29999-0.099976-0.099976-0.29999-0.39996-0.29999-0.59998-0.099976-0.29999-0.099976-0.60004-0.099976-1v-6.7h3.3v-1.5h-3.3v-3.2h-1.6v3.2h-2.4v1.5h2.4v7.2c0 0.59998 0.10004 1.1 0.29999 1.5 0.20001 0.39996 0.40002 0.70001 0.70001 0.89996 0.29999 0.20001 0.60004 0.40002 0.90002 0.5 0.29999 0.10004 0.70001 0.10004 1 0.10004 0.79999 0 1.6-0.10004 2.2-0.40002l-0.10004-1.5c-0.39996 0.20001-0.59998 0.29999-0.89996 0.29999zm21.4-6.8c0.20001 0.70001 0.40002 1.5 0.40002 2.4 0 0.90002-0.10004 1.7-0.40002 2.4s-0.79999 1.4-1.3 1.9c-0.5 0.59998-1.2 1-1.9 1.3-0.70001 0.20001-1.5 0.40002-2.4 0.40002-0.40002 0-0.79999 0-1.2-0.10004-0.40002-0.099976-0.79999-0.20001-1.2-0.39996-0.39996-0.20001-0.70001-0.40002-1.1-0.70001-0.29999-0.29999-0.60004-0.60004-0.90002-1v1.9h-1.6v-18.4h1.6v8.9c0.20001-0.39996 0.5-0.69995 0.90002-1 0.29999-0.29999 0.70001-0.5 1.1-0.69995 0.40002-0.20001 0.80005-0.30005 1.2-0.40002 0.40002-0.099976 0.80005-0.099976 1.2-0.099976 0.79999 0 1.7 0.19995 2.4 0.5 0.69995 0.29999 1.4 0.79999 1.9 1.3s1 1.1 1.3 1.8zm-1.3 2.4c0-0.70001-0.099976-1.2-0.29999-1.8-0.19995-0.5-0.5-1-0.89996-1.4-0.29999-0.40002-0.79999-0.79999-1.3-1-0.5-0.29999-1.1-0.40002-1.8-0.40002-0.59998 0-1.2 0.20001-1.8 0.40002-0.5 0.29999-1 0.59998-1.4 1-0.39996 0.39996-0.69995 0.79999-0.89996 1.4-0.20001 0.60004-0.29999 1.2-0.29999 1.8 0 0.70001 0.099976 1.2 0.29999 1.8 0.19995 0.5 0.5 1 0.89996 1.4 0.40002 0.39996 0.90002 0.79999 1.4 1 0.5 0.29999 1.1 0.39996 1.8 0.39996 0.69995 0 1.3-0.20001 1.8-0.39996 0.5-0.30005 0.89996-0.60004 1.3-1 0.39996-0.40002 0.69995-0.90002 0.89996-1.4s0.29999-1.1 0.29999-1.8zm14.6-2.2c0.29999 0.70001 0.40002 1.4 0.40002 2.2v0.70001h-9.5c0 0.59998 0.19995 1.1 0.39996 1.6s0.5 0.90002 0.90002 1.3c0.39996 0.40002 0.79999 0.70001 1.3 0.90002s1 0.29999 1.6 0.29999c0.80005 0 1.6-0.20001 2.2-0.59998 0.60004-0.40002 1.1-0.90002 1.4-1.4l1.2 1c-0.60004 0.79999-1.4 1.4-2.2 1.8-0.80005 0.40002-1.7 0.60004-2.6 0.60004-0.79999 0-1.6-0.10004-2.3-0.40002-0.79999-0.29999-1.4-0.79999-1.9-1.3s-0.90002-1.2-1.2-1.9-0.40002-1.5-0.40002-2.4c0-0.90002 0.10004-1.7 0.40002-2.4s0.70001-1.4 1.2-1.9c0.5-0.59998 1.1-1 1.8-1.3 0.69995-0.29999 1.5-0.5 2.3-0.5 0.89996 0 1.6 0.20001 2.3 0.5s1.2 0.70001 1.7 1.2 0.79999 1.1 1 2zm-1.3 1.3c0-1-0.39996-1.9-1-2.6-0.59998-0.70001-1.5-1-2.7-1-0.5 0-1 0.099976-1.5 0.29999s-0.89996 0.5-1.3 0.79999c-0.39996 0.40002-0.70001 0.70001-0.89996 1.2-0.18573 0.46429-0.276 0.84802-0.28925 1.3h7.6892zm9.7 5.3c-0.29999 0.10004-0.59998 0.10004-0.89996 0.10004-0.20001 0-0.5 0-0.70001-0.10004-0.20001-0.099976-0.40002-0.19995-0.5-0.29999-0.10004-0.099976-0.29999-0.39996-0.29999-0.59998-0.10004-0.29999-0.10004-0.60004-0.10004-1v-6.7h3.3v-1.5h-3.3v-3.2h-1.6v3.2h-2.4v1.5h2.4v7.2c0 0.59998 0.099976 1.1 0.29999 1.5 0.20001 0.39996 0.39996 0.70001 0.70001 0.89996 0.29999 0.20001 0.59998 0.40002 0.89996 0.5 0.29999 0.10004 0.70001 0.10004 1 0.10004 0.79999 0 1.6-0.10004 2.2-0.40002l-0.099976-1.5c-0.29999 0.20001-0.60004 0.29999-0.90002 0.29999zm8.1 0c-0.29999 0.10004-0.60004 0.10004-0.79999 0.10004-0.20001 0-0.5 0-0.70001-0.10004-0.20001-0.099976-0.40002-0.19995-0.5-0.29999-0.10004-0.099976-0.29999-0.39996-0.29999-0.59998-0.10004-0.29999-0.10004-0.60004-0.10004-1v-6.7h3.3v-1.5h-3.3v-3.2h-1.6v3.2h-2.4v1.5h2.4v7.2c0 0.59998 0.099976 1.1 0.29999 1.5 0.20001 0.39996 0.39996 0.70001 0.70001 0.89996 0.29999 0.20001 0.59998 0.40002 0.89996 0.5 0.29999 0.10004 0.70001 0.10004 1 0.10004 0.79999 0 1.6-0.10004 2.2-0.40002l-0.099976-1.5c-0.40002 0.20001-0.70001 0.29999-1 0.29999zm13.2-6.6c0.29999 0.70001 0.40002 1.4 0.40002 2.2v0.70001h-9.5c0 0.59998 0.19995 1.1 0.39996 1.6s0.5 0.90002 0.90002 1.3c0.39996 0.40002 0.79999 0.70001 1.3 0.90002s1 0.29999 1.6 0.29999c0.80005 0 1.6-0.20001 2.2-0.59998 0.60004-0.40002 1.1-0.90002 1.4-1.4l1.2 1c-0.60004 0.79999-1.4 1.4-2.2 1.8-0.80005 0.40002-1.7 0.60004-2.6 0.60004-0.79999 0-1.6-0.10004-2.3-0.40002-0.79999-0.29999-1.4-0.79999-1.9-1.3s-0.90002-1.2-1.2-1.9-0.5-1.5-0.5-2.4c0-0.90002 0.099976-1.7 0.39996-2.4 0.30005-0.70001 0.70001-1.4 1.2-1.9 0.5-0.59998 1.1-1 1.8-1.3s1.5-0.5 2.3-0.5c0.90002 0 1.6 0.20001 2.3 0.5s1.2 0.70001 1.7 1.2 0.80005 1.3 1.1 2zm-1.4 1.3c0-1-0.40002-1.9-1-2.6-0.60004-0.70001-1.5-1-2.7-1-0.5 0-1 0.099976-1.5 0.29999s-0.90002 0.5-1.3 0.79999c-0.40002 0.40002-0.70001 0.70001-0.90002 1.2-0.18567 0.46429-0.276 0.84802-0.28925 1.3h7.6893zm8.7-4.8c-0.40002 0.099976-0.70001 0.29999-1 0.5s-0.60004 0.5-0.79999 0.79999c-0.20001 0.29999-0.40002 0.60004-0.5 0.90002v-2.1h-1.6c0 0.80005 0 1.5 0.10004 2v1.5 7.8h1.6v-6.4c0-0.40002 0.10004-0.79999 0.20001-1.2 0.10004-0.39996 0.40002-0.79999 0.60004-1.2 0.29999-0.40002 0.70001-0.70001 1.1-0.90002 0.40002-0.20001 1-0.40002 1.6-0.40002 0.39996 0 0.70001 0 0.89996 0.10004l0.29999-1.6c-0.29999-0.099976-0.70001-0.099976-1.2-0.099976-0.5 0.099976-1 0.099976-1.3 0.29999zm16.2-0.20001c-0.39996 0-0.70001 0.10004-1.1 0.20001-0.40002 0.099976-0.70001 0.29999-1.1 0.40002-0.29999 0.19995-0.59998 0.39996-0.89996 0.69995-0.29999 0.30005-0.5 0.5-0.70001 0.80005v-8.8h-1.6v18.4h1.6v-5.8c0-1 0.20001-1.8 0.5-2.4s0.70001-1 1.1-1.3c0.40002-0.29999 0.79999-0.5 1.2-0.5 0.40002-0.10004 0.60004-0.10004 0.70001-0.10004 1.2 0 2 0.30005 2.4 1 0.39996 0.70001 0.70001 1.6 0.70001 2.9v6.3h1.6v-7.2c0-1.4-0.29999-2.5-1-3.3-0.79999-0.89996-1.9-1.3-3.4-1.3zm18.2 3.7c0.29999 0.70001 0.39996 1.4 0.39996 2.2v0.70001h-9.5c0 0.59998 0.20001 1.1 0.40002 1.6 0.19995 0.5 0.5 0.90002 0.89996 1.3 0.40002 0.40002 0.79999 0.70001 1.3 0.90002s1 0.29999 1.6 0.29999c0.79999 0 1.6-0.20001 2.2-0.59998 0.59998-0.40002 1.1-0.90002 1.4-1.4l1.2 1c-0.59998 0.79999-1.4 1.4-2.2 1.8-0.79999 0.40002-1.7 0.60004-2.6 0.60004-0.79999 0-1.6-0.10004-2.3-0.40002-0.79999-0.29999-1.4-0.79999-1.9-1.3s-0.90002-1.2-1.2-1.9-0.39996-1.5-0.39996-2.4c0-0.90002 0.099976-1.7 0.39996-2.4 0.30005-0.70001 0.70001-1.4 1.2-1.9 0.5-0.59998 1.1-1 1.8-1.3 0.70001-0.29999 1.5-0.5 2.3-0.5 0.90002 0 1.6 0.20001 2.3 0.5s1.2 0.70001 1.7 1.2 0.90002 1.1 1.0001 2zm-1.3 1.3c0-1-0.40002-1.9-1-2.6-0.60004-0.70001-1.5-1-2.7-1-0.5 0-1 0.099976-1.5 0.29999s-0.90002 0.5-1.3 0.79999c-0.40002 0.40002-0.70001 0.70001-0.90002 1.2-0.18567 0.46429-0.276 0.84802-0.28925 1.3h7.6893zm13.9 5.5c0 0.5 0.099976 0.90002 0.099976 1.2h-1.6c0-0.29999-0.10004-0.59998-0.10004-0.90002v-0.89996c-0.5 0.69995-1.1 1.3-1.7 1.6-0.59998 0.29999-1.4 0.5-2.3 0.5-0.5 0-1-0.099976-1.5-0.20001-0.5-0.099976-0.89996-0.29999-1.3-0.59998-0.39996-0.20001-0.69995-0.59998-0.89996-1s-0.29999-0.79999-0.29999-1.4c0-0.89996 0.20001-1.7 0.70001-2.2s1.1-0.90002 1.8-1.2c0.69995-0.29999 1.4999-0.40002 2.3-0.5 0.79999-0.10004 1.5-0.10004 2.2-0.10004h0.79999v-0.29999c0-1.9-1-2.9-2.9-2.9-1.4 0-2.5 0.39996-3.5 1.3l-1-1.1c1.1-1.1 2.7-1.7 4.8-1.7 0.60004 0 1.1 0 1.6 0.19995 0.5 0.10004 0.89996 0.40002 1.3 0.70001 0.39996 0.29999 0.69995 0.70001 0.89996 1.2s0.29999 1.1 0.29999 1.8v5.1c0 0.39996 0 0.89996 0.30005 1.4zm-1.9-3.7h-0.10004v-0.89996h-0.79999c-0.39996 0-0.89996 0.099976-1.5 0.099976-0.59998 0-1.1 0.10004-1.7 0.30005-0.5 0.099976-1 0.39996-1.4 0.69995-0.40002 0.30005-0.60004 0.70001-0.60004 1.3 0 0.39996 0 0.69995 0.20001 1 0.10004 0.29999 0.30005 0.5 0.60004 0.69995 0.29999 0.20001 0.5 0.30005 0.89996 0.40002 0.40002 0.099976 0.70001 0.099976 1 0.099976 0.60004 0 1.1-0.099976 1.5-0.29999 0.40002-0.20001 0.80005-0.5 1.1-0.79999 0.20001-0.40002 0.5-0.79999 0.59998-1.2 0.10004-0.40002 0.20001-0.90002 0.20001-1.4zm5.7 4.9h1.6v-18.4h-1.6v18.4zm10.5-1.4c-0.29999 0.10004-0.60004 0.10004-0.90002 0.10004-0.20001 0-0.5 0-0.70001-0.10004-0.20001-0.099976-0.39996-0.19995-0.5-0.29999-0.099976-0.099976-0.29999-0.39996-0.29999-0.59998-0.099976-0.29999-0.099976-0.60004-0.099976-1v-6.7h3.3v-1.5h-3.3v-3.2h-1.6v3.2h-2.4v1.5h2.4v7.2c0 0.59998 0.10004 1.1 0.29999 1.5 0.20001 0.39996 0.40002 0.70001 0.70001 0.89996 0.29999 0.20001 0.60004 0.40002 0.90002 0.5 0.29999 0.10004 0.70001 0.10004 1 0.10004 0.79999 0 1.6-0.10004 2.2-0.40002l-0.10004-1.5c-0.29999 0.20001-0.59998 0.29999-0.89996 0.29999zm8.4-10.3c-0.39996 0-0.70001 0.10004-1.1 0.20001-0.40002 0.099976-0.70001 0.29999-1.1 0.40002-0.29999 0.19995-0.59998 0.39996-0.89996 0.69995-0.29999 0.30005-0.5 0.5-0.70001 0.80005v-8.8h-1.6v18.4h1.6v-5.8c0-1 0.20001-1.8 0.5-2.4s0.70001-1 1.1-1.3c0.40002-0.29999 0.79999-0.5 1.2-0.5 0.40002-0.10004 0.60004-0.10004 0.70001-0.10004 1.2 0 2 0.30005 2.4 1 0.39996 0.70001 0.70001 1.6 0.70001 2.9v6.3h1.6v-7.2c0-1.4-0.29999-2.5-1-3.3-0.79999-0.89996-1.9-1.3-3.4-1.3zm10.4 2.7c0.40002-0.40002 0.79999-0.70001 1.3-0.90002 0.5-0.19995 1.1-0.29999 1.8-0.29999 0.60004 0 1.2 0.099976 1.7 0.40002 0.5 0.29999 0.90002 0.59998 1.2 1.1l1.3-1c-0.59998-0.70001-1.2-1.2-1.9-1.5-0.70001-0.29999-1.5-0.5-2.2-0.5-0.90002 0-1.8 0.099976-2.5 0.40002-0.70001 0.29999-1.4 0.69995-1.9 1.2s-0.89996 1.2-1.2 1.9c-0.29999 0.70001-0.39996 1.5-0.39996 2.4 0 0.89996 0.099976 1.7 0.39996 2.4s0.70001 1.4 1.2 1.9 1.2 1 1.9 1.3 1.6 0.40002 2.5 0.40002c0.79999 0 1.5-0.20001 2.2-0.5s1.4-0.79999 1.9-1.5l-1.3-1c-0.29999 0.39996-0.70001 0.79999-1.2 1.1s-1.1 0.40002-1.7 0.40002c-0.70001 0-1.3-0.10004-1.8-0.29999-0.5-0.20001-1-0.5-1.3-0.90002-0.39996-0.40002-0.70001-0.90002-0.79999-1.4-0.20001-0.59998-0.29999-1.2-0.29999-1.8 0-0.59998 0.10004-1.2 0.29999-1.8 0.099976-0.59998 0.39996-1.1 0.79999-1.5zm18.6 7.8c0 0.5 0.099976 0.90002 0.099976 1.2h-1.6c0-0.29999-0.10004-0.59998-0.10004-0.90002v-0.89996c-0.5 0.69995-1.1 1.3-1.7 1.6-0.59998 0.29999-1.4 0.5-2.3 0.5-0.5 0-1-0.099976-1.5-0.20001-0.5-0.099976-0.89996-0.29999-1.3-0.59998-0.39996-0.20001-0.69995-0.59998-0.89996-1s-0.29999-0.79999-0.29999-1.4c0-0.89996 0.20001-1.7 0.70001-2.2s1.1-0.90002 1.8-1.2c0.69995-0.29999 1.5-0.40002 2.3-0.5 0.79999-0.10004 1.5-0.10004 2.2-0.10004h0.79999v-0.29999c0-1.9-1-2.9-2.9-2.9-1.4 0-2.5 0.39996-3.5 1.3l-1-1.1c1.1-1.1 2.7-1.7 4.8-1.7 0.60004 0 1.1 0 1.6 0.19995 0.5 0.10004 0.89996 0.40002 1.3 0.70001 0.39996 0.29999 0.69995 0.70001 0.89996 1.2s0.29999 1.1 0.29999 1.8v5.1c0 0.39996 0 0.89996 0.30005 1.4zm-1.9-3.7h-0.20001v-0.89996h-0.79999c-0.40002 0-0.90002 0.099976-1.5 0.099976-0.60004 0-1.1 0.10004-1.7 0.29999-0.5 0.10004-1 0.40002-1.4 0.70001-0.39996 0.29999-0.59998 0.70001-0.59998 1.3 0 0.40002 0 0.70001 0.20001 1 0.099976 0.30005 0.29999 0.5 0.59998 0.70001s0.5 0.29999 0.90002 0.40002c0.39996 0.099976 0.70001 0.099976 1 0.099976 0.59998 0 1.2-0.099976 1.6-0.29999 0.39996-0.20001 0.89996-0.40002 1.1-0.79999 0.20001-0.40002 0.5-0.79999 0.60004-1.2 0.099976-0.40002 0.20001-0.90002 0.20001-1.4zm9.3-6.6c-0.39996 0.099976-0.70001 0.29999-1 0.5s-0.59998 0.5-0.79999 0.79999-0.39996 0.60004-0.5 0.90002v-2.1h-1.6c0 0.80005 0 1.5 0.099976 2v1.5 7.8h1.6v-6.4c0-0.40002 0.099976-0.79999 0.20001-1.2 0.099976-0.39996 0.39996-0.79999 0.59998-1.2 0.29999-0.40002 0.70001-0.70001 1.1-0.90002 0.39996-0.20001 1-0.40002 1.6-0.40002 0.40002 0 0.70001 0 0.90002 0.10004l0.29999-1.6c-0.29999-0.099976-0.70001-0.099976-1.2-0.099976-0.50006 0.099976-0.90002 0.099976-1.3 0.29999zm13.9 3.5c0.30005 0.70001 0.40002 1.4 0.40002 2.2v0.70001h-9.5c0 0.59998 0.20001 1.1 0.40002 1.6s0.5 0.90002 0.90002 1.3c0.39996 0.40002 0.79999 0.70001 1.3 0.90002s1 0.29999 1.6 0.29999c0.79999 0 1.6-0.20001 2.2-0.59998 0.60004-0.40002 1.1-0.90002 1.4-1.4l1.2 1c-0.60004 0.79999-1.4 1.4-2.2 1.8-0.79999 0.40002-1.7 0.60004-2.6 0.60004-0.79999 0-1.6-0.10004-2.3-0.40002-0.80005-0.29999-1.4-0.79999-1.9-1.3s-0.90002-1.2-1.2-1.9-0.5-1.5-0.5-2.4c0-0.90002 0.10004-1.7 0.40002-2.4s0.70001-1.4 1.2-1.9c0.5-0.59998 1.1-1 1.8-1.3s1.5-0.5 2.3-0.5c0.89996 0 1.6 0.20001 2.3 0.5s1.2 0.70001 1.7 1.2c0.40002 0.5 0.79999 1.1 1.0999 2zm-1.3999 1.3c0-1-0.40002-1.9-1-2.6-0.60004-0.70001-1.5-1-2.7-1-0.5 0-1 0.099976-1.5 0.29999s-0.89996 0.5-1.3 0.79999c-0.40002 0.40002-0.70001 0.70001-0.90002 1.2-0.18573 0.46429-0.276 0.84802-0.28925 1.3h7.6893zm-276.8-8.8l8 10.8-10.8 8 0.60004-4.2h-79.4c-6.7-0.30005-11.9-2.1-15.8-5.6-1.3-1.1-2.4-2.4-3.4-3.9h-54.1l-0.59998 4.1-8-10.8 10.8-8-0.60004 4.2h62.3c3.5 0 6.3-0.89996 8.2-2.6 1.9-1.7 3.1-4 3.5-6.7l0.5-3.7h-0.20001c-1.6 1.8-3.5 3.1-5.6 3.9-2.2 0.70001-4.1 1.1-5.9 1.1-2.8 0-5.3-0.5-7.5-1.5s-4-2.3-5.4-4.1c-1.4-1.8-2.4-3.9-2.9-6.3-0.59998-2.4-0.59998-5-0.20001-7.9 0.30005-2.5 1.1-5 2.2-7.4 1.1-2.4 2.5-4.6 4.3-6.4 1.8-1.8 3.8-3.3 6.1-4.4 2.3-1.1 4.8-1.7 7.5-1.7 1.7 0 3.2 0.20001 4.6 0.59998 1.4 0.40002 2.6 0.79999 3.6 1.4 1.1 0.5 1.9 1.2 2.6 1.9 0.70001 0.70001 1.2 1.4 1.6 2.1h0.20001l0.69995-5h10.9l-5 35c-0.90002 7.3-3.5 12.8-7.7 16.5-2.4 2.2-5.3 3.7-8.8 4.6 0.79999 0.099976 1.6 0.20001 2.5 0.20001h80.7l0.49994-4.2zm-77-29.6c0.59998-1.1 1-2.3 1.2-3.6 0.20001-1.3 0.10004-2.5-0.19995-3.6-0.30005-1.1-0.80005-2.1-1.5-3-0.70001-0.90002-1.6-1.6-2.7-2.1-1.1-0.5-2.3-0.79999-3.6-0.79999-1.4 0-2.7 0.29999-3.9 0.79999s-2.3 1.2-3.3 2.1c-0.90002 0.89996-1.7 1.9-2.4 3-0.59998 1.1-1 2.3-1.2 3.6-0.19995 1.3-0.099976 2.5 0.20001 3.6 0.29999 1.1 0.79999 2.1 1.5 3 0.70001 0.89996 1.6 1.6 2.7 2.1 1.1 0.5 2.3 0.79999 3.7 0.79999 1.3 0 2.6-0.29999 3.8-0.79999s2.3-1.2 3.3-2.1c0.90002-0.80005 1.8-1.8 2.4-3zm-96.3-5.5h7.2l-1.4 9.9h-7.2l-1.5 11.2h-11.3l1.5-11.2h-24.3l1.4-9.9 27.6-34.6h12.9l-4.9 34.6zm-8.6-19.2h-0.20001l-15 19.2h12.5l2.7-19.2zm38.6 31.7c-1.2 0.39996-2.4 0.59998-3.8 0.59998-1.8 0-3.3-0.40002-4.5-1.1-1.2-0.70001-2.3-1.7-3.3-3.1l-8.3 7.9c1.6 1.9 3.7 3.3 6.4 4.1 2.6 0.79999 5.3 1.1 7.9 1.1 2 0 4.1-0.20001 6.3-0.60004 2.1-0.39996 4.1-1.1 5.9-2 1.8-1 3.4-2.3 4.7-3.9 1.3-1.6 2.1-3.6 2.4-6.1 0.29999-2.4 0.10004-4.3-0.70001-5.8-0.79999-1.4-1.8-2.6-3.2-3.4-1.4-0.79999-2.9-1.5-4.5-1.8-1.7-0.39996-3.2-0.79999-4.6-1.1-1.4-0.29999-2.6-0.70001-3.5-1.2-0.89996-0.40002-1.3-1.1-1.2-2.1 0.19995-1.2 0.69995-2 1.7-2.4 1-0.5 2-0.70001 3-0.70001 2.9 0 5 1.1 6.4 3.2l8.2-7.2c-1.5-1.9-3.5-3.2-6-3.9-2.5-0.70001-5-1.1-7.5-1.1-2 0-4 0.20001-6 0.70001s-3.8 1.3-5.5 2.3c-1.7 1.1-3.1 2.4-4.2 4-1.2 1.6-1.9 3.6-2.2 5.8-0.39996 2.4-0.20001 4.3 0.60004 5.8 0.79999 1.4 1.9 2.6 3.3 3.3 1.4 0.79999 2.9 1.4 4.6 1.8s3.2 0.79999 4.6 1.1c1.4 0.30005 2.6 0.80005 3.5 1.3 0.89996 0.5 1.3 1.2 1.1 2.2 0.20001 1.2-0.5 1.9-1.6 2.3zm24.3-36.8c0.5 0.60004 1.2 1.1 2 1.5 0.79999 0.40002 1.7 0.60004 2.6 0.60004s1.9-0.20001 2.8-0.60004c0.90002-0.39996 1.7-0.89996 2.4-1.5 0.70001-0.59998 1.3-1.3 1.8-2.2 0.5-0.80005 0.79999-1.7 0.90002-2.7 0.29999-1.9-0.20001-3.5-1.3-4.8-1.1-1.3-2.6-2-4.5-2-0.89996 0-1.9 0.19995-2.8 0.5-0.89996 0.39996-1.7 0.89996-2.4 1.5-0.70001 0.59998-1.3 1.3-1.8 2.2-0.5 0.80005-0.79999 1.7-0.89996 2.7-0.10004 0.90002 0 1.8 0.19995 2.7 0.10004 0.79999 0.50006 1.5 1.0001 2.1zm9.7 7.2h-11.8l-5.3 38.2h11.8l5.3-38.2zm62.5 19.2c0.19995-1.3 0.39996-2.5 0.69995-3.6 0.30005-1.2 0.80005-2.2 1.4-3.1 0.59998-0.89996 1.5-1.7 2.5-2.2s2.3-0.79999 3.8-0.79999 2.6 0.29999 3.4 0.90002c0.69995 0.59998 1.2 1.4 1.5 2.4 0.29999 1 0.29999 2.1 0.19995 3.3-0.099976 1.2-0.19995 2.3-0.39996 3.4l-2.6 18.7h11.8l2.9-21.1c0.40002-2.6 0.5-5 0.5-7.2-0.099976-2.2-0.5-4.1-1.3-5.7-0.79999-1.6-2-2.9-3.8-3.8-1.7-0.90002-4.1-1.4-7.1-1.4-1.4 0-2.8 0.20001-4 0.60004-1.3 0.39996-2.4 0.79999-3.3 1.4-1 0.60004-1.8 1.2-2.5 2-0.70001 0.70001-1.2 1.5-1.6 2.2h-0.19995l3.7-26.4h-11.8l-8.3 59.4h11.8l2.7-19zm51.6-30.5h-11.8l-1.6 11.3h-7.5l-1.3 9.4h7.5l-2.6 18.2c-0.29999 2.1-0.099976 3.9 0.40002 5.3 0.5 1.5 1.3 2.7 2.4 3.6 1.1 0.90002 2.5 1.6 4.1 2 1.6 0.40002 3.4 0.60004 5.4 0.60004 1.4 0 2.8-0.10004 4.2-0.20001 1.4-0.20001 2.8-0.5 4.2-0.90002l1.3-9.8c-0.59998 0.5-1.4 0.79999-2.4 0.90002-1 0.099976-1.8 0.19995-2.5 0.19995-1.3 0-2.2-0.19995-2.9-0.5-0.70001-0.29999-1.2-0.79999-1.5-1.5-0.29999-0.59998-0.39996-1.4-0.39996-2.2 0-0.90002 0.099976-1.8 0.19995-2.9l1.8-12.7h10.4l1.3-9.4h-10.4l1.7-11.4z"/>
</svg>
