<?xml version="1.0" encoding="utf-8"?>
<!-- Generator: Adobe Illustrator 21.1.0, SVG Export Plug-In . SVG Version: 6.00 Build 0)  -->
<svg version="1.1" id="Layer_1" xmlns="http://www.w3.org/2000/svg" xmlns:xlink="http://www.w3.org/1999/xlink" x="0px" y="0px"
	 viewBox="0 0 382 82" style="enable-background:new 0 0 382 82;" xml:space="preserve">
<style type="text/css">
	.st0{fill:#A8C643;}
	.st1{fill:#333E48;}
	.st2{fill:#303C42;}
	.st3{fill:#3E8B94;}
	.st4{fill:none;stroke:#3E8B94;stroke-width:0.451;stroke-miterlimit:10;}
</style>
<path class="st0" d="M170.2895966,69.4399414l-6.0080109-8.1269531l-0.4669952,3.1162109l-54.9490051,0.0029297h-5.9799957
	c-2.6779938-0.0170898-4.7460022-0.6738281-6.1909943-1.980957c-0.9060059-0.8208008-1.5650024-1.7988281-2.0310059-2.8989258
	h-8.9619904c1.0169983,3.5507812,2.6899872,6.3798828,5.0249939,8.4799805
	c2.9129944,2.6181641,6.8999939,4.0107422,11.9320068,4.2060547l0.6429901,0.0209961l0.5610046,0.0180664l0.0169983,0.0009766
	h7.1909943l30.048996-0.0039062h21.5190125l-0.4760132,3.1738281L170.2895966,69.4399414z"/>
<path class="st1" d="M26.827301,20.300293h-0.1190033L15.3663025,34.7900391h9.4419937L26.827301,20.300293z M23.7393036,42.2709961
	H5.391304l1.067997-7.480957L27.3022995,8.6621094h9.737999l-3.6809998,26.1279297h5.4029999l-1.0680008,7.480957h-5.4039993
	l-1.1279984,8.4321289h-8.5510025L23.7393036,42.2709961z"/>
<path class="st2" d="M61.504303,30.3354492c-1.0680008-1.6225586-2.6920013-2.4335938-4.8690033-2.4335938
	c-0.7519989,0-1.5049973,0.1777344-2.2559967,0.5327148c-0.753006,0.3569336-1.1880035,0.9711914-1.3070068,1.8413086
	c-0.1189957,0.7128906,0.1790009,1.2387695,0.8910065,1.574707c0.711998,0.3359375,1.6029968,0.6333008,2.6719971,0.8911133
	c1.0690002,0.2568359,2.2269974,0.5332031,3.473999,0.8300781c1.2470016,0.2978516,2.3840027,0.7626953,3.4150009,1.3959961
	c1.0279999,0.6337891,1.8300018,1.4941406,2.4049988,2.5839844c0.5719986,1.0888672,0.7409973,2.5429688,0.5039978,4.362793
	c-0.237999,1.8613281-0.8519974,3.3950195-1.8409958,4.6020508c-0.9899979,1.2089844-2.1679993,2.1782227-3.5330048,2.9111328
	c-1.3659973,0.7319336-2.859993,1.2460938-4.4829941,1.5429688c-1.6240005,0.2978516-3.2070007,0.4458008-4.7509995,0.4458008
	c-2.0180054,0-4.0180054-0.2885742-5.9970016-0.8608398c-1.9800034-0.5737305-3.5830002-1.5952148-4.8099976-3.059082
	l6.234993-5.9980469c0.7130051,1.0302734,1.5340042,1.8110352,2.465004,2.3461914
	c0.9290009,0.5351562,2.0670013,0.8027344,3.4140015,0.8027344c1.0289993,0,1.9789963-0.1499023,2.8499985-0.4467773
	c0.8700027-0.2958984,1.3659973-0.8398438,1.4850006-1.6318359c0.1179962-0.7519531-0.1689987-1.315918-0.8619995-1.6933594
	c-0.6920013-0.375-1.5830002-0.690918-2.6710052-0.949707c-1.0899963-0.2573242-2.2569962-0.5332031-3.5039978-0.8310547
	c-1.2470016-0.296875-2.3959961-0.7421875-3.4440002-1.3359375c-1.0499954-0.5952148-1.8709946-1.434082-2.4649963-2.5239258
	c-0.5940018-1.0893555-0.7519989-2.5429688-0.4749985-4.3642578c0.237999-1.7021484,0.7919998-3.1660156,1.6629944-4.3950195
	c0.8710022-1.2260742,1.9300003-2.2348633,3.177002-3.0288086c1.2470016-0.7900391,2.6220016-1.3740234,4.1269989-1.7509766
	c1.5039978-0.3769531,3.0080032-0.5649414,4.5130005-0.5649414c1.9000015,0,3.7799988,0.277832,5.6409988,0.8330078
	c1.8600006,0.5537109,3.3639984,1.5429688,4.5130005,2.96875L61.504303,30.3354492z"/>
<path class="st2" d="M73.3210907,12.7592773c0.1190033-0.7128906,0.3569946-1.3857422,0.7129974-2.0195312
	c0.3560028-0.6333008,0.802002-1.1772461,1.3359985-1.6323242c0.5350037-0.4541016,1.1380005-0.8208008,1.8119965-1.0991211
	c0.6719971-0.2758789,1.3650055-0.4150391,2.0770111-0.4150391c1.4259949,0,2.5639954,0.5053711,3.4149933,1.5141602
	c0.8509979,1.0092773,1.177002,2.2260742,0.9799957,3.6518555c-0.0800018,0.7124023-0.2979889,1.3862305-0.6529999,2.0180664
	c-0.3560028,0.6333008-0.802002,1.1791992-1.3369904,1.6333008c-0.5340118,0.4560547-1.1370087,0.8217773-1.8110046,1.0986328
	c-0.6730042,0.2773438-1.3650055,0.4169922-2.0780029,0.4169922c-0.7120056,0-1.3659973-0.1396484-1.9589996-0.4169922
	c-0.5939941-0.2768555-1.0890045-0.6425781-1.4839935-1.0986328c-0.3970032-0.4541016-0.6829987-1-0.8619995-1.6333008
	C73.2920837,14.1455078,73.2420807,13.4716797,73.3210907,12.7592773 M72.7870941,21.8432617h8.9069977l-4.0380096,28.8603516
	h-8.9069901L72.7870941,21.8432617z"/>
<path class="st2" d="M133.1165009,5.8120117l-2.7900085,19.9511719h0.1179962
	c0.2770081-0.5546875,0.6829987-1.1069336,1.2170105-1.6630859c0.5349884-0.5527344,1.1669922-1.046875,1.8999939-1.4838867
	c0.7319946-0.4350586,1.5749969-0.7919922,2.5240021-1.0678711c0.9499969-0.2768555,1.9599915-0.4169922,3.0289917-0.4169922
	c2.256012,0,4.0370026,0.3481445,5.3440094,1.0400391c1.3069916,0.6928711,2.2559967,1.652832,2.8499908,2.8789062
	c0.5940094,1.2290039,0.9100037,2.6738281,0.951004,4.3349609c0.0380096,1.6630859-0.0800018,3.4648438-0.3569946,5.4047852
	l-2.1970062,15.9130859h-8.9069977l1.9589996-14.1318359c0.1190033-0.8310547,0.2180023-1.6938477,0.2969971-2.5839844
	c0.07901-0.8901367,0.0189972-1.7109375-0.1779938-2.4638672c-0.197998-0.7509766-0.5740051-1.3652344-1.128006-1.8413086
	c-0.5549927-0.4750977-1.4059906-0.7128906-2.5540009-0.7128906c-1.147995,0-2.1069946,0.2080078-2.8799896,0.6230469
	c-0.7710114,0.4179688-1.3940125,0.972168-1.8700104,1.6640625c-0.4749908,0.6928711-0.8309937,1.4741211-1.0690002,2.3457031
	c-0.2369995,0.8710938-0.4149933,1.78125-0.5339966,2.7314453l-2.0189972,14.3696289h-8.9069977l6.2939911-44.8911133H133.1165009z"
	/>
<path class="st2" d="M173.4949036,28.9692383h-7.8390045l-1.3650055,9.6201172
	c-0.1190033,0.7919922-0.1779938,1.5141602-0.1779938,2.1689453c0,0.6523438,0.1080017,1.215332,0.326004,1.6899414
	c0.2179871,0.4760742,0.5939941,0.8422852,1.1289978,1.0991211c0.5349884,0.2592773,1.276001,0.387207,2.2269897,0.387207
	c0.4750061,0,1.0980072-0.0493164,1.8700104-0.1499023c0.7719879-0.0981445,1.375-0.3251953,1.8099976-0.6821289
	l-1.0090027,7.4228516c-1.029007,0.355957-2.0879974,0.5932617-3.177002,0.7128906
	c-1.0890045,0.1181641-2.147995,0.1782227-3.1759949,0.1782227c-1.5050049,0-2.8710022-0.1591797-4.0970001-0.4750977
	c-1.2279968-0.3168945-2.2669983-0.8227539-3.1179962-1.5141602c-0.852005-0.6928711-1.4650116-1.5947266-1.8410034-2.7026367
	c-0.3769989-1.1079102-0.4660034-2.4541016-0.2669983-4.0380859l1.9589996-13.7172852h-5.6999969l1.0099945-7.1259766h5.6999969
	l1.1869965-8.5498047h8.9080048l-1.1880035,8.5498047h7.8390045L173.4949036,28.9692383z"/>
<path class="st2" d="M183.0453949,67.9619141c0-0.8188477-0.2449951-1.480957-0.7350006-1.9892578
	c-0.4880066-0.5068359-1.173996-0.7617188-2.0529938-0.7617188c-0.3919983,0-0.7710114,0.0771484-1.1370087,0.2299805
	c-0.3670044,0.152832-0.6869965,0.3569336-0.9619904,0.6137695c-0.2770081,0.2563477-0.4970093,0.550293-0.6610107,0.8803711
	c-0.1660004,0.3310547-0.2480011,0.6728516-0.2480011,1.0268555H183.0453949z M177.2124023,68.9526367
	c0.0369873,0.4282227,0.1409912,0.8320312,0.3119965,1.2104492c0.17099,0.3798828,0.3970032,0.7070312,0.6790009,0.980957
	c0.2799988,0.2758789,0.6059875,0.4916992,0.970993,0.6508789c0.3670044,0.1591797,0.7649994,0.237793,1.1920013,0.237793
	c0.6490021,0,1.2080078-0.1489258,1.6790009-0.4487305c0.4700012-0.2983398,0.8289948-0.644043,1.0720062-1.0361328
	l0.9359894,0.7709961c-0.5139923,0.6479492-1.0789948,1.1118164-1.6959991,1.394043
	c-0.6190033,0.2797852-1.2809906,0.4208984-1.9909973,0.4208984c-0.6349945,0-1.2250061-0.112793-1.7689972-0.3388672
	c-0.5449982-0.2270508-1.0110016-0.5419922-1.404007-0.9448242c-0.3899994-0.4042969-0.6989899-0.8793945-0.9249878-1.4301758
	c-0.2260132-0.5498047-0.3390045-1.1489258-0.3390045-1.7978516c0-0.6469727,0.1109924-1.2460938,0.3300018-1.7963867
	c0.2200012-0.5517578,0.5249939-1.027832,0.9160004-1.4296875c0.3929901-0.4042969,0.8499908-0.7192383,1.3769989-0.9462891
	c0.5249939-0.2246094,1.0930023-0.3388672,1.7050018-0.3388672c0.647995,0,1.2279968,0.1162109,1.7409973,0.3491211
	c0.5149994,0.230957,0.9459991,0.5400391,1.2929993,0.9257812c0.348999,0.3852539,0.6159973,0.8383789,0.7980042,1.3569336
	c0.1829987,0.5200195,0.2749939,1.0732422,0.2749939,1.6601562v0.5498047H177.2124023z"/>
<polygon class="st2" points="188.7837982,68.3286133 185.6677856,64.3310547 187.3177948,64.3310547 189.7007904,67.5410156 
	191.9747925,64.3310547 193.4797974,64.3310547 190.4897919,68.3286133 194.0847931,72.9140625 192.4347839,72.9140625 
	189.5547943,69.1538086 186.7867889,72.9140625 185.2447968,72.9140625 "/>
<path class="st2" d="M203.2364807,68.6230469c0-0.4770508-0.0769958-0.9233398-0.230011-1.3393555
	c-0.1529846-0.4150391-0.3710022-0.7758789-0.651001-1.0810547c-0.2809753-0.3056641-0.6199951-0.546875-1.0179749-0.7246094
	c-0.3970032-0.1782227-0.8470154-0.2670898-1.3480072-0.2670898s-0.9589996,0.0888672-1.375,0.2670898
	c-0.4160004,0.1777344-0.7769928,0.4189453-1.0820007,0.7246094c-0.3049927,0.3051758-0.5449982,0.6660156-0.7160034,1.0810547
	c-0.17099,0.4160156-0.2569885,0.8623047-0.2569885,1.3393555c0,0.4755859,0.0859985,0.9228516,0.2569885,1.3378906
	c0.1710052,0.4160156,0.4110107,0.7758789,0.7160034,1.0830078c0.3050079,0.3056641,0.6660004,0.546875,1.0820007,0.7236328
	c0.4160004,0.1762695,0.8740082,0.2651367,1.375,0.2651367s0.951004-0.0888672,1.3480072-0.2651367
	c0.3979797-0.1767578,0.7369995-0.4179688,1.0179749-0.7236328c0.2799988-0.3071289,0.4980164-0.6669922,0.651001-1.0830078
	C203.1594849,69.5458984,203.2364807,69.0986328,203.2364807,68.6230469 M195.4044952,64.3305664h1.2109985v1.4311523h0.0369873
	c0.1940002-0.2939453,0.427002-0.5439453,0.6959991-0.7519531c0.2700043-0.2080078,0.5510101-0.3789062,0.8430023-0.5131836
	c0.2940063-0.1337891,0.5970001-0.2329102,0.9090118-0.2929688c0.3119965-0.0620117,0.6069946-0.0927734,0.8889923-0.0927734
	c0.6729889,0,1.2859955,0.1147461,1.8430023,0.3388672c0.5569763,0.2270508,1.0359802,0.5419922,1.440979,0.9462891
	c0.4020081,0.4018555,0.7170105,0.8779297,0.9440002,1.4296875c0.2260132,0.550293,0.3380127,1.1489258,0.3380127,1.7973633
	c0,0.6479492-0.1119995,1.246582-0.3380127,1.796875c-0.2269897,0.5507812-0.5419922,1.0258789-0.9440002,1.4306641
	c-0.4049988,0.4023438-0.8840027,0.7172852-1.440979,0.9443359c-0.5570068,0.2260742-1.1700134,0.3388672-1.8430023,0.3388672
	c-0.2819977,0-0.5769958-0.0307617-0.8889923-0.0908203c-0.3120117-0.0620117-0.6150055-0.1591797-0.9090118-0.2929688
	c-0.2919922-0.1362305-0.572998-0.3071289-0.8430023-0.5151367c-0.2689972-0.2070312-0.5019989-0.4580078-0.6959991-0.7519531
	h-0.0369873v6.7119141h-1.2109985V64.3305664z"/>
<path class="st2" d="M213.2850647,67.9619141c0-0.8188477-0.2449951-1.480957-0.7349854-1.9892578
	c-0.4880066-0.5068359-1.1740112-0.7617188-2.052002-0.7617188c-0.3930054,0-0.7720032,0.0771484-1.1369934,0.2299805
	c-0.3680115,0.152832-0.6880188,0.3569336-0.9630127,0.6137695c-0.2770081,0.2563477-0.4960022,0.550293-0.6610107,0.8803711
	c-0.1659851,0.3310547-0.2479858,0.6728516-0.2479858,1.0268555H213.2850647z M207.4520874,68.9526367
	c0.0369873,0.4282227,0.1409912,0.8320312,0.3119812,1.2104492c0.17099,0.3798828,0.3970032,0.7070312,0.6790161,0.980957
	c0.2799988,0.2758789,0.6059875,0.4916992,0.9709778,0.6508789c0.3670044,0.1591797,0.7650146,0.237793,1.1930237,0.237793
	c0.6489868,0,1.2070007-0.1489258,1.6779785-0.4487305c0.4700012-0.2983398,0.82901-0.644043,1.0720215-1.0361328
	l0.9359741,0.7709961c-0.5139771,0.6479492-1.0789795,1.1118164-1.6959839,1.394043
	c-0.6190186,0.2797852-1.2810059,0.4208984-1.9899902,0.4208984c-0.6360168,0-1.2260132-0.112793-1.7700195-0.3388672
	c-0.5449829-0.2270508-1.0109863-0.5419922-1.4029846-0.9448242c-0.3910217-0.4042969-0.7000122-0.8793945-0.9259949-1.4301758
	c-0.2260132-0.5498047-0.3390198-1.1489258-0.3390198-1.7978516c0-0.6469727,0.1109924-1.2460938,0.3309937-1.7963867
	c0.2190247-0.5517578,0.5240173-1.027832,0.9150085-1.4296875c0.3930054-0.4042969,0.8500061-0.7192383,1.3770142-0.9462891
	c0.5249939-0.2246094,1.0929871-0.3388672,1.7059937-0.3388672c0.6470032,0,1.2269897,0.1162109,1.7399902,0.3491211
	c0.5150146,0.230957,0.9460144,0.5400391,1.2929993,0.9257812c0.348999,0.3852539,0.6159973,0.8383789,0.7990112,1.3569336
	c0.1820068,0.5200195,0.2749939,1.0732422,0.2749939,1.6601562v0.5498047H207.4520874z"/>
<path class="st2" d="M223.0582886,66.3481445c-0.2080078-0.3168945-0.4980164-0.5869141-0.8700256-0.8066406
	c-0.3739929-0.2192383-0.7989807-0.3300781-1.2749939-0.3300781c-0.5010071-0.012207-0.9509888,0.0668945-1.3479919,0.237793
	c-0.3980103,0.1733398-0.7359924,0.4111328-1.0180054,0.7163086c-0.2820129,0.3046875-0.4949951,0.6689453-0.6419983,1.0898438
	c-0.1459961,0.4228516-0.2200012,0.8789062-0.2200012,1.3671875c0,0.4897461,0.0740051,0.9438477,0.2200012,1.3666992
	c0.1470032,0.4208984,0.3599854,0.7851562,0.6419983,1.0893555c0.2820129,0.3076172,0.6199951,0.5458984,1.0180054,0.7167969
	c0.3970032,0.1708984,0.8469849,0.2490234,1.3479919,0.237793c0.4760132,0,0.901001-0.1108398,1.2749939-0.3310547
	c0.3720093-0.21875,0.6620178-0.487793,0.8700256-0.8056641l0.9909973,0.7509766
	c-0.4290161,0.5019531-0.9100037,0.8720703-1.4490051,1.1098633c-0.5379944,0.2382812-1.1000061,0.3642578-1.6870117,0.3759766
	c-0.696991,0.012207-1.3259888-0.09375-1.8899841-0.3198242c-0.5620117-0.2270508-1.0410156-0.5419922-1.4390259-0.9438477
	c-0.3969727-0.4052734-0.6989746-0.8842773-0.9069824-1.4414062c-0.2080078-0.5546875-0.3120117-1.1567383-0.3120117-1.8056641
	c0-0.6479492,0.1040039-1.25,0.3120117-1.8061523c0.2080078-0.5571289,0.5100098-1.0371094,0.9069824-1.4389648
	c0.3980103-0.4042969,0.8770142-0.7192383,1.4390259-0.9462891c0.5639954-0.2246094,1.1929932-0.331543,1.8899841-0.3198242
	c0.5870056,0.0112305,1.1490173,0.137207,1.6870117,0.3759766c0.5390015,0.2373047,1.019989,0.6079102,1.4490051,1.1098633
	L223.0582886,66.3481445z"/>
<path class="st2" d="M230.0834961,65.4306641h-2.4770203v5.0634766c0,0.3168945,0.0320129,0.5766602,0.0920105,0.777832
	c0.0610046,0.203125,0.1479797,0.3588867,0.2569885,0.4677734c0.1109924,0.1103516,0.2409973,0.1860352,0.3940125,0.2299805
	c0.1529846,0.0419922,0.321991,0.0629883,0.5050049,0.0629883c0.2079773,0,0.4219971-0.0297852,0.6419983-0.0917969
	c0.2200012-0.0600586,0.42099-0.1391602,0.6049805-0.237793l0.0540161,1.1186523
	c-0.4510193,0.2080078-0.9960022,0.3120117-1.632019,0.3120117c-0.2309875,0-0.4719849-0.0307617-0.723999-0.0908203
	c-0.25-0.0620117-0.4799805-0.1782227-0.6879883-0.3491211s-0.3789978-0.4038086-0.5130005-0.6977539
	c-0.1340027-0.2929688-0.2009888-0.6772461-0.2009888-1.1552734v-5.4101562h-1.8160095v-1.0996094h1.8160095v-2.4199219h1.2089844
	v2.4199219h2.4770203V65.4306641z"/>
<path class="st2" d="M244.6619568,68.6220703c0-0.4760742-0.0769958-0.921875-0.2299805-1.3378906
	c-0.1530151-0.4160156-0.3710022-0.7763672-0.651001-1.0820312c-0.2810059-0.3051758-0.6199951-0.546875-1.0180054-0.7241211
	c-0.3970032-0.1782227-0.8460083-0.2670898-1.3479919-0.2670898c-0.5010071,0-0.9590149,0.0888672-1.375,0.2670898
	c-0.4160156,0.1772461-0.776001,0.4189453-1.0820007,0.7241211c-0.3049927,0.3056641-0.5450134,0.6660156-0.7160034,1.0820312
	s-0.256012,0.8618164-0.256012,1.3378906s0.085022,0.9238281,0.256012,1.3388672
	c0.17099,0.4160156,0.4110107,0.7758789,0.7160034,1.0830078c0.3059998,0.3051758,0.6659851,0.546875,1.0820007,0.7241211
	c0.4159851,0.1757812,0.8739929,0.2651367,1.375,0.2651367c0.5019836,0,0.9509888-0.0893555,1.3479919-0.2651367
	c0.3980103-0.1772461,0.7369995-0.4189453,1.0180054-0.7241211c0.2799988-0.3071289,0.4979858-0.6669922,0.651001-1.0830078
	C244.5849609,69.5458984,244.6619568,69.0981445,244.6619568,68.6220703 M236.8299866,59.0498047h1.2109985v6.7114258h0.0369873
	c0.1940002-0.2929688,0.428009-0.5429688,0.6959839-0.7509766c0.2700195-0.2080078,0.5510254-0.3793945,0.8430176-0.5131836
	c0.2940063-0.1352539,0.5969849-0.2338867,0.9089966-0.2939453c0.3120117-0.0620117,0.6069946-0.0922852,0.8890076-0.0922852
	c0.6730042,0,1.2859802,0.1142578,1.8429871,0.3393555c0.5570068,0.2260742,1.0360107,0.5419922,1.4410095,0.9458008
	c0.4020081,0.4018555,0.7170105,0.8779297,0.9440002,1.4301758c0.2259827,0.5498047,0.3379822,1.1489258,0.3379822,1.7958984
	c0,0.6489258-0.1119995,1.2480469-0.3379822,1.7978516c-0.2269897,0.550293-0.5419922,1.0263672-0.9440002,1.4301758
	c-0.4049988,0.402832-0.8840027,0.7177734-1.4410095,0.9448242c-0.5570068,0.2260742-1.1699829,0.3378906-1.8429871,0.3378906
	c-0.2820129,0-0.5769958-0.0297852-0.8890076-0.0898438c-0.3120117-0.0620117-0.6149902-0.1601562-0.9089966-0.2929688
	c-0.2919922-0.1367188-0.572998-0.3071289-0.8430176-0.5151367c-0.2679749-0.2070312-0.5019836-0.4580078-0.6959839-0.7519531
	h-0.0369873v1.4311523h-1.2109985V59.0498047z"/>
<path class="st2" d="M254.7107849,67.9619141c0-0.8188477-0.2449951-1.480957-0.7349854-1.9892578
	c-0.4880066-0.5068359-1.1740112-0.7617188-2.053009-0.7617188c-0.3919983,0-0.7709961,0.0771484-1.1369934,0.2299805
	c-0.3670044,0.152832-0.6870117,0.3569336-0.9620056,0.6137695c-0.2770081,0.2563477-0.4970093,0.550293-0.6610107,0.8803711
	c-0.1659851,0.3310547-0.2479858,0.6728516-0.2479858,1.0268555H254.7107849z M248.8778076,68.9526367
	c0.0369873,0.4282227,0.1409912,0.8320312,0.3119812,1.2104492c0.17099,0.3798828,0.3970032,0.7070312,0.6790161,0.980957
	c0.2799988,0.2758789,0.6049805,0.4916992,0.9709778,0.6508789c0.3670044,0.1591797,0.7650146,0.237793,1.1920166,0.237793
	c0.6489868,0,1.2080078-0.1489258,1.6789856-0.4487305c0.4700012-0.2983398,0.8280029-0.644043,1.0720215-1.0361328
	l0.9349976,0.7709961c-0.5130005,0.6479492-1.0780029,1.1118164-1.6950073,1.394043
	c-0.6190186,0.2797852-1.2810059,0.4208984-1.9909973,0.4208984c-0.6350098,0-1.2260132-0.112793-1.7690125-0.3388672
	c-0.5449829-0.2270508-1.0109863-0.5419922-1.4039917-0.9448242c-0.3900146-0.4042969-0.6990051-0.8793945-0.9249878-1.4301758
	c-0.2270203-0.5498047-0.3390198-1.1489258-0.3390198-1.7978516c0-0.6469727,0.1109924-1.2460938,0.3300171-1.7963867
	c0.2200012-0.5517578,0.5249939-1.027832,0.9159851-1.4296875c0.3919983-0.4042969,0.8500061-0.7192383,1.3770142-0.9462891
	c0.5249939-0.2246094,1.0929871-0.3388672,1.7049866-0.3388672c0.6480103,0,1.2279968,0.1162109,1.7409973,0.3491211
	c0.5150146,0.230957,0.9460144,0.5400391,1.2929993,0.9257812c0.348999,0.3852539,0.6159973,0.8383789,0.7980042,1.3569336
	c0.1830139,0.5200195,0.2749939,1.0732422,0.2749939,1.6601562v0.5498047H248.8778076z"/>
<path class="st2" d="M262.6694031,65.4306641h-2.4770203v5.0634766c0,0.3168945,0.0320129,0.5766602,0.0920105,0.777832
	c0.0610046,0.203125,0.1479797,0.3588867,0.2569885,0.4677734c0.1109924,0.1103516,0.2409973,0.1860352,0.3940125,0.2299805
	c0.1529846,0.0419922,0.321991,0.0629883,0.5050049,0.0629883c0.2079773,0,0.4219971-0.0297852,0.6419983-0.0917969
	c0.2200012-0.0600586,0.42099-0.1391602,0.6059875-0.237793l0.053009,1.1186523
	c-0.4510193,0.2080078-0.9960022,0.3120117-1.632019,0.3120117c-0.2309875,0-0.4729919-0.0307617-0.723999-0.0908203
	c-0.25-0.0620117-0.4799805-0.1782227-0.6879883-0.3491211s-0.3789978-0.4038086-0.5130005-0.6977539
	c-0.1340027-0.2929688-0.2009888-0.6772461-0.2009888-1.1552734v-5.4101562h-1.8160095v-1.0996094h1.8160095v-2.4199219h1.2089844
	v2.4199219h2.4770203V65.4306641z"/>
<path class="st2" d="M268.7569885,65.4306641h-2.4770203v5.0634766c0,0.3168945,0.0320129,0.5766602,0.0920105,0.777832
	c0.0610046,0.203125,0.1479797,0.3588867,0.2569885,0.4677734c0.1109924,0.1103516,0.2409973,0.1860352,0.3940125,0.2299805
	c0.1529846,0.0419922,0.321991,0.0629883,0.5050049,0.0629883c0.2079773,0,0.4219971-0.0297852,0.6419983-0.0917969
	c0.2200012-0.0600586,0.42099-0.1391602,0.6049805-0.237793l0.0540161,1.1186523
	c-0.4510193,0.2080078-0.9960022,0.3120117-1.632019,0.3120117c-0.2309875,0-0.4719849-0.0307617-0.723999-0.0908203
	c-0.25-0.0620117-0.4799805-0.1782227-0.6879883-0.3491211s-0.3789978-0.4038086-0.5130005-0.6977539
	c-0.1340027-0.2929688-0.2009888-0.6772461-0.2009888-1.1552734v-5.4101562h-1.8160095v-1.0996094h1.8160095v-2.4199219h1.2089844
	v2.4199219h2.4770203V65.4306641z"/>
<path class="st2" d="M277.0836792,67.9619141c0-0.8188477-0.2449951-1.480957-0.7349854-1.9892578
	c-0.4880066-0.5068359-1.1740112-0.7617188-2.053009-0.7617188c-0.3919983,0-0.7709961,0.0771484-1.1369934,0.2299805
	c-0.3670044,0.152832-0.6870117,0.3569336-0.9620056,0.6137695c-0.2770081,0.2563477-0.4970093,0.550293-0.6610107,0.8803711
	c-0.1659851,0.3310547-0.2479858,0.6728516-0.2479858,1.0268555H277.0836792z M271.2507019,68.9526367
	c0.0369873,0.4282227,0.1409912,0.8320312,0.3119812,1.2104492c0.17099,0.3798828,0.3970032,0.7070312,0.6790161,0.980957
	c0.2799988,0.2758789,0.6049805,0.4916992,0.9709778,0.6508789c0.3670044,0.1591797,0.7650146,0.237793,1.1920166,0.237793
	c0.6489868,0,1.2080078-0.1489258,1.6789856-0.4487305c0.4700012-0.2983398,0.8280029-0.644043,1.0720215-1.0361328
	l0.9359741,0.7709961c-0.5139771,0.6479492-1.0789795,1.1118164-1.6959839,1.394043
	c-0.6190186,0.2797852-1.2810059,0.4208984-1.9909973,0.4208984c-0.6350098,0-1.2260132-0.112793-1.7690125-0.3388672
	c-0.5449829-0.2270508-1.0109863-0.5419922-1.4029846-0.9448242c-0.3910217-0.4042969-0.7000122-0.8793945-0.9259949-1.4301758
	c-0.2270203-0.5498047-0.3390198-1.1489258-0.3390198-1.7978516c0-0.6469727,0.1109924-1.2460938,0.3300171-1.7963867
	c0.2200012-0.5517578,0.5249939-1.027832,0.9159851-1.4296875c0.3919983-0.4042969,0.8500061-0.7192383,1.3770142-0.9462891
	c0.5249939-0.2246094,1.0929871-0.3388672,1.7049866-0.3388672c0.6480103,0,1.2279968,0.1162109,1.7409973,0.3491211
	c0.5150146,0.230957,0.9460144,0.5400391,1.2929993,0.9257812c0.348999,0.3852539,0.6149902,0.8383789,0.7980042,1.3569336
	c0.1830139,0.5200195,0.2749939,1.0732422,0.2749939,1.6601562v0.5498047H271.2507019z"/>
<path class="st2" d="M280.7325134,67.0087891c0-0.3789062-0.0100098-0.7646484-0.0290222-1.1547852
	c-0.0159912-0.3911133-0.0329895-0.8989258-0.0449829-1.5229492h1.1929932v1.5961914h0.0360107
	c0.0859985-0.2333984,0.2079773-0.4560547,0.367981-0.6694336c0.1570129-0.2138672,0.3500061-0.4067383,0.5760193-0.5786133
	c0.2269897-0.1704102,0.4889832-0.3081055,0.7889709-0.4121094c0.3000183-0.1040039,0.6390076-0.15625,1.0180054-0.15625
	c0.3420105,0,0.6419983,0.0371094,0.8990173,0.1113281l-0.2390137,1.1918945
	c-0.1589966-0.0620117-0.3919983-0.0917969-0.696991-0.0917969c-0.4649963,0-0.8619995,0.0888672-1.1929932,0.2646484
	c-0.3280029,0.1782227-0.6029968,0.4042969-0.8250122,0.6791992c-0.2189941,0.2749023-0.3819885,0.5717773-0.4840088,0.8891602
	c-0.1040039,0.3178711-0.1559753,0.6235352-0.1559753,0.9169922v4.8417969h-1.2109985V67.0087891z"/>
<path class="st2" d="M291.789093,59.0498047h1.2109985v6.65625h0.0369873
	c0.1340027-0.2319336,0.3049927-0.4458008,0.5130005-0.6411133c0.2080078-0.1958008,0.4410095-0.3637695,0.696991-0.5048828
	c0.257019-0.1401367,0.5290222-0.2490234,0.8150024-0.3300781c0.2870178-0.078125,0.571991-0.1191406,0.8540039-0.1191406
	c1.1000061,0,1.9140015,0.2900391,2.4379883,0.8720703c0.5250244,0.5800781,0.7890015,1.4091797,0.7890015,2.484375v5.4467773
	h-1.2089844v-4.75c0-0.9541016-0.1660156-1.6831055-0.4970093-2.1918945
	c-0.32901-0.5063477-0.9410095-0.7612305-1.8330078-0.7612305c-0.0619812,0-0.2330017,0.0249023-0.5130005,0.0742188
	c-0.2819824,0.0488281-0.5779724,0.1831055-0.8909912,0.4038086c-0.3110046,0.2202148-0.5879822,0.550293-0.8330078,0.9892578
	c-0.2449951,0.4399414-0.3669739,1.0517578-0.3669739,1.8349609v4.4008789h-1.2109985V59.0498047z"/>
<path class="st2" d="M308.6616821,67.9619141c0-0.8188477-0.2449951-1.480957-0.7349854-1.9892578
	c-0.4880066-0.5068359-1.1740112-0.7617188-2.052002-0.7617188c-0.3930054,0-0.7720032,0.0771484-1.1380005,0.2299805
	c-0.3670044,0.152832-0.6870117,0.3569336-0.9620056,0.6137695c-0.2770081,0.2563477-0.4970093,0.550293-0.6610107,0.8803711
	c-0.1659851,0.3310547-0.2479858,0.6728516-0.2479858,1.0268555H308.6616821z M302.8287048,68.9526367
	c0.0369873,0.4282227,0.1409912,0.8320312,0.3119812,1.2104492c0.17099,0.3798828,0.3970032,0.7070312,0.6790161,0.980957
	c0.2799988,0.2758789,0.6049805,0.4916992,0.9709778,0.6508789c0.3670044,0.1591797,0.7650146,0.237793,1.1930237,0.237793
	c0.6479797,0,1.2070007-0.1489258,1.6779785-0.4487305c0.4700012-0.2983398,0.8280029-0.644043,1.0720215-1.0361328
	l0.9349976,0.7709961c-0.5130005,0.6479492-1.0780029,1.1118164-1.6950073,1.394043
	c-0.6190186,0.2797852-1.2810059,0.4208984-1.9899902,0.4208984c-0.6360168,0-1.2270203-0.112793-1.7700195-0.3388672
	c-0.5449829-0.2270508-1.0109863-0.5419922-1.4029846-0.9448242c-0.3910217-0.4042969-0.7000122-0.8793945-0.9259949-1.4301758
	c-0.2270203-0.5498047-0.3390198-1.1489258-0.3390198-1.7978516c0-0.6469727,0.1109924-1.2460938,0.3300171-1.7963867
	c0.2200012-0.5517578,0.5249939-1.027832,0.9159851-1.4296875c0.3919983-0.4042969,0.8500061-0.7192383,1.3770142-0.9462891
	c0.5249939-0.2246094,1.0929871-0.3388672,1.7059937-0.3388672c0.6470032,0,1.2269897,0.1162109,1.7399902,0.3491211
	c0.5150146,0.230957,0.9460144,0.5400391,1.2929993,0.9257812c0.348999,0.3852539,0.6159973,0.8383789,0.7980042,1.3569336
	c0.1830139,0.5200195,0.2749939,1.0732422,0.2749939,1.6601562v0.5498047H302.8287048z"/>
<path class="st2" d="M317.0597839,68.6411133c-0.3049927,0-0.6869812,0.0151367-1.144989,0.0449219
	c-0.4599915,0.03125-0.8990173,0.1040039-1.321991,0.2211914c-0.4210205,0.1157227-0.7810059,0.296875-1.0810242,0.5400391
	c-0.3009949,0.2446289-0.4499817,0.5820312-0.4499817,1.0097656c0,0.2802734,0.0589905,0.5209961,0.1749878,0.7241211
	c0.1150208,0.2011719,0.2709961,0.3662109,0.4670105,0.4951172c0.1950073,0.1269531,0.4129944,0.2197266,0.651001,0.2749023
	s0.4799805,0.0820312,0.723999,0.0820312c0.4419861,0,0.821991-0.0732422,1.1470032-0.2192383
	c0.3240051-0.1479492,0.5959778-0.3457031,0.815979-0.5976562c0.2190247-0.25,0.382019-0.5429688,0.4860229-0.878418
	c0.1040039-0.3369141,0.1560059-0.6938477,0.1560059-1.0737305v-0.6230469H317.0597839z M317.6838074,67.6508789v-0.2207031
	c0-1.4790039-0.7350159-2.2192383-2.2000122-2.2192383c-1.0029907,0-1.8770142,0.3374023-2.6230164,1.0102539l-0.7330017-0.8623047
	c0.8070068-0.831543,2.0160217-1.2475586,3.631012-1.2475586c0.4140015,0,0.8150024,0.0620117,1.2009888,0.1826172
	c0.3850098,0.1220703,0.7170105,0.3100586,0.9990234,0.5600586c0.2819824,0.25,0.5059814,0.5649414,0.6789856,0.9443359
	c0.1710205,0.3789062,0.257019,0.831543,0.257019,1.3569336v3.8330078c0,0.3310547,0.0149841,0.6757812,0.0449829,1.0366211
	c0.0299988,0.3603516,0.0639954,0.6572266,0.1010132,0.8891602h-1.1740112
	c-0.0369873-0.2080078-0.0639954-0.4350586-0.0830078-0.6801758c-0.0180054-0.2426758-0.026001-0.4819336-0.026001-0.7138672
	h-0.0369873c-0.3559875,0.5751953-0.7730103,0.9882812-1.256012,1.2373047c-0.4830017,0.25-1.0740051,0.3759766-1.7709961,0.3759766
	c-0.3789978,0-0.7449951-0.0512695-1.1000061-0.15625c-0.3539734-0.1040039-0.6689758-0.2617188-0.9440002-0.4760742
	c-0.2749939-0.2148438-0.4949951-0.4760742-0.6589966-0.7880859c-0.1669922-0.3120117-0.2489929-0.6757812-0.2489929-1.0917969
	c0-0.6958008,0.1799927-1.2441406,0.5400085-1.6420898c0.3609924-0.3950195,0.8129883-0.6918945,1.3580017-0.8886719
	c0.5440063-0.1943359,1.1239929-0.3164062,1.742981-0.3671875c0.6170044-0.0488281,1.1820068-0.0722656,1.6950073-0.0722656
	H317.6838074z"/>
<rect x="321.9729919" y="59.0498047" class="st2" width="1.2109985" height="13.8637695"/>
<path class="st2" d="M330.5397949,65.4306641h-2.4770203v5.0634766c0,0.3168945,0.0320129,0.5766602,0.0920105,0.777832
	c0.0610046,0.203125,0.1479797,0.3588867,0.2569885,0.4677734c0.1100159,0.1103516,0.2409973,0.1860352,0.3940125,0.2299805
	c0.1520081,0.0419922,0.321991,0.0629883,0.5050049,0.0629883c0.2079773,0,0.4219971-0.0297852,0.6419983-0.0917969
	c0.2200012-0.0600586,0.42099-0.1391602,0.6049805-0.237793l0.0540161,1.1186523
	c-0.4510193,0.2080078-0.9960022,0.3120117-1.632019,0.3120117c-0.2309875,0-0.4729919-0.0307617-0.723999-0.0908203
	c-0.25-0.0620117-0.4799805-0.1782227-0.6879883-0.3491211s-0.3789978-0.4038086-0.5130005-0.6977539
	c-0.1340027-0.2929688-0.2009888-0.6772461-0.2009888-1.1552734v-5.4101562h-1.8160095v-1.0996094h1.8160095v-2.4199219h1.2089844
	v2.4199219h2.4770203V65.4306641z"/>
<path class="st2" d="M332.1881104,59.0498047h1.2109985v6.65625h0.0369873
	c0.1340027-0.2319336,0.3049927-0.4458008,0.5130005-0.6411133c0.2080078-0.1958008,0.4410095-0.3637695,0.696991-0.5048828
	c0.257019-0.1401367,0.5290222-0.2490234,0.8160095-0.3300781c0.2860107-0.078125,0.5709839-0.1191406,0.8529968-0.1191406
	c1.1000061,0,1.9140015,0.2900391,2.4389954,0.8720703c0.5240173,0.5800781,0.7879944,1.4091797,0.7879944,2.484375v5.4467773
	h-1.2099915v-4.75c0-0.9541016-0.1650085-1.6831055-0.4960022-2.1918945
	c-0.32901-0.5063477-0.9410095-0.7612305-1.8330078-0.7612305c-0.0619812,0-0.2330017,0.0249023-0.5130005,0.0742188
	c-0.2819824,0.0488281-0.5779724,0.1831055-0.8899841,0.4038086c-0.3120117,0.2202148-0.5889893,0.550293-0.8340149,0.9892578
	c-0.2449951,0.4399414-0.3669739,1.0517578-0.3669739,1.8349609v4.4008789h-1.2109985V59.0498047z"/>
<path class="st2" d="M348.6379089,66.3481445c-0.2080078-0.3168945-0.4980164-0.5869141-0.8700256-0.8066406
	c-0.375-0.2192383-0.7989807-0.3300781-1.2749939-0.3300781c-0.5010071-0.012207-0.9509888,0.0668945-1.3479919,0.237793
	c-0.3980103,0.1733398-0.7359924,0.4111328-1.0180054,0.7163086c-0.2820129,0.3046875-0.4949951,0.6689453-0.6430054,1.0898438
	c-0.144989,0.4228516-0.2189941,0.8789062-0.2189941,1.3671875c0,0.4897461,0.0740051,0.9438477,0.2189941,1.3666992
	c0.1480103,0.4208984,0.3609924,0.7851562,0.6430054,1.0893555c0.2820129,0.3076172,0.6199951,0.5458984,1.0180054,0.7167969
	c0.3970032,0.1708984,0.8469849,0.2490234,1.3479919,0.237793c0.4760132,0,0.8999939-0.1108398,1.2749939-0.3310547
	c0.3720093-0.21875,0.6620178-0.487793,0.8700256-0.8056641l0.9909973,0.7509766
	c-0.4290161,0.5019531-0.9100037,0.8720703-1.4490051,1.1098633c-0.5379944,0.2382812-1.1000061,0.3642578-1.6870117,0.3759766
	c-0.697998,0.012207-1.3259888-0.09375-1.8899841-0.3198242c-0.5620117-0.2270508-1.0410156-0.5419922-1.4390259-0.9438477
	c-0.3969727-0.4052734-0.6989746-0.8842773-0.9069824-1.4414062c-0.2080078-0.5546875-0.3120117-1.1567383-0.3120117-1.8056641
	c0-0.6479492,0.1040039-1.25,0.3120117-1.8061523c0.2080078-0.5571289,0.5100098-1.0371094,0.9069824-1.4389648
	c0.3980103-0.4042969,0.8770142-0.7192383,1.4390259-0.9462891c0.5639954-0.2246094,1.1919861-0.331543,1.8899841-0.3198242
	c0.5870056,0.0112305,1.1490173,0.137207,1.6870117,0.3759766c0.5390015,0.2373047,1.019989,0.6079102,1.4490051,1.1098633
	L348.6379089,66.3481445z"/>
<path class="st2" d="M356.1021729,68.6411133c-0.3049927,0-0.6879883,0.0151367-1.144989,0.0449219
	c-0.4599915,0.03125-0.8990173,0.1040039-1.321991,0.2211914c-0.4210205,0.1157227-0.7810059,0.296875-1.0810242,0.5400391
	c-0.3009949,0.2446289-0.4499817,0.5820312-0.4499817,1.0097656c0,0.2802734,0.0589905,0.5209961,0.1739807,0.7241211
	c0.1160278,0.2011719,0.2720032,0.3662109,0.4680176,0.4951172c0.1950073,0.1269531,0.4129944,0.2197266,0.651001,0.2749023
	s0.4799805,0.0820312,0.7250061,0.0820312c0.440979,0,0.8209839-0.0732422,1.1470032-0.2192383
	c0.322998-0.1479492,0.5949707-0.3457031,0.8149719-0.5976562c0.2190247-0.25,0.382019-0.5429688,0.4860229-0.878418
	c0.1040039-0.3369141,0.1560059-0.6938477,0.1560059-1.0737305v-0.6230469H356.1021729z M356.7261963,67.6508789v-0.2207031
	c0-1.4790039-0.7340088-2.2192383-2.2000122-2.2192383c-1.0029907,0-1.8770142,0.3374023-2.6230164,1.0102539l-0.7330017-0.8623047
	c0.8070068-0.831543,2.0160217-1.2475586,3.631012-1.2475586c0.4140015,0,0.8150024,0.0620117,1.2000122,0.1826172
	c0.3859863,0.1220703,0.7179871,0.3100586,1,0.5600586c0.2819824,0.25,0.5059814,0.5649414,0.6789856,0.9443359
	c0.1710205,0.3789062,0.257019,0.831543,0.257019,1.3569336v3.8330078c0,0.3310547,0.0149841,0.6757812,0.0449829,1.0366211
	c0.0299988,0.3603516,0.0639954,0.6572266,0.1010132,0.8891602h-1.1740112
	c-0.0369873-0.2080078-0.0639954-0.4350586-0.0820007-0.6801758c-0.0190125-0.2426758-0.0270081-0.4819336-0.0270081-0.7138672
	h-0.0369873c-0.3559875,0.5751953-0.7730103,0.9882812-1.256012,1.2373047c-0.4830017,0.25-1.072998,0.3759766-1.7709961,0.3759766
	c-0.3789978,0-0.7449951-0.0512695-1.1000061-0.15625c-0.3539734-0.1040039-0.6699829-0.2617188-0.9449768-0.4760742
	c-0.2750244-0.2148438-0.4940186-0.4760742-0.6589966-0.7880859c-0.1650085-0.3120117-0.2480164-0.6757812-0.2480164-1.0917969
	c0-0.6958008,0.1799927-1.2441406,0.5400085-1.6420898c0.3609924-0.3950195,0.8139954-0.6918945,1.3589783-0.8886719
	c0.5430298-0.1943359,1.1230164-0.3164062,1.7420044-0.3671875c0.6170044-0.0488281,1.1820068-0.0722656,1.6960144-0.0722656
	H356.7261963z"/>
<path class="st2" d="M360.8699951,67.0087891c0-0.3789062-0.0100098-0.7646484-0.0280151-1.1547852
	c-0.0169983-0.3911133-0.0339966-0.8989258-0.04599-1.5229492h1.1919861v1.5961914h0.0370178
	c0.0859985-0.2333984,0.2089844-0.4560547,0.367981-0.6694336c0.15802-0.2138672,0.3500061-0.4067383,0.5769958-0.5786133
	c0.2260132-0.1704102,0.4880066-0.3081055,0.7879944-0.4121094c0.3000183-0.1040039,0.6390076-0.15625,1.0180054-0.15625
	c0.3420105,0,0.6419983,0.0371094,0.8990173,0.1113281l-0.2390137,1.1918945
	c-0.1589966-0.0620117-0.3919983-0.0917969-0.696991-0.0917969c-0.4649963,0-0.8619995,0.0888672-1.1929932,0.2646484
	c-0.3280029,0.1782227-0.6029968,0.4042969-0.8250122,0.6791992c-0.2189941,0.2749023-0.3819885,0.5717773-0.4840088,0.8891602
	c-0.1040039,0.3178711-0.1559753,0.6235352-0.1559753,0.9169922v4.8417969h-1.2109985V67.0087891z"/>
<path class="st2" d="M373.1745911,67.9619141c0-0.8188477-0.2449951-1.480957-0.7349854-1.9892578
	c-0.4880066-0.5068359-1.1740112-0.7617188-2.052002-0.7617188c-0.3930054,0-0.7720032,0.0771484-1.1380005,0.2299805
	c-0.3670044,0.152832-0.6870117,0.3569336-0.9620056,0.6137695c-0.2770081,0.2563477-0.4970093,0.550293-0.6610107,0.8803711
	c-0.1659851,0.3310547-0.2479858,0.6728516-0.2479858,1.0268555H373.1745911z M367.3416138,68.9526367
	c0.0369873,0.4282227,0.1409912,0.8320312,0.3119812,1.2104492c0.17099,0.3798828,0.3970032,0.7070312,0.6790161,0.980957
	c0.2799988,0.2758789,0.6049805,0.4916992,0.9709778,0.6508789c0.3670044,0.1591797,0.7650146,0.237793,1.1920166,0.237793
	c0.6489868,0,1.2080078-0.1489258,1.6789856-0.4487305c0.4700012-0.2983398,0.8280029-0.644043,1.0720215-1.0361328
	l0.9349976,0.7709961c-0.5130005,0.6479492-1.0780029,1.1118164-1.6950073,1.394043
	c-0.6190186,0.2797852-1.2810059,0.4208984-1.9909973,0.4208984c-0.6350098,0-1.2250061-0.112793-1.7690125-0.3388672
	c-0.5449829-0.2270508-1.0109863-0.5419922-1.4029846-0.9448242c-0.3910217-0.4042969-0.7000122-0.8793945-0.9259949-1.4301758
	c-0.2270203-0.5498047-0.3390198-1.1489258-0.3390198-1.7978516c0-0.6469727,0.1109924-1.2460938,0.3300171-1.7963867
	c0.2200012-0.5517578,0.5249939-1.027832,0.9159851-1.4296875c0.3919983-0.4042969,0.8500061-0.7192383,1.3770142-0.9462891
	c0.5249939-0.2246094,1.0939941-0.3388672,1.7059937-0.3388672c0.6470032,0,1.2269897,0.1162109,1.7399902,0.3491211
	c0.5150146,0.230957,0.9460144,0.5400391,1.2929993,0.9257812c0.348999,0.3852539,0.6159973,0.8383789,0.7980042,1.3569336
	c0.1830139,0.5200195,0.2749939,1.0732422,0.2749939,1.6601562v0.5498047H367.3416138z"/>
<path class="st2" d="M106.9895935,36.2353516c-0.1179962,0.9506836-0.4260101,1.8515625-0.9199982,2.7016602
	c-0.4950104,0.8520508-1.1090088,1.6030273-1.8400116,2.2563477c-0.7329865,0.652832-1.5649872,1.1787109-2.4949951,1.5727539
	c-0.9299927,0.3969727-1.8899994,0.5952148-2.8789978,0.5952148c-1.0310059,0-1.951004-0.1982422-2.7610016-0.5952148
	c-0.8130035-0.394043-1.4850006-0.9199219-2.0200043-1.5727539c-0.5339966-0.6533203-0.9199982-1.4042969-1.1569977-2.2563477
	c-0.2379913-0.8500977-0.2979889-1.7509766-0.1790009-2.7016602c0.1190033-0.9501953,0.4250031-1.8500977,0.9210052-2.7011719
	c0.4940033-0.8520508,1.1080017-1.6040039,1.8410034-2.2568359c0.7319946-0.6523438,1.5529938-1.1772461,2.4639893-1.5732422
	c0.9100037-0.3959961,1.8800049-0.5947266,2.9100037-0.5947266c0.9889984,0,1.8990021,0.1987305,2.7310028,0.5947266
	s1.5149994,0.9208984,2.048996,1.5732422c0.5339966,0.652832,0.9199982,1.4047852,1.1580048,2.2568359
	C107.0495911,34.3852539,107.1085968,35.2851562,106.9895935,36.2353516 M109.0095978,21.9829102l-0.5350037,3.8022461h-0.1190033
	c-0.2770081-0.5141602-0.6730042-1.0400391-1.1869965-1.5732422c-0.5149994-0.5356445-1.1580048-1.0195312-1.9300079-1.4555664
	c-0.7720032-0.4350586-1.6719971-0.7919922-2.7019958-1.0683594c-1.0299988-0.2768555-2.177002-0.4169922-3.4440002-0.4169922
	c-2.0590057,0-3.9589996,0.425293-5.701004,1.2773438c-1.7419891,0.8520508-3.276001,1.9697266-4.6009979,3.3549805
	c-1.3269958,1.3867188-2.4160004,2.9897461-3.2669983,4.8085938c-0.8509979,1.8222656-1.4149933,3.6821289-1.6920013,5.5830078
	c-0.3170013,2.1772461-0.2669983,4.1762695,0.1490021,5.9970703c0.4149933,1.8212891,1.1580048,3.394043,2.2259979,4.7211914
	c1.0690002,1.3271484,2.423996,2.3549805,4.0680084,3.0869141c1.6419983,0.7338867,3.5329895,1.0981445,5.67099,1.0981445
	c1.3450012,0,2.8200073-0.2861328,4.4230042-0.8613281c1.6040039-0.5727539,3.0189972-1.5507812,4.2460022-2.9379883h0.1190033
	l-0.4150085,2.7910156c-0.3179932,2.0571289-1.2079926,3.7509766-2.6730042,5.0771484
	c-1.4449921,1.3081055-3.5119934,1.9648438-6.1909943,1.9829102H48.4725952l0.4759979-3.1738281l-8.1269989,6.0078125
	l6.0080032,8.1269531l0.4669952-3.1157227l48.3850021-0.0400391c5.0319977-0.1948242,9.0189972-1.5878906,11.9319916-4.2070312
	c3.1470032-2.8300781,5.0970001-6.9760742,5.8500061-12.4389648l3.7400055-26.4262695H109.0095978z"/>
<polygon class="st3" points="187.5592041,16.0834961 183.4832001,16.0834961 184.0281982,13.8017578 195.0052032,13.8017578 
	194.462204,16.0834961 190.4951935,16.0834961 187.2341919,30.1586914 206.202179,30.1586914 209.4621887,16.0834961 
	205.5491943,16.0834961 206.0921936,13.8017578 215.8751831,13.8017578 215.3321838,16.0834961 212.3961792,16.0834961 
	204.9501953,48.4199219 208.973175,48.4199219 208.4281921,50.7036133 197.5592041,50.7036133 198.1031952,48.4199219 
	202.0161743,48.4199219 205.7121887,32.4428711 186.7442017,32.4428711 183.0491943,48.4199219 187.2341919,48.4199219 
	186.6891937,50.7036133 175.9291992,50.7036133 176.4721985,48.4199219 180.1152039,48.4199219 "/>
<polygon class="st4" points="187.5592041,16.0834961 183.4832001,16.0834961 184.0281982,13.8017578 195.0052032,13.8017578 
	194.462204,16.0834961 190.4951935,16.0834961 187.2341919,30.1586914 206.202179,30.1586914 209.4621887,16.0834961 
	205.5491943,16.0834961 206.0921936,13.8017578 215.8751831,13.8017578 215.3321838,16.0834961 212.3961792,16.0834961 
	204.9501953,48.4199219 208.973175,48.4199219 208.4281921,50.7036133 197.5592041,50.7036133 198.1031952,48.4199219 
	202.0161743,48.4199219 205.7121887,32.4428711 186.7442017,32.4428711 183.0491943,48.4199219 187.2341919,48.4199219 
	186.6891937,50.7036133 175.9291992,50.7036133 176.4721985,48.4199219 180.1152039,48.4199219 "/>
<polygon class="st3" points="224.2930908,16.0834961 220.1610718,16.0834961 220.6500854,13.8017578 247.1180725,13.8017578 
	244.5090637,25.105957 242.2270813,25.105957 244.2930908,16.0834961 227.2270813,16.0834961 223.8580627,30.6489258 
	237.4440613,30.6489258 236.9020691,32.9316406 223.3140869,32.9316406 219.7260742,48.4199219 237.1170654,48.4199219 
	239.184082,39.4536133 241.4650879,39.4536133 238.9110718,50.7036133 212.4990845,50.7036133 212.9890747,48.4199219 
	216.7920837,48.4199219 "/>
<polygon class="st4" points="224.2930908,16.0834961 220.1610718,16.0834961 220.6500854,13.8017578 247.1180725,13.8017578 
	244.5090637,25.105957 242.2270813,25.105957 244.2930908,16.0834961 227.2270813,16.0834961 223.8580627,30.6489258 
	237.4440613,30.6489258 236.9020691,32.9316406 223.3140869,32.9316406 219.7260742,48.4199219 237.1170654,48.4199219 
	239.184082,39.4536133 241.4650879,39.4536133 238.9110718,50.7036133 212.4990845,50.7036133 212.9890747,48.4199219 
	216.7920837,48.4199219 "/>
<path class="st3" d="M270.5903015,34.4536133l-2.0110168-18.8051758h-1.46698l-9.8370056,18.8051758H270.5903015z
	 M242.4923096,48.4194336h4.6749878l17.118988-32.3359375h-4.7829895l0.5450134-2.2817383h16.0319824l-0.5440063,2.2817383
	h-4.2389832l3.6959839,32.3359375h4.78302l-0.5450134,2.2841797h-12.3909912l0.5440063-2.2841797h4.6729736l-1.3039856-11.6835938
	h-14.7279968l-6.0870056,11.6835938h4.5650024l-0.5419922,2.2841797h-12.0110168L242.4923096,48.4194336z"/>
<path class="st4" d="M270.5903015,34.4536133l-2.0110168-18.8051758h-1.46698l-9.8370056,18.8051758H270.5903015z
	 M242.4923096,48.4194336h4.6749878l17.118988-32.3359375h-4.7829895l0.5450134-2.2817383h16.0319824l-0.5440063,2.2817383
	h-4.2389832l3.6959839,32.3359375h4.78302l-0.5450134,2.2841797h-12.3909912l0.5440063-2.2841797h4.6729736l-1.3039856-11.6835938
	h-14.7279968l-6.0870056,11.6835938h4.5650024l-0.5419922,2.2841797h-12.0110168L242.4923096,48.4194336z"/>
<polygon class="st3" points="293.3533936,16.0834961 288.8973694,16.0834961 289.4403687,13.8017578 301.1263733,13.8017578 
	300.5823669,16.0834961 296.2893677,16.0834961 288.8433838,48.4199219 304.1693726,48.4199219 307.1583862,35.4858398 
	309.9303894,35.4858398 306.4513855,50.7036133 281.1793823,50.7036133 281.6693726,48.4199219 285.8543701,48.4199219 "/>
<polygon class="st4" points="293.3533936,16.0834961 288.8973694,16.0834961 289.4403687,13.8017578 301.1263733,13.8017578 
	300.5823669,16.0834961 296.2893677,16.0834961 288.8433838,48.4199219 304.1693726,48.4199219 307.1583862,35.4858398 
	309.9303894,35.4858398 306.4513855,50.7036133 281.1793823,50.7036133 281.6693726,48.4199219 285.8543701,48.4199219 "/>
<polygon class="st3" points="326.6108093,16.0834961 316.935791,16.0834961 314.2727966,27.5507812 311.935791,27.5507812 
	315.1417847,13.8017578 342.0987854,13.8017578 338.8927917,27.5507812 336.5557861,27.5507812 339.2197876,16.0834961 
	329.5447998,16.0834961 322.0458069,48.4199219 326.1757812,48.4199219 325.6867981,50.7036133 314.4917908,50.7036133 
	314.9797974,48.4199219 319.1098022,48.4199219 "/>
<polygon class="st4" points="326.6108093,16.0834961 316.935791,16.0834961 314.2727966,27.5507812 311.935791,27.5507812 
	315.1417847,13.8017578 342.0987854,13.8017578 338.8927917,27.5507812 336.5557861,27.5507812 339.2197876,16.0834961 
	329.5447998,16.0834961 322.0458069,48.4199219 326.1757812,48.4199219 325.6867981,50.7036133 314.4917908,50.7036133 
	314.9797974,48.4199219 319.1098022,48.4199219 "/>
<polygon class="st3" points="349.3735046,16.0834961 345.2974854,16.0834961 345.8424988,13.8017578 356.8194885,13.8017578 
	356.2764893,16.0834961 352.3094788,16.0834961 349.0484924,30.1586914 368.0164795,30.1586914 371.2774963,16.0834961 
	367.3634949,16.0834961 367.9064941,13.8017578 377.6894836,13.8017578 377.1464844,16.0834961 374.2114868,16.0834961 
	366.7644958,48.4199219 370.7874756,48.4199219 370.2434998,50.7036133 359.3735046,50.7036133 359.9174805,48.4199219 
	363.8314819,48.4199219 367.5264893,32.4428711 348.5585022,32.4428711 344.8634949,48.4199219 349.0484924,48.4199219 
	348.503479,50.7036133 337.7444763,50.7036133 338.2884827,48.4199219 341.9295044,48.4199219 "/>
<polygon class="st4" points="349.3735046,16.0834961 345.2974854,16.0834961 345.8424988,13.8017578 356.8194885,13.8017578 
	356.2764893,16.0834961 352.3094788,16.0834961 349.0484924,30.1586914 368.0164795,30.1586914 371.2774963,16.0834961 
	367.3634949,16.0834961 367.9064941,13.8017578 377.6894836,13.8017578 377.1464844,16.0834961 374.2114868,16.0834961 
	366.7644958,48.4199219 370.7874756,48.4199219 370.2434998,50.7036133 359.3735046,50.7036133 359.9174805,48.4199219 
	363.8314819,48.4199219 367.5264893,32.4428711 348.5585022,32.4428711 344.8634949,48.4199219 349.0484924,48.4199219 
	348.503479,50.7036133 337.7444763,50.7036133 338.2884827,48.4199219 341.9295044,48.4199219 "/>
<g>
	<path class="st2" d="M177.2124023,68.9511719c0.0366211,0.4287109,0.140625,0.8320312,0.3120117,1.2109375
		c0.1708984,0.3789062,0.3969727,0.7060547,0.6782227,0.9814453c0.28125,0.2744141,0.6054688,0.4921875,0.972168,0.6513672
		c0.3666992,0.1582031,0.7636719,0.2382812,1.1918945,0.2382812c0.6479492,0,1.2075195-0.1503906,1.6782227-0.4492188
		c0.4707031-0.2998047,0.828125-0.6455078,1.0727539-1.0371094l0.9355469,0.7705078
		c-0.5136719,0.6484375-1.0791016,1.1123047-1.6967773,1.3935547c-0.6171875,0.28125-1.2807617,0.421875-1.9897461,0.421875
		c-0.6357422,0-1.2255859-0.1132812-1.7695312-0.3388672c-0.5444336-0.2255859-1.0117188-0.5410156-1.4033203-0.9443359
		c-0.3911133-0.4042969-0.699707-0.8808594-0.9257812-1.4306641c-0.2265625-0.5498047-0.3393555-1.1494141-0.3393555-1.7978516
		c0-0.6474609,0.1098633-1.2460938,0.3300781-1.796875s0.5253906-1.0273438,0.9169922-1.4296875
		c0.3911133-0.4042969,0.8496094-0.71875,1.3754883-0.9453125c0.5253906-0.2265625,1.0942383-0.3398438,1.7055664-0.3398438
		c0.6479492,0,1.2285156,0.1171875,1.7421875,0.3496094S182.9433594,65,183.2919922,65.3847656
		s0.6142578,0.8378906,0.7978516,1.3574219c0.1831055,0.5195312,0.2749023,1.0722656,0.2749023,1.6591797v0.5498047H177.2124023z
		 M183.0444336,67.9609375c0-0.8183594-0.2446289-1.4824219-0.7333984-1.9892578
		c-0.4892578-0.5068359-1.1738281-0.7607422-2.0541992-0.7607422c-0.3916016,0-0.7705078,0.0761719-1.137207,0.2285156
		c-0.3666992,0.1533203-0.6875,0.3574219-0.9628906,0.6152344c-0.2749023,0.2558594-0.4951172,0.5498047-0.6601562,0.8798828
		s-0.2475586,0.6728516-0.2475586,1.0263672H183.0444336z"/>
	<path class="st2" d="M188.784668,68.328125l-3.1176758-3.9980469h1.6503906l2.3842773,3.2089844l2.2739258-3.2089844h1.5039062
		l-2.9892578,3.9980469l3.5947266,4.5849609h-1.6503906l-2.8798828-3.7597656l-2.769043,3.7597656h-1.5405273L188.784668,68.328125z
		"/>
	<path class="st2" d="M195.4052734,64.3300781h1.2109375v1.4306641h0.0361328
		c0.1962891-0.2939453,0.4287109-0.5439453,0.6972656-0.7519531s0.5498047-0.3789062,0.84375-0.5136719
		c0.2929688-0.1337891,0.5957031-0.2314453,0.9082031-0.2939453c0.3115234-0.0605469,0.6074219-0.0917969,0.8886719-0.0917969
		c0.6728516,0,1.2871094,0.1132812,1.84375,0.3398438c0.5556641,0.2265625,1.0361328,0.5410156,1.4394531,0.9453125
		c0.4033203,0.4023438,0.7177734,0.8789062,0.9443359,1.4296875s0.3388672,1.1494141,0.3388672,1.796875
		c0,0.6484375-0.1123047,1.2480469-0.3388672,1.7978516s-0.5410156,1.0263672-0.9443359,1.4306641
		c-0.4033203,0.4033203-0.8837891,0.71875-1.4394531,0.9443359c-0.5566406,0.2255859-1.1708984,0.3388672-1.84375,0.3388672
		c-0.28125,0-0.5771484-0.0302734-0.8886719-0.0917969c-0.3125-0.0605469-0.6152344-0.1582031-0.9082031-0.2929688
		c-0.2939453-0.1347656-0.5751953-0.3056641-0.84375-0.5136719c-0.2685547-0.2070312-0.5009766-0.4589844-0.6972656-0.7519531
		h-0.0361328v6.7128906h-1.2109375V64.3300781z M203.2363281,68.6210938c0-0.4765625-0.0761719-0.921875-0.2285156-1.3378906
		c-0.1533203-0.4160156-0.3701172-0.7773438-0.6513672-1.0820312c-0.28125-0.3056641-0.6210938-0.546875-1.0175781-0.7246094
		c-0.3974609-0.1777344-0.8466797-0.265625-1.3486328-0.265625c-0.5009766,0-0.9599609,0.0878906-1.375,0.265625
		c-0.4160156,0.1777344-0.7763672,0.4189453-1.0820312,0.7246094c-0.3056641,0.3046875-0.5439453,0.6660156-0.7158203,1.0820312
		c-0.1708984,0.4160156-0.2558594,0.8613281-0.2558594,1.3378906c0,0.4775391,0.0849609,0.9238281,0.2558594,1.3398438
		c0.171875,0.4150391,0.4101562,0.7753906,0.7158203,1.0820312c0.3056641,0.3046875,0.6660156,0.546875,1.0820312,0.7246094
		c0.4150391,0.1767578,0.8740234,0.265625,1.375,0.265625c0.5019531,0,0.9511719-0.0888672,1.3486328-0.265625
		c0.3964844-0.1777344,0.7363281-0.4199219,1.0175781-0.7246094c0.28125-0.3066406,0.4980469-0.6669922,0.6513672-1.0820312
		C203.1601562,69.5449219,203.2363281,69.0986328,203.2363281,68.6210938z"/>
	<path class="st2" d="M207.4541016,68.9511719c0.0371094,0.4287109,0.140625,0.8320312,0.3125,1.2109375
		c0.1708984,0.3789062,0.3964844,0.7060547,0.6777344,0.9814453c0.28125,0.2744141,0.6054688,0.4921875,0.9726562,0.6513672
		c0.3662109,0.1582031,0.7636719,0.2382812,1.1914062,0.2382812c0.6484375,0,1.2080078-0.1503906,1.6787109-0.4492188
		c0.4707031-0.2998047,0.828125-0.6455078,1.0722656-1.0371094l0.9355469,0.7705078
		c-0.5136719,0.6484375-1.0791016,1.1123047-1.6962891,1.3935547s-1.28125,0.421875-1.9902344,0.421875
		c-0.6357422,0-1.2255859-0.1132812-1.7695312-0.3388672s-1.0117188-0.5410156-1.4033203-0.9443359
		c-0.390625-0.4042969-0.6992188-0.8808594-0.9257812-1.4306641s-0.3388672-1.1494141-0.3388672-1.7978516
		c0-0.6474609,0.109375-1.2460938,0.3300781-1.796875c0.2197266-0.5507812,0.5253906-1.0273438,0.9169922-1.4296875
		c0.390625-0.4042969,0.8496094-0.71875,1.375-0.9453125s1.0947266-0.3398438,1.7060547-0.3398438
		c0.6474609,0,1.2285156,0.1171875,1.7421875,0.3496094S213.1855469,65,213.5341797,65.3847656
		s0.6142578,0.8378906,0.7978516,1.3574219c0.1826172,0.5195312,0.2744141,1.0722656,0.2744141,1.6591797v0.5498047H207.4541016z
		 M213.2861328,67.9609375c0-0.8183594-0.2441406-1.4824219-0.7333984-1.9892578s-1.1738281-0.7607422-2.0537109-0.7607422
		c-0.3916016,0-0.7705078,0.0761719-1.1376953,0.2285156c-0.3662109,0.1533203-0.6875,0.3574219-0.9628906,0.6152344
		c-0.2744141,0.2558594-0.4951172,0.5498047-0.6601562,0.8798828s-0.2470703,0.6728516-0.2470703,1.0263672H213.2861328z"/>
	<path class="st2" d="M223.0615234,66.3476562c-0.2080078-0.3183594-0.4980469-0.5869141-0.8710938-0.8066406
		c-0.3730469-0.2207031-0.7978516-0.3300781-1.2744141-0.3300781c-0.5019531-0.0126953-0.9511719,0.0664062-1.3486328,0.2382812
		c-0.3974609,0.1708984-0.7363281,0.4091797-1.0175781,0.7148438s-0.4951172,0.6699219-0.6416016,1.0917969
		c-0.1474609,0.421875-0.2207031,0.8769531-0.2207031,1.3652344c0,0.4902344,0.0732422,0.9453125,0.2207031,1.3671875
		c0.1464844,0.421875,0.3603516,0.7851562,0.6416016,1.0908203s0.6201172,0.5439453,1.0175781,0.7158203
		c0.3974609,0.1708984,0.8466797,0.25,1.3486328,0.2382812c0.4765625,0,0.9013672-0.1103516,1.2744141-0.3300781
		c0.3730469-0.2207031,0.6630859-0.4892578,0.8710938-0.8076172l0.9902344,0.7519531
		c-0.4277344,0.5009766-0.9111328,0.8710938-1.4492188,1.1103516c-0.5380859,0.2382812-1.0996094,0.3632812-1.6865234,0.375
		c-0.6972656,0.0117188-1.3271484-0.0947266-1.8896484-0.3203125c-0.5625-0.2265625-1.0419922-0.5410156-1.4394531-0.9453125
		c-0.3974609-0.4023438-0.7001953-0.8828125-0.9082031-1.4394531c-0.2080078-0.5556641-0.3115234-1.1582031-0.3115234-1.8066406
		c0-0.6474609,0.1035156-1.25,0.3115234-1.8066406c0.2080078-0.5556641,0.5107422-1.0351562,0.9082031-1.4394531
		c0.3974609-0.4023438,0.8769531-0.7177734,1.4394531-0.9433594c0.5625-0.2265625,1.1923828-0.3339844,1.8896484-0.3222656
		c0.5869141,0.0136719,1.1484375,0.1386719,1.6865234,0.3769531s1.0214844,0.6074219,1.4492188,1.109375L223.0615234,66.3476562z"/>
	<path class="st2" d="M230.0859375,65.4306641h-2.4765625v5.0615234c0,0.3183594,0.0302734,0.578125,0.0917969,0.7792969
		c0.0615234,0.2021484,0.1464844,0.3574219,0.2568359,0.4677734s0.2412109,0.1865234,0.3945312,0.2294922
		c0.1523438,0.0429688,0.3212891,0.0644531,0.5039062,0.0644531c0.2080078,0,0.421875-0.03125,0.6425781-0.0917969
		c0.2197266-0.0615234,0.421875-0.140625,0.6044922-0.2382812l0.0556641,1.1181641
		c-0.453125,0.2080078-0.9970703,0.3115234-1.6328125,0.3115234c-0.2324219,0-0.4736328-0.0302734-0.7236328-0.0917969
		c-0.2509766-0.0605469-0.4804688-0.1767578-0.6884766-0.3476562c-0.2080078-0.171875-0.3789062-0.4042969-0.5136719-0.6972656
		c-0.1337891-0.2929688-0.2011719-0.6787109-0.2011719-1.1552734v-5.4101562h-1.8154297v-1.1005859h1.8154297v-2.4208984h1.2099609
		v2.4208984h2.4765625V65.4306641z"/>
	<path class="st2" d="M236.8339844,59.0488281h1.2099609v6.7119141h0.0371094
		c0.1953125-0.2939453,0.4277344-0.5439453,0.6972656-0.7519531c0.2685547-0.2080078,0.5498047-0.3789062,0.8427734-0.5136719
		c0.2939453-0.1337891,0.5966797-0.2314453,0.9082031-0.2939453c0.3115234-0.0605469,0.6083984-0.0917969,0.8896484-0.0917969
		c0.671875,0,1.2861328,0.1132812,1.8427734,0.3398438s1.0361328,0.5410156,1.4394531,0.9453125
		c0.4042969,0.4023438,0.71875,0.8789062,0.9453125,1.4296875c0.2255859,0.5507812,0.3388672,1.1494141,0.3388672,1.796875
		c0,0.6484375-0.1132812,1.2480469-0.3388672,1.7978516c-0.2265625,0.5498047-0.5410156,1.0263672-0.9453125,1.4306641
		c-0.4033203,0.4033203-0.8828125,0.71875-1.4394531,0.9443359s-1.1708984,0.3388672-1.8427734,0.3388672
		c-0.28125,0-0.578125-0.0302734-0.8896484-0.0917969c-0.3115234-0.0605469-0.6142578-0.1582031-0.9082031-0.2929688
		c-0.2929688-0.1347656-0.5742188-0.3056641-0.8427734-0.5136719c-0.2695312-0.2070312-0.5019531-0.4589844-0.6972656-0.7519531
		h-0.0371094v1.4306641h-1.2099609V59.0488281z M244.6650391,68.6210938c0-0.4765625-0.0761719-0.921875-0.2294922-1.3378906
		s-0.3701172-0.7773438-0.6513672-1.0820312c-0.28125-0.3056641-0.6201172-0.546875-1.0175781-0.7246094
		s-0.8466797-0.265625-1.3476562-0.265625c-0.5019531,0-0.9599609,0.0878906-1.3759766,0.265625
		c-0.4150391,0.1777344-0.7763672,0.4189453-1.0820312,0.7246094c-0.3056641,0.3046875-0.5439453,0.6660156-0.7148438,1.0820312
		c-0.171875,0.4160156-0.2568359,0.8613281-0.2568359,1.3378906c0,0.4775391,0.0849609,0.9238281,0.2568359,1.3398438
		c0.1708984,0.4150391,0.4091797,0.7753906,0.7148438,1.0820312c0.3056641,0.3046875,0.6669922,0.546875,1.0820312,0.7246094
		c0.4160156,0.1767578,0.8740234,0.265625,1.3759766,0.265625c0.5009766,0,0.9501953-0.0888672,1.3476562-0.265625
		c0.3974609-0.1777344,0.7363281-0.4199219,1.0175781-0.7246094c0.28125-0.3066406,0.4980469-0.6669922,0.6513672-1.0820312
		C244.5888672,69.5449219,244.6650391,69.0986328,244.6650391,68.6210938z"/>
	<path class="st2" d="M248.8828125,68.9511719c0.0371094,0.4287109,0.140625,0.8320312,0.3125,1.2109375
		c0.1708984,0.3789062,0.3964844,0.7060547,0.6777344,0.9814453c0.28125,0.2744141,0.6054688,0.4921875,0.9726562,0.6513672
		c0.3662109,0.1582031,0.7636719,0.2382812,1.1914062,0.2382812c0.6484375,0,1.2080078-0.1503906,1.6787109-0.4492188
		c0.4707031-0.2998047,0.828125-0.6455078,1.0722656-1.0371094l0.9355469,0.7705078
		c-0.5136719,0.6484375-1.0791016,1.1123047-1.6962891,1.3935547s-1.28125,0.421875-1.9902344,0.421875
		c-0.6357422,0-1.2255859-0.1132812-1.7695312-0.3388672s-1.0117188-0.5410156-1.4033203-0.9443359
		c-0.390625-0.4042969-0.6992188-0.8808594-0.9257812-1.4306641s-0.3388672-1.1494141-0.3388672-1.7978516
		c0-0.6474609,0.109375-1.2460938,0.3300781-1.796875c0.2197266-0.5507812,0.5253906-1.0273438,0.9169922-1.4296875
		c0.390625-0.4042969,0.8496094-0.71875,1.375-0.9453125s1.0947266-0.3398438,1.7060547-0.3398438
		c0.6474609,0,1.2285156,0.1171875,1.7421875,0.3496094S254.6142578,65,254.9628906,65.3847656
		s0.6142578,0.8378906,0.7978516,1.3574219c0.1826172,0.5195312,0.2744141,1.0722656,0.2744141,1.6591797v0.5498047H248.8828125z
		 M254.7148438,67.9609375c0-0.8183594-0.2441406-1.4824219-0.7333984-1.9892578s-1.1738281-0.7607422-2.0537109-0.7607422
		c-0.3916016,0-0.7705078,0.0761719-1.1376953,0.2285156c-0.3662109,0.1533203-0.6875,0.3574219-0.9628906,0.6152344
		c-0.2744141,0.2558594-0.4951172,0.5498047-0.6601562,0.8798828s-0.2470703,0.6728516-0.2470703,1.0263672H254.7148438z"/>
	<path class="st2" d="M262.6748047,65.4306641h-2.4765625v5.0615234c0,0.3183594,0.0302734,0.578125,0.0917969,0.7792969
		c0.0615234,0.2021484,0.1464844,0.3574219,0.2568359,0.4677734s0.2412109,0.1865234,0.3945312,0.2294922
		c0.1523438,0.0429688,0.3212891,0.0644531,0.5039062,0.0644531c0.2080078,0,0.421875-0.03125,0.6425781-0.0917969
		c0.2197266-0.0615234,0.421875-0.140625,0.6044922-0.2382812l0.0556641,1.1181641
		c-0.453125,0.2080078-0.9970703,0.3115234-1.6328125,0.3115234c-0.2324219,0-0.4736328-0.0302734-0.7236328-0.0917969
		c-0.2509766-0.0605469-0.4804688-0.1767578-0.6884766-0.3476562c-0.2080078-0.171875-0.3789062-0.4042969-0.5136719-0.6972656
		c-0.1337891-0.2929688-0.2011719-0.6787109-0.2011719-1.1552734v-5.4101562h-1.8154297v-1.1005859h1.8154297v-2.4208984h1.2099609
		v2.4208984h2.4765625V65.4306641z"/>
	<path class="st2" d="M268.7626953,65.4306641h-2.4755859v5.0615234c0,0.3183594,0.0302734,0.578125,0.0917969,0.7792969
		c0.0605469,0.2021484,0.1464844,0.3574219,0.2568359,0.4677734c0.109375,0.1103516,0.2412109,0.1865234,0.3935547,0.2294922
		c0.1533203,0.0429688,0.3212891,0.0644531,0.5048828,0.0644531c0.2080078,0,0.421875-0.03125,0.6416016-0.0917969
		c0.2207031-0.0615234,0.421875-0.140625,0.6054688-0.2382812l0.0546875,1.1181641
		c-0.4521484,0.2080078-0.9960938,0.3115234-1.6318359,0.3115234c-0.2324219,0-0.4746094-0.0302734-0.7246094-0.0917969
		c-0.2509766-0.0605469-0.4794922-0.1767578-0.6875-0.3476562c-0.2080078-0.171875-0.3789062-0.4042969-0.5136719-0.6972656
		s-0.2021484-0.6787109-0.2021484-1.1552734v-5.4101562h-1.8154297v-1.1005859h1.8154297v-2.4208984h1.2109375v2.4208984h2.4755859
		V65.4306641z"/>
	<path class="st2" d="M271.2568359,68.9511719c0.0361328,0.4287109,0.140625,0.8320312,0.3115234,1.2109375
		s0.3974609,0.7060547,0.6787109,0.9814453c0.28125,0.2744141,0.6054688,0.4921875,0.9716797,0.6513672
		c0.3671875,0.1582031,0.7636719,0.2382812,1.1923828,0.2382812c0.6474609,0,1.2070312-0.1503906,1.6777344-0.4492188
		c0.4707031-0.2998047,0.828125-0.6455078,1.0732422-1.0371094l0.9355469,0.7705078
		c-0.5136719,0.6484375-1.0791016,1.1123047-1.6972656,1.3935547c-0.6171875,0.28125-1.2802734,0.421875-1.9892578,0.421875
		c-0.6357422,0-1.2255859-0.1132812-1.7695312-0.3388672c-0.5449219-0.2255859-1.0117188-0.5410156-1.4033203-0.9443359
		c-0.3916016-0.4042969-0.7001953-0.8808594-0.9257812-1.4306641c-0.2265625-0.5498047-0.3398438-1.1494141-0.3398438-1.7978516
		c0-0.6474609,0.1103516-1.2460938,0.3300781-1.796875c0.2207031-0.5507812,0.5253906-1.0273438,0.9169922-1.4296875
		c0.3916016-0.4042969,0.8496094-0.71875,1.3759766-0.9453125c0.5253906-0.2265625,1.09375-0.3398438,1.7050781-0.3398438
		c0.6484375,0,1.2285156,0.1171875,1.7421875,0.3496094S276.9873047,65,277.3359375,65.3847656
		s0.6142578,0.8378906,0.7978516,1.3574219s0.2753906,1.0722656,0.2753906,1.6591797v0.5498047H271.2568359z
		 M277.0888672,67.9609375c0-0.8183594-0.2451172-1.4824219-0.7333984-1.9892578
		c-0.4892578-0.5068359-1.1738281-0.7607422-2.0546875-0.7607422c-0.3916016,0-0.7705078,0.0761719-1.1367188,0.2285156
		c-0.3671875,0.1533203-0.6875,0.3574219-0.9628906,0.6152344c-0.2753906,0.2558594-0.4951172,0.5498047-0.6601562,0.8798828
		s-0.2480469,0.6728516-0.2480469,1.0263672H277.0888672z"/>
	<path class="st2" d="M280.7382812,67.0078125c0-0.3789062-0.0097656-0.7636719-0.0273438-1.1552734
		c-0.0185547-0.3916016-0.0341797-0.8994141-0.0458984-1.5224609h1.1914062v1.5957031h0.0371094
		c0.0849609-0.2324219,0.2080078-0.4550781,0.3671875-0.6699219c0.1582031-0.2128906,0.3505859-0.40625,0.5771484-0.5771484
		s0.4892578-0.3085938,0.7890625-0.4130859c0.2988281-0.1035156,0.6386719-0.15625,1.0175781-0.15625
		c0.3417969,0,0.6416016,0.0371094,0.8984375,0.1113281l-0.2382812,1.1914062
		c-0.1591797-0.0605469-0.3916016-0.0917969-0.6972656-0.0917969c-0.4648438,0-0.8613281,0.0888672-1.1914062,0.265625
		c-0.3300781,0.1777344-0.6054688,0.4042969-0.8251953,0.6796875c-0.2207031,0.2744141-0.3828125,0.5703125-0.4863281,0.8886719
		c-0.1044922,0.3183594-0.15625,0.6230469-0.15625,0.9169922v4.8417969h-1.2099609V67.0078125z"/>
	<path class="st2" d="M291.796875,59.0488281h1.2099609v6.65625h0.0371094
		c0.1347656-0.2314453,0.3056641-0.4453125,0.5136719-0.640625c0.2070312-0.1962891,0.4394531-0.3642578,0.6962891-0.5048828
		s0.5292969-0.2509766,0.8164062-0.3300781s0.5712891-0.1201172,0.8525391-0.1201172
		c1.1005859,0,1.9140625,0.2910156,2.4394531,0.8710938c0.5253906,0.5820312,0.7890625,1.4101562,0.7890625,2.4863281v5.4462891
		h-1.2109375v-4.75c0-0.9541016-0.1650391-1.6845703-0.4951172-2.1914062s-0.9414062-0.7607422-1.8339844-0.7607422
		c-0.0615234,0-0.2324219,0.0234375-0.5136719,0.0722656c-0.28125,0.0498047-0.5771484,0.1835938-0.8896484,0.4042969
		c-0.3115234,0.2197266-0.5898438,0.5498047-0.8339844,0.9902344c-0.2451172,0.4394531-0.3671875,1.0517578-0.3671875,1.8339844
		v4.4013672h-1.2099609V59.0488281z"/>
	<path class="st2" d="M302.8369141,68.9511719c0.0371094,0.4287109,0.140625,0.8320312,0.3125,1.2109375
		c0.1708984,0.3789062,0.3964844,0.7060547,0.6777344,0.9814453c0.28125,0.2744141,0.6054688,0.4921875,0.9726562,0.6513672
		c0.3662109,0.1582031,0.7636719,0.2382812,1.1914062,0.2382812c0.6484375,0,1.2080078-0.1503906,1.6787109-0.4492188
		c0.4707031-0.2998047,0.828125-0.6455078,1.0722656-1.0371094l0.9355469,0.7705078
		c-0.5136719,0.6484375-1.0791016,1.1123047-1.6962891,1.3935547s-1.28125,0.421875-1.9902344,0.421875
		c-0.6357422,0-1.2255859-0.1132812-1.7695312-0.3388672s-1.0117188-0.5410156-1.4033203-0.9443359
		c-0.390625-0.4042969-0.6992188-0.8808594-0.9257812-1.4306641s-0.3388672-1.1494141-0.3388672-1.7978516
		c0-0.6474609,0.109375-1.2460938,0.3300781-1.796875c0.2197266-0.5507812,0.5253906-1.0273438,0.9169922-1.4296875
		c0.390625-0.4042969,0.8496094-0.71875,1.375-0.9453125s1.0947266-0.3398438,1.7060547-0.3398438
		c0.6474609,0,1.2285156,0.1171875,1.7421875,0.3496094S308.5683594,65,308.9169922,65.3847656
		s0.6142578,0.8378906,0.7978516,1.3574219c0.1826172,0.5195312,0.2744141,1.0722656,0.2744141,1.6591797v0.5498047H302.8369141z
		 M308.6689453,67.9609375c0-0.8183594-0.2441406-1.4824219-0.7333984-1.9892578s-1.1738281-0.7607422-2.0537109-0.7607422
		c-0.3916016,0-0.7705078,0.0761719-1.1376953,0.2285156c-0.3662109,0.1533203-0.6875,0.3574219-0.9628906,0.6152344
		c-0.2744141,0.2558594-0.4951172,0.5498047-0.6601562,0.8798828s-0.2470703,0.6728516-0.2470703,1.0263672H308.6689453z"/>
	<path class="st2" d="M317.6923828,67.6494141v-0.2197266c0-1.4794922-0.7333984-2.21875-2.2011719-2.21875
		c-1.0019531,0-1.8769531,0.3359375-2.6220703,1.0078125l-0.7333984-0.8613281
		c0.8066406-0.8320312,2.0166016-1.2480469,3.6308594-1.2480469c0.4150391,0,0.8164062,0.0625,1.2011719,0.1835938
		c0.3847656,0.1230469,0.7177734,0.3095703,1,0.5605469c0.2802734,0.25,0.5068359,0.5644531,0.6777344,0.9433594
		c0.171875,0.3789062,0.2568359,0.8320312,0.2568359,1.3574219v3.8330078c0,0.3300781,0.015625,0.6757812,0.0458984,1.0361328
		c0.0302734,0.3613281,0.0644531,0.6582031,0.1015625,0.8896484h-1.1738281
		c-0.0371094-0.2080078-0.0644531-0.4345703-0.0830078-0.6787109s-0.0273438-0.4824219-0.0273438-0.7148438h-0.0371094
		c-0.3544922,0.5742188-0.7734375,0.9873047-1.2558594,1.2382812c-0.4833984,0.25-1.0732422,0.375-1.7695312,0.375
		c-0.3789062,0-0.7460938-0.0517578-1.1005859-0.15625c-0.3544922-0.1035156-0.6699219-0.2617188-0.9443359-0.4765625
		c-0.2753906-0.2128906-0.4951172-0.4765625-0.6601562-0.7880859S311.75,71.0371094,311.75,70.6210938
		c0-0.6972656,0.1806641-1.2441406,0.5410156-1.6425781c0.3603516-0.3964844,0.8134766-0.6933594,1.3574219-0.8886719
		s1.125-0.3183594,1.7421875-0.3671875s1.1826172-0.0732422,1.6962891-0.0732422H317.6923828z M317.0683594,68.640625
		c-0.3056641,0-0.6875,0.0146484-1.1455078,0.0449219c-0.4589844,0.03125-0.8994141,0.1044922-1.3212891,0.2207031
		s-0.7822266,0.296875-1.0820312,0.5410156s-0.4492188,0.5800781-0.4492188,1.0078125
		c0,0.28125,0.0585938,0.5234375,0.1748047,0.7246094c0.1162109,0.2021484,0.2714844,0.3671875,0.4677734,0.4960938
		c0.1953125,0.1279297,0.4121094,0.21875,0.6503906,0.2744141s0.4804688,0.0830078,0.7246094,0.0830078
		c0.4404297,0,0.8222656-0.0742188,1.1464844-0.2207031c0.3232422-0.1464844,0.5957031-0.3457031,0.8164062-0.5957031
		c0.2197266-0.25,0.3818359-0.5439453,0.4853516-0.8808594c0.1035156-0.3359375,0.15625-0.6933594,0.15625-1.0722656V68.640625
		H317.0683594z"/>
	<path class="st2" d="M323.1943359,72.9130859h-1.2099609V59.0488281h1.2099609V72.9130859z"/>
	<path class="st2" d="M330.5488281,65.4306641h-2.4765625v5.0615234c0,0.3183594,0.0302734,0.578125,0.0917969,0.7792969
		c0.0615234,0.2021484,0.1464844,0.3574219,0.2568359,0.4677734s0.2412109,0.1865234,0.3945312,0.2294922
		c0.1523438,0.0429688,0.3212891,0.0644531,0.5039062,0.0644531c0.2080078,0,0.421875-0.03125,0.6425781-0.0917969
		c0.2197266-0.0615234,0.421875-0.140625,0.6044922-0.2382812l0.0556641,1.1181641
		c-0.453125,0.2080078-0.9970703,0.3115234-1.6328125,0.3115234c-0.2324219,0-0.4736328-0.0302734-0.7236328-0.0917969
		c-0.2509766-0.0605469-0.4804688-0.1767578-0.6884766-0.3476562c-0.2080078-0.171875-0.3789062-0.4042969-0.5136719-0.6972656
		c-0.1337891-0.2929688-0.2011719-0.6787109-0.2011719-1.1552734v-5.4101562h-1.8154297v-1.1005859h1.8154297v-2.4208984h1.2099609
		v2.4208984h2.4765625V65.4306641z"/>
	<path class="st2" d="M332.1982422,59.0488281h1.2109375v6.65625h0.0361328
		c0.1347656-0.2314453,0.3056641-0.4453125,0.5136719-0.640625c0.2080078-0.1962891,0.4404297-0.3642578,0.6972656-0.5048828
		s0.5283203-0.2509766,0.8164062-0.3300781c0.2871094-0.0791016,0.5712891-0.1201172,0.8525391-0.1201172
		c1.1005859,0,1.9130859,0.2910156,2.4394531,0.8710938c0.5253906,0.5820312,0.7880859,1.4101562,0.7880859,2.4863281v5.4462891
		h-1.2099609v-4.75c0-0.9541016-0.1650391-1.6845703-0.4951172-2.1914062s-0.9423828-0.7607422-1.8339844-0.7607422
		c-0.0615234,0-0.2324219,0.0234375-0.5136719,0.0722656c-0.28125,0.0498047-0.578125,0.1835938-0.8896484,0.4042969
		c-0.3115234,0.2197266-0.5898438,0.5498047-0.8349609,0.9902344c-0.2441406,0.4394531-0.3662109,1.0517578-0.3662109,1.8339844
		v4.4013672h-1.2109375V59.0488281z"/>
	<path class="st2" d="M348.6494141,66.3476562c-0.2080078-0.3183594-0.4980469-0.5869141-0.8710938-0.8066406
		c-0.3730469-0.2207031-0.7978516-0.3300781-1.2744141-0.3300781c-0.5019531-0.0126953-0.9511719,0.0664062-1.3486328,0.2382812
		c-0.3974609,0.1708984-0.7363281,0.4091797-1.0175781,0.7148438s-0.4951172,0.6699219-0.6416016,1.0917969
		c-0.1474609,0.421875-0.2207031,0.8769531-0.2207031,1.3652344c0,0.4902344,0.0732422,0.9453125,0.2207031,1.3671875
		c0.1464844,0.421875,0.3603516,0.7851562,0.6416016,1.0908203s0.6201172,0.5439453,1.0175781,0.7158203
		c0.3974609,0.1708984,0.8466797,0.25,1.3486328,0.2382812c0.4765625,0,0.9013672-0.1103516,1.2744141-0.3300781
		c0.3730469-0.2207031,0.6630859-0.4892578,0.8710938-0.8076172l0.9902344,0.7519531
		c-0.4277344,0.5009766-0.9111328,0.8710938-1.4492188,1.1103516c-0.5380859,0.2382812-1.0996094,0.3632812-1.6865234,0.375
		c-0.6972656,0.0117188-1.3271484-0.0947266-1.8896484-0.3203125c-0.5625-0.2265625-1.0419922-0.5410156-1.4394531-0.9453125
		c-0.3974609-0.4023438-0.7001953-0.8828125-0.9082031-1.4394531c-0.2080078-0.5556641-0.3115234-1.1582031-0.3115234-1.8066406
		c0-0.6474609,0.1035156-1.25,0.3115234-1.8066406c0.2080078-0.5556641,0.5107422-1.0351562,0.9082031-1.4394531
		c0.3974609-0.4023438,0.8769531-0.7177734,1.4394531-0.9433594c0.5625-0.2265625,1.1923828-0.3339844,1.8896484-0.3222656
		c0.5869141,0.0136719,1.1484375,0.1386719,1.6865234,0.3769531s1.0214844,0.6074219,1.4492188,1.109375L348.6494141,66.3476562z"/>
	<path class="st2" d="M356.7363281,67.6494141v-0.2197266c0-1.4794922-0.7333984-2.21875-2.2001953-2.21875
		c-1.0029297,0-1.8769531,0.3359375-2.6230469,1.0078125l-0.7333984-0.8613281
		c0.8066406-0.8320312,2.0175781-1.2480469,3.6308594-1.2480469c0.4160156,0,0.8164062,0.0625,1.2021484,0.1835938
		c0.3847656,0.1230469,0.7177734,0.3095703,0.9990234,0.5605469c0.28125,0.25,0.5068359,0.5644531,0.6787109,0.9433594
		c0.1708984,0.3789062,0.2568359,0.8320312,0.2568359,1.3574219v3.8330078c0,0.3300781,0.0146484,0.6757812,0.0458984,1.0361328
		c0.0302734,0.3613281,0.0634766,0.6582031,0.1005859,0.8896484h-1.1738281
		c-0.0361328-0.2080078-0.0644531-0.4345703-0.0820312-0.6787109c-0.0185547-0.2441406-0.0283203-0.4824219-0.0283203-0.7148438
		h-0.0361328C356.4189453,72.09375,356,72.5068359,355.5166016,72.7578125c-0.4824219,0.25-1.0722656,0.375-1.7695312,0.375
		c-0.3789062,0-0.7460938-0.0517578-1.1005859-0.15625c-0.3544922-0.1035156-0.6689453-0.2617188-0.9443359-0.4765625
		c-0.2744141-0.2128906-0.4951172-0.4765625-0.6601562-0.7880859s-0.2470703-0.6748047-0.2470703-1.0908203
		c0-0.6972656,0.1796875-1.2441406,0.5410156-1.6425781c0.3603516-0.3964844,0.8125-0.6933594,1.3564453-0.8886719
		s1.125-0.3183594,1.7421875-0.3671875c0.6181641-0.0488281,1.1835938-0.0732422,1.6972656-0.0732422H356.7363281z
		 M356.1132812,68.640625c-0.3056641,0-0.6875,0.0146484-1.1464844,0.0449219
		c-0.4580078,0.03125-0.8984375,0.1044922-1.3203125,0.2207031s-0.7822266,0.296875-1.0820312,0.5410156
		s-0.4492188,0.5800781-0.4492188,1.0078125c0,0.28125,0.0576172,0.5234375,0.1738281,0.7246094
		c0.1162109,0.2021484,0.2724609,0.3671875,0.4677734,0.4960938c0.1953125,0.1279297,0.4130859,0.21875,0.6513672,0.2744141
		s0.4794922,0.0830078,0.7246094,0.0830078c0.4394531,0,0.8212891-0.0742188,1.1455078-0.2207031
		s0.5966797-0.3457031,0.8164062-0.5957031s0.3818359-0.5439453,0.4863281-0.8808594
		c0.1035156-0.3359375,0.1552734-0.6933594,0.1552734-1.0722656V68.640625H356.1132812z"/>
	<path class="st2" d="M360.8818359,67.0078125c0-0.3789062-0.0097656-0.7636719-0.0273438-1.1552734
		c-0.0185547-0.3916016-0.0341797-0.8994141-0.0458984-1.5224609H362v1.5957031h0.0371094
		c0.0849609-0.2324219,0.2080078-0.4550781,0.3671875-0.6699219c0.1582031-0.2128906,0.3505859-0.40625,0.5771484-0.5771484
		s0.4892578-0.3085938,0.7890625-0.4130859c0.2988281-0.1035156,0.6386719-0.15625,1.0175781-0.15625
		c0.3417969,0,0.6416016,0.0371094,0.8984375,0.1113281l-0.2382812,1.1914062
		c-0.1591797-0.0605469-0.3916016-0.0917969-0.6972656-0.0917969c-0.4648438,0-0.8613281,0.0888672-1.1914062,0.265625
		c-0.3300781,0.1777344-0.6054688,0.4042969-0.8251953,0.6796875c-0.2207031,0.2744141-0.3828125,0.5703125-0.4863281,0.8886719
		c-0.1044922,0.3183594-0.15625,0.6230469-0.15625,0.9169922v4.8417969h-1.2099609V67.0078125z"/>
	<path class="st2" d="M367.3554688,68.9511719c0.0361328,0.4287109,0.140625,0.8320312,0.3115234,1.2109375
		s0.3974609,0.7060547,0.6787109,0.9814453c0.28125,0.2744141,0.6054688,0.4921875,0.9716797,0.6513672
		c0.3671875,0.1582031,0.7636719,0.2382812,1.1923828,0.2382812c0.6474609,0,1.2070312-0.1503906,1.6777344-0.4492188
		c0.4707031-0.2998047,0.828125-0.6455078,1.0732422-1.0371094l0.9355469,0.7705078
		c-0.5136719,0.6484375-1.0791016,1.1123047-1.6972656,1.3935547c-0.6171875,0.28125-1.2802734,0.421875-1.9892578,0.421875
		c-0.6357422,0-1.2255859-0.1132812-1.7695312-0.3388672c-0.5449219-0.2255859-1.0117188-0.5410156-1.4033203-0.9443359
		c-0.3916016-0.4042969-0.7001953-0.8808594-0.9257812-1.4306641c-0.2265625-0.5498047-0.3398438-1.1494141-0.3398438-1.7978516
		c0-0.6474609,0.1103516-1.2460938,0.3300781-1.796875c0.2207031-0.5507812,0.5253906-1.0273438,0.9169922-1.4296875
		c0.3916016-0.4042969,0.8496094-0.71875,1.3759766-0.9453125c0.5253906-0.2265625,1.09375-0.3398438,1.7050781-0.3398438
		c0.6484375,0,1.2285156,0.1171875,1.7421875,0.3496094S373.0859375,65,373.4345703,65.3847656
		s0.6142578,0.8378906,0.7978516,1.3574219s0.2753906,1.0722656,0.2753906,1.6591797v0.5498047H367.3554688z M373.1875,67.9609375
		c0-0.8183594-0.2451172-1.4824219-0.7333984-1.9892578c-0.4892578-0.5068359-1.1738281-0.7607422-2.0546875-0.7607422
		c-0.3916016,0-0.7705078,0.0761719-1.1367188,0.2285156c-0.3671875,0.1533203-0.6875,0.3574219-0.9628906,0.6152344
		c-0.2753906,0.2558594-0.4951172,0.5498047-0.6601562,0.8798828s-0.2480469,0.6728516-0.2480469,1.0263672H373.1875z"/>
</g>
</svg>
