<?xml version="1.0" encoding="UTF-8"?>
<svg version="1.1" viewBox="0 0 372.583313 72.3833008" xmlns="http://www.w3.org/2000/svg">
<style type="text/css">.st0{fill:#3E8B94;}
	.st1{fill:#303C42;}
	.st2{fill:#A8C643;}
	.st3{fill:#333E48;}</style>
<polygon class="st0" points="207.18 10.497 210.12 10.497 210.77 7.7642 200.52 7.7642 199.87 10.497 203.79 10.497 200.63 24.121 182.13 24.121 185.28 10.497 189.25 10.497 189.9 7.7642 178.46 7.7642 177.81 10.497 181.88 10.497 174.54 42.382 170.9 42.382 170.25 45.117 181.48 45.117 182.13 42.382 177.94 42.382 181.53 26.856 200.04 26.856 196.45 42.382 192.53 42.382 191.88 45.117 203.21 45.117 203.87 42.382 199.84 42.382"/>
<polygon class="st0" points="233.61 33.416 231.55 42.382 214.62 42.382 218.1 27.345 231.69 27.345 232.34 24.611 218.75 24.611 222.02 10.497 238.62 10.497 236.55 19.52 239.3 19.52 242.01 7.7642 215.08 7.7642 214.49 10.497 218.62 10.497 211.22 42.382 207.42 42.382 206.83 45.117 233.7 45.117 236.36 33.416"/>
<path class="st0" d="m266.16 10.497h4.1641l0.65137-2.7329h-16.495l-0.65332 2.7329h4.6943l-16.88 31.885h-4.7178l-0.64844 2.7344h12.475l0.64844-2.7344h-4.4775l5.8516-11.233h14.389l1.2549 11.233h-4.5986l-0.65332 2.7344h12.855l0.65332-2.7344h-4.8682l-3.6445-31.885zm-1.2109 17.919h-12.691l9.6016-18.354h1.127l1.9629 18.354z"/>
<polygon class="st0" points="298.6 42.382 283.74 42.382 291.08 10.497 295.37 10.497 296.02 7.7642 283.87 7.7642 283.22 10.497 287.68 10.497 280.28 42.382 276.1 42.382 275.51 45.117 301.24 45.117 304.82 29.448 301.59 29.448"/>
<polygon class="st0" points="333.68 21.964 336.99 7.7642 309.57 7.7642 306.26 21.964 309.06 21.964 311.72 10.497 320.93 10.497 313.54 42.382 309.41 42.382 308.82 45.117 320.48 45.117 321.06 42.382 316.94 42.382 324.33 10.497 333.54 10.497 330.88 21.964"/>
<polygon class="st0" points="362.34 7.7642 361.69 10.497 365.6 10.497 362.45 24.121 343.94 24.121 347.1 10.497 351.06 10.497 351.71 7.7642 340.27 7.7642 339.62 10.497 343.7 10.497 336.36 42.382 332.72 42.382 332.07 45.117 343.29 45.117 343.94 42.382 339.76 42.382 343.35 26.856 361.85 26.856 358.26 42.382 354.35 42.382 353.7 45.117 365.03 45.117 365.68 42.382 361.66 42.382 369 10.497 371.93 10.497 372.58 7.7642"/>
<path class="st1" d="m171.82 63.139c0.036621 0.42871 0.14062 0.83203 0.31201 1.2109 0.1709 0.37891 0.39697 0.70605 0.67822 0.98145 0.28125 0.27441 0.60547 0.49219 0.97217 0.65137 0.3667 0.1582 0.76367 0.23828 1.1919 0.23828 0.64795 0 1.2075-0.15039 1.6782-0.44922 0.4707-0.2998 0.82812-0.64551 1.0728-1.0371l0.93555 0.77051c-0.51367 0.64844-1.0791 1.1123-1.6968 1.3936-0.61719 0.28125-1.2808 0.42188-1.9897 0.42188-0.63574 0-1.2256-0.11328-1.7695-0.33887-0.54443-0.22559-1.0117-0.54102-1.4033-0.94434-0.39111-0.4043-0.69971-0.88086-0.92578-1.4307-0.22656-0.5498-0.33936-1.1494-0.33936-1.7979 0-0.64746 0.10986-1.2461 0.33008-1.7969s0.52539-1.0273 0.91699-1.4297c0.39111-0.4043 0.84961-0.71875 1.3755-0.94531 0.52539-0.22656 1.0942-0.33984 1.7056-0.33984 0.64795 0 1.2285 0.11719 1.7422 0.34961s0.94434 0.54102 1.293 0.92578 0.61426 0.83789 0.79785 1.3574c0.18311 0.51953 0.2749 1.0723 0.2749 1.6592v0.5498h-7.1523zm5.832-0.99023c0-0.81836-0.24463-1.4824-0.7334-1.9893-0.48926-0.50684-1.1738-0.76074-2.0542-0.76074-0.3916 0-0.77051 0.076172-1.1372 0.22852-0.3667 0.15332-0.6875 0.35742-0.96289 0.61523-0.2749 0.25586-0.49512 0.5498-0.66016 0.87988s-0.24756 0.67285-0.24756 1.0264h5.7954z"/>
<path class="st1" d="m183.39 62.516l-3.1177-3.998h1.6504l2.3843 3.209 2.2739-3.209h1.5039l-2.9893 3.998 3.5947 4.585h-1.6504l-2.8799-3.7598-2.769 3.7598h-1.5405l3.5396-4.585z"/>
<path class="st1" d="m190.01 58.518h1.2109v1.4307h0.036133c0.19629-0.29395 0.42871-0.54395 0.69727-0.75195s0.5498-0.37891 0.84375-0.51367c0.29297-0.13379 0.5957-0.23145 0.9082-0.29395 0.31152-0.060547 0.60742-0.091797 0.88867-0.091797 0.67285 0 1.2871 0.11328 1.8438 0.33984 0.55566 0.22656 1.0361 0.54102 1.4395 0.94531 0.40332 0.40234 0.71777 0.87891 0.94434 1.4297s0.33887 1.1494 0.33887 1.7969c0 0.64844-0.1123 1.248-0.33887 1.7979s-0.54102 1.0264-0.94434 1.4307c-0.40332 0.40332-0.88379 0.71875-1.4395 0.94434-0.55664 0.22559-1.1709 0.33887-1.8438 0.33887-0.28125 0-0.57715-0.030273-0.88867-0.091797-0.3125-0.060547-0.61523-0.1582-0.9082-0.29297-0.29395-0.13477-0.5752-0.30566-0.84375-0.51367-0.26855-0.20703-0.50098-0.45898-0.69727-0.75195h-0.036133v6.7129h-1.2109v-13.865zm7.8311 4.291c0-0.47656-0.076172-0.92188-0.22852-1.3379-0.15332-0.41602-0.37012-0.77734-0.65137-1.082-0.28125-0.30566-0.62109-0.54688-1.0176-0.72461-0.39746-0.17773-0.84668-0.26562-1.3486-0.26562-0.50098 0-0.95996 0.087891-1.375 0.26562-0.41602 0.17773-0.77637 0.41895-1.082 0.72461-0.30566 0.30469-0.54395 0.66602-0.71582 1.082-0.1709 0.41602-0.25586 0.86133-0.25586 1.3379 0 0.47754 0.084961 0.92383 0.25586 1.3398 0.17188 0.41504 0.41016 0.77539 0.71582 1.082 0.30566 0.30469 0.66602 0.54688 1.082 0.72461 0.41504 0.17676 0.87402 0.26562 1.375 0.26562 0.50195 0 0.95117-0.088867 1.3486-0.26562 0.39648-0.17773 0.73633-0.41992 1.0176-0.72461 0.28125-0.30664 0.49805-0.66699 0.65137-1.082 0.15234-0.41602 0.22852-0.8623 0.22852-1.3398z"/>
<path class="st1" d="m202.06 63.139c0.037109 0.42871 0.14062 0.83203 0.3125 1.2109 0.1709 0.37891 0.39648 0.70605 0.67773 0.98145 0.28125 0.27441 0.60547 0.49219 0.97266 0.65137 0.36621 0.1582 0.76367 0.23828 1.1914 0.23828 0.64844 0 1.208-0.15039 1.6787-0.44922 0.4707-0.2998 0.82812-0.64551 1.0723-1.0371l0.93555 0.77051c-0.51367 0.64844-1.0791 1.1123-1.6963 1.3936s-1.2812 0.42188-1.9902 0.42188c-0.63574 0-1.2256-0.11328-1.7695-0.33887s-1.0117-0.54102-1.4033-0.94434c-0.39062-0.4043-0.69922-0.88086-0.92578-1.4307s-0.33887-1.1494-0.33887-1.7979c0-0.64746 0.10938-1.2461 0.33008-1.7969 0.21973-0.55078 0.52539-1.0273 0.91699-1.4297 0.39062-0.4043 0.84961-0.71875 1.375-0.94531s1.0947-0.33984 1.7061-0.33984c0.64746 0 1.2285 0.11719 1.7422 0.34961s0.94434 0.54102 1.293 0.92578 0.61426 0.83789 0.79785 1.3574c0.18262 0.51953 0.27441 1.0723 0.27441 1.6592v0.5498h-7.1523zm5.832-0.99023c0-0.81836-0.24414-1.4824-0.7334-1.9893s-1.1738-0.76074-2.0537-0.76074c-0.3916 0-0.77051 0.076172-1.1377 0.22852-0.36621 0.15332-0.6875 0.35742-0.96289 0.61523-0.27441 0.25586-0.49512 0.5498-0.66016 0.87988s-0.24707 0.67285-0.24707 1.0264h5.7949z"/>
<path class="st1" d="m217.67 60.536c-0.20801-0.31836-0.49805-0.58691-0.87109-0.80664-0.37305-0.2207-0.79785-0.33008-1.2744-0.33008-0.50195-0.012695-0.95117 0.066406-1.3486 0.23828-0.39746 0.1709-0.73633 0.40918-1.0176 0.71484s-0.49512 0.66992-0.6416 1.0918c-0.14746 0.42188-0.2207 0.87695-0.2207 1.3652 0 0.49023 0.073242 0.94531 0.2207 1.3672 0.14648 0.42188 0.36035 0.78516 0.6416 1.0908s0.62012 0.54395 1.0176 0.71582c0.39746 0.1709 0.84668 0.25 1.3486 0.23828 0.47656 0 0.90137-0.11035 1.2744-0.33008 0.37305-0.2207 0.66309-0.48926 0.87109-0.80762l0.99023 0.75195c-0.42773 0.50098-0.91113 0.87109-1.4492 1.1104-0.53809 0.23828-1.0996 0.36328-1.6865 0.375-0.69727 0.011719-1.3271-0.094727-1.8896-0.32031-0.5625-0.22656-1.042-0.54102-1.4395-0.94531-0.39746-0.40234-0.7002-0.88281-0.9082-1.4395-0.20801-0.55566-0.31152-1.1582-0.31152-1.8066 0-0.64746 0.10352-1.25 0.31152-1.8066 0.20801-0.55566 0.51074-1.0352 0.9082-1.4395 0.39746-0.40234 0.87695-0.71777 1.4395-0.94336 0.5625-0.22656 1.1924-0.33398 1.8896-0.32227 0.58691 0.013672 1.1484 0.13867 1.6865 0.37695s1.0215 0.60742 1.4492 1.1094l-0.99023 0.75195z"/>
<path class="st1" d="m224.69 59.619h-2.4766v5.0615c0 0.31836 0.030273 0.57812 0.091797 0.7793 0.061523 0.20215 0.14648 0.35742 0.25684 0.46777s0.24121 0.18652 0.39453 0.22949c0.15234 0.042969 0.32129 0.064453 0.50391 0.064453 0.20801 0 0.42188-0.03125 0.64258-0.091797 0.21973-0.061523 0.42188-0.14062 0.60449-0.23828l0.055664 1.1182c-0.45312 0.20801-0.99707 0.31152-1.6328 0.31152-0.23242 0-0.47363-0.030273-0.72363-0.091797-0.25098-0.060547-0.48047-0.17676-0.68848-0.34766-0.20801-0.17188-0.37891-0.4043-0.51367-0.69727-0.13379-0.29297-0.20117-0.67871-0.20117-1.1553v-5.4102h-1.8154v-1.1006h1.8154v-2.4209h1.21v2.4209h2.4766v1.1006z"/>
<path class="st1" d="m231.44 53.237h1.21v6.7119h0.037109c0.19531-0.29395 0.42773-0.54395 0.69727-0.75195 0.26855-0.20801 0.5498-0.37891 0.84277-0.51367 0.29395-0.13379 0.59668-0.23145 0.9082-0.29395 0.31152-0.060547 0.6084-0.091797 0.88965-0.091797 0.67188 0 1.2861 0.11328 1.8428 0.33984s1.0361 0.54102 1.4395 0.94531c0.4043 0.40234 0.71875 0.87891 0.94531 1.4297 0.22559 0.55078 0.33887 1.1494 0.33887 1.7969 0 0.64844-0.11328 1.248-0.33887 1.7979-0.22656 0.5498-0.54102 1.0264-0.94531 1.4307-0.40332 0.40332-0.88281 0.71875-1.4395 0.94434s-1.1709 0.33887-1.8428 0.33887c-0.28125 0-0.57812-0.030273-0.88965-0.091797-0.31152-0.060547-0.61426-0.1582-0.9082-0.29297-0.29297-0.13477-0.57422-0.30566-0.84277-0.51367-0.26953-0.20703-0.50195-0.45898-0.69727-0.75195h-0.037109v1.4307h-1.21v-13.864zm7.8311 9.5723c0-0.47656-0.076172-0.92188-0.22949-1.3379s-0.37012-0.77734-0.65137-1.082c-0.28125-0.30566-0.62012-0.54688-1.0176-0.72461s-0.84668-0.26562-1.3477-0.26562c-0.50195 0-0.95996 0.087891-1.376 0.26562-0.41504 0.17773-0.77637 0.41895-1.082 0.72461-0.30566 0.30469-0.54395 0.66602-0.71484 1.082-0.17188 0.41602-0.25684 0.86133-0.25684 1.3379 0 0.47754 0.084961 0.92383 0.25684 1.3398 0.1709 0.41504 0.40918 0.77539 0.71484 1.082 0.30566 0.30469 0.66699 0.54688 1.082 0.72461 0.41602 0.17676 0.87402 0.26562 1.376 0.26562 0.50098 0 0.9502-0.088867 1.3477-0.26562 0.39746-0.17773 0.73633-0.41992 1.0176-0.72461 0.28125-0.30664 0.49805-0.66699 0.65137-1.082 0.15332-0.41602 0.22949-0.8623 0.22949-1.3398z"/>
<path class="st1" d="m243.49 63.139c0.037109 0.42871 0.14062 0.83203 0.3125 1.2109 0.1709 0.37891 0.39648 0.70605 0.67773 0.98145 0.28125 0.27441 0.60547 0.49219 0.97266 0.65137 0.36621 0.1582 0.76367 0.23828 1.1914 0.23828 0.64844 0 1.208-0.15039 1.6787-0.44922 0.4707-0.2998 0.82812-0.64551 1.0723-1.0371l0.93555 0.77051c-0.51367 0.64844-1.0791 1.1123-1.6963 1.3936s-1.2812 0.42188-1.9902 0.42188c-0.63574 0-1.2256-0.11328-1.7695-0.33887s-1.0117-0.54102-1.4033-0.94434c-0.39062-0.4043-0.69922-0.88086-0.92578-1.4307s-0.33887-1.1494-0.33887-1.7979c0-0.64746 0.10938-1.2461 0.33008-1.7969 0.21973-0.55078 0.52539-1.0273 0.91699-1.4297 0.39062-0.4043 0.84961-0.71875 1.375-0.94531s1.0947-0.33984 1.7061-0.33984c0.64746 0 1.2285 0.11719 1.7422 0.34961s0.94434 0.54102 1.293 0.92578 0.61426 0.83789 0.79785 1.3574c0.18262 0.51953 0.27441 1.0723 0.27441 1.6592v0.5498h-7.1523zm5.832-0.99023c0-0.81836-0.24414-1.4824-0.7334-1.9893s-1.1738-0.76074-2.0537-0.76074c-0.3916 0-0.77051 0.076172-1.1377 0.22852-0.36621 0.15332-0.6875 0.35742-0.96289 0.61523-0.27441 0.25586-0.49512 0.5498-0.66016 0.87988s-0.24707 0.67285-0.24707 1.0264h5.7949z"/>
<path class="st1" d="m257.28 59.619h-2.4766v5.0615c0 0.31836 0.030273 0.57812 0.091797 0.7793 0.061523 0.20215 0.14648 0.35742 0.25684 0.46777s0.24121 0.18652 0.39453 0.22949c0.15234 0.042969 0.32129 0.064453 0.50391 0.064453 0.20801 0 0.42188-0.03125 0.64258-0.091797 0.21973-0.061523 0.42188-0.14062 0.60449-0.23828l0.055664 1.1182c-0.45312 0.20801-0.99707 0.31152-1.6328 0.31152-0.23242 0-0.47363-0.030273-0.72363-0.091797-0.25098-0.060547-0.48047-0.17676-0.68848-0.34766-0.20801-0.17188-0.37891-0.4043-0.51367-0.69727-0.13379-0.29297-0.20117-0.67871-0.20117-1.1553v-5.4102h-1.8154v-1.1006h1.8154v-2.4209h1.21v2.4209h2.4766v1.1006z"/>
<path class="st1" d="m263.37 59.619h-2.4756v5.0615c0 0.31836 0.030273 0.57812 0.091797 0.7793 0.060547 0.20215 0.14648 0.35742 0.25684 0.46777 0.10938 0.11035 0.24121 0.18652 0.39355 0.22949 0.15332 0.042969 0.32129 0.064453 0.50488 0.064453 0.20801 0 0.42188-0.03125 0.6416-0.091797 0.2207-0.061523 0.42188-0.14062 0.60547-0.23828l0.054688 1.1182c-0.45215 0.20801-0.99609 0.31152-1.6318 0.31152-0.23242 0-0.47461-0.030273-0.72461-0.091797-0.25098-0.060547-0.47949-0.17676-0.6875-0.34766-0.20801-0.17188-0.37891-0.4043-0.51367-0.69727s-0.20215-0.67871-0.20215-1.1553v-5.4102h-1.8154v-1.1006h1.8154v-2.4209h1.2109v2.4209h2.4756v1.1006z"/>
<path class="st1" d="m265.87 63.139c0.036133 0.42871 0.14062 0.83203 0.31152 1.2109s0.39746 0.70605 0.67871 0.98145c0.28125 0.27441 0.60547 0.49219 0.97168 0.65137 0.36719 0.1582 0.76367 0.23828 1.1924 0.23828 0.64746 0 1.207-0.15039 1.6777-0.44922 0.4707-0.2998 0.82812-0.64551 1.0732-1.0371l0.93555 0.77051c-0.51367 0.64844-1.0791 1.1123-1.6973 1.3936-0.61719 0.28125-1.2803 0.42188-1.9893 0.42188-0.63574 0-1.2256-0.11328-1.7695-0.33887-0.54492-0.22559-1.0117-0.54102-1.4033-0.94434-0.3916-0.4043-0.7002-0.88086-0.92578-1.4307-0.22656-0.5498-0.33984-1.1494-0.33984-1.7979 0-0.64746 0.11035-1.2461 0.33008-1.7969 0.2207-0.55078 0.52539-1.0273 0.91699-1.4297 0.3916-0.4043 0.84961-0.71875 1.376-0.94531 0.52539-0.22656 1.0938-0.33984 1.7051-0.33984 0.64844 0 1.2285 0.11719 1.7422 0.34961s0.94434 0.54102 1.293 0.92578 0.61426 0.83789 0.79785 1.3574 0.27539 1.0723 0.27539 1.6592v0.5498h-7.1523zm5.832-0.99023c0-0.81836-0.24512-1.4824-0.7334-1.9893-0.48926-0.50684-1.1738-0.76074-2.0547-0.76074-0.3916 0-0.77051 0.076172-1.1367 0.22852-0.36719 0.15332-0.6875 0.35742-0.96289 0.61523-0.27539 0.25586-0.49512 0.5498-0.66016 0.87988s-0.24805 0.67285-0.24805 1.0264h5.7959z"/>
<path class="st1" d="m275.35 61.196c0-0.37891-0.0097656-0.76367-0.027344-1.1553-0.018555-0.3916-0.03418-0.89941-0.045898-1.5225h1.1914v1.5957h0.037109c0.084961-0.23242 0.20801-0.45508 0.36719-0.66992 0.1582-0.21289 0.35059-0.40625 0.57715-0.57715s0.48926-0.30859 0.78906-0.41309c0.29883-0.10352 0.63867-0.15625 1.0176-0.15625 0.3418 0 0.6416 0.037109 0.89844 0.11133l-0.23828 1.1914c-0.15918-0.060547-0.3916-0.091797-0.69727-0.091797-0.46484 0-0.86133 0.088867-1.1914 0.26562-0.33008 0.17773-0.60547 0.4043-0.8252 0.67969-0.2207 0.27441-0.38281 0.57031-0.48633 0.88867-0.10449 0.31836-0.15625 0.62305-0.15625 0.91699v4.8418h-1.21v-5.9053z"/>
<path class="st1" d="m286.41 53.237h1.21v6.6562h0.037109c0.13477-0.23145 0.30566-0.44531 0.51367-0.64062 0.20703-0.19629 0.43945-0.36426 0.69629-0.50488s0.5293-0.25098 0.81641-0.33008 0.57129-0.12012 0.85254-0.12012c1.1006 0 1.9141 0.29102 2.4395 0.87109 0.52539 0.58203 0.78906 1.4102 0.78906 2.4863v5.4463h-1.2109v-4.75c0-0.9541-0.16504-1.6846-0.49512-2.1914s-0.94141-0.76074-1.834-0.76074c-0.061523 0-0.23242 0.023438-0.51367 0.072266-0.28125 0.049805-0.57715 0.18359-0.88965 0.4043-0.31152 0.21973-0.58984 0.5498-0.83398 0.99023-0.24512 0.43945-0.36719 1.0518-0.36719 1.834v4.4014h-1.21v-13.864z"/>
<path class="st1" d="m297.45 63.139c0.037109 0.42871 0.14062 0.83203 0.3125 1.2109 0.1709 0.37891 0.39648 0.70605 0.67773 0.98145 0.28125 0.27441 0.60547 0.49219 0.97266 0.65137 0.36621 0.1582 0.76367 0.23828 1.1914 0.23828 0.64844 0 1.208-0.15039 1.6787-0.44922 0.4707-0.2998 0.82812-0.64551 1.0723-1.0371l0.93555 0.77051c-0.51367 0.64844-1.0791 1.1123-1.6963 1.3936s-1.2812 0.42188-1.9902 0.42188c-0.63574 0-1.2256-0.11328-1.7695-0.33887s-1.0117-0.54102-1.4033-0.94434c-0.39062-0.4043-0.69922-0.88086-0.92578-1.4307s-0.33887-1.1494-0.33887-1.7979c0-0.64746 0.10938-1.2461 0.33008-1.7969 0.21973-0.55078 0.52539-1.0273 0.91699-1.4297 0.39062-0.4043 0.84961-0.71875 1.375-0.94531s1.0947-0.33984 1.7061-0.33984c0.64746 0 1.2285 0.11719 1.7422 0.34961s0.94434 0.54102 1.293 0.92578 0.61426 0.83789 0.79785 1.3574c0.18262 0.51953 0.27441 1.0723 0.27441 1.6592v0.5498h-7.1523zm5.832-0.99023c0-0.81836-0.24414-1.4824-0.7334-1.9893s-1.1738-0.76074-2.0537-0.76074c-0.3916 0-0.77051 0.076172-1.1377 0.22852-0.36621 0.15332-0.6875 0.35742-0.96289 0.61523-0.27441 0.25586-0.49512 0.5498-0.66016 0.87988s-0.24707 0.67285-0.24707 1.0264h5.7949z"/>
<path class="st1" d="m312.3 61.837v-0.21973c0-1.4795-0.7334-2.2188-2.2012-2.2188-1.002 0-1.877 0.33594-2.6221 1.0078l-0.7334-0.86133c0.80664-0.83203 2.0166-1.248 3.6309-1.248 0.41504 0 0.81641 0.0625 1.2012 0.18359 0.38477 0.12305 0.71777 0.30957 1 0.56055 0.28027 0.25 0.50684 0.56445 0.67773 0.94336 0.17188 0.37891 0.25684 0.83203 0.25684 1.3574v3.833c0 0.33008 0.015625 0.67578 0.045898 1.0361 0.030273 0.36133 0.064453 0.6582 0.10156 0.88965h-1.1738c-0.037109-0.20801-0.064453-0.43457-0.083008-0.67871s-0.027344-0.48242-0.027344-0.71484h-0.037109c-0.35449 0.57422-0.77344 0.9873-1.2559 1.2383-0.4834 0.25-1.0732 0.375-1.7695 0.375-0.37891 0-0.74609-0.051758-1.1006-0.15625-0.35449-0.10352-0.66992-0.26172-0.94434-0.47656-0.27539-0.21289-0.49512-0.47656-0.66016-0.78809s-0.24805-0.6748-0.24805-1.0908c0-0.69727 0.18066-1.2441 0.54102-1.6426 0.36035-0.39648 0.81348-0.69336 1.3574-0.88867s1.125-0.31836 1.7422-0.36719 1.1826-0.073242 1.6963-0.073242h0.60547zm-0.62402 0.99121c-0.30566 0-0.6875 0.014648-1.1455 0.044922-0.45898 0.03125-0.89941 0.10449-1.3213 0.2207s-0.78223 0.29688-1.082 0.54102-0.44922 0.58008-0.44922 1.0078c0 0.28125 0.058594 0.52344 0.1748 0.72461 0.11621 0.20215 0.27148 0.36719 0.46777 0.49609 0.19531 0.12793 0.41211 0.21875 0.65039 0.27441s0.48047 0.083008 0.72461 0.083008c0.44043 0 0.82227-0.074219 1.1465-0.2207 0.32324-0.14648 0.5957-0.3457 0.81641-0.5957 0.21973-0.25 0.38184-0.54395 0.48535-0.88086 0.10352-0.33594 0.15625-0.69336 0.15625-1.0723v-0.62305h-0.62402z"/>
<path class="st1" d="m317.8 67.101h-1.21v-13.864h1.21v13.864z"/>
<path class="st1" d="m325.16 59.619h-2.4766v5.0615c0 0.31836 0.030273 0.57812 0.091797 0.7793 0.061523 0.20215 0.14648 0.35742 0.25684 0.46777s0.24121 0.18652 0.39453 0.22949c0.15234 0.042969 0.32129 0.064453 0.50391 0.064453 0.20801 0 0.42188-0.03125 0.64258-0.091797 0.21973-0.061523 0.42188-0.14062 0.60449-0.23828l0.055664 1.1182c-0.45312 0.20801-0.99707 0.31152-1.6328 0.31152-0.23242 0-0.47363-0.030273-0.72363-0.091797-0.25098-0.060547-0.48047-0.17676-0.68848-0.34766-0.20801-0.17188-0.37891-0.4043-0.51367-0.69727-0.13379-0.29297-0.20117-0.67871-0.20117-1.1553v-5.4102h-1.8154v-1.1006h1.8154v-2.4209h1.21v2.4209h2.4766v1.1006z"/>
<path class="st1" d="m326.81 53.237h1.2109v6.6562h0.036133c0.13477-0.23145 0.30566-0.44531 0.51367-0.64062 0.20801-0.19629 0.44043-0.36426 0.69727-0.50488s0.52832-0.25098 0.81641-0.33008c0.28711-0.079102 0.57129-0.12012 0.85254-0.12012 1.1006 0 1.9131 0.29102 2.4395 0.87109 0.52539 0.58203 0.78809 1.4102 0.78809 2.4863v5.4463h-1.21v-4.75c0-0.9541-0.16504-1.6846-0.49512-2.1914s-0.94238-0.76074-1.834-0.76074c-0.061523 0-0.23242 0.023438-0.51367 0.072266-0.28125 0.049805-0.57812 0.18359-0.88965 0.4043-0.31152 0.21973-0.58984 0.5498-0.83496 0.99023-0.24414 0.43945-0.36621 1.0518-0.36621 1.834v4.4014h-1.2109v-13.864z"/>
<path class="st1" d="m343.26 60.536c-0.20801-0.31836-0.49805-0.58691-0.87109-0.80664-0.37305-0.2207-0.79785-0.33008-1.2744-0.33008-0.50195-0.012695-0.95117 0.066406-1.3486 0.23828-0.39746 0.1709-0.73633 0.40918-1.0176 0.71484s-0.49512 0.66992-0.6416 1.0918c-0.14746 0.42188-0.2207 0.87695-0.2207 1.3652 0 0.49023 0.073242 0.94531 0.2207 1.3672 0.14648 0.42188 0.36035 0.78516 0.6416 1.0908s0.62012 0.54395 1.0176 0.71582c0.39746 0.1709 0.84668 0.25 1.3486 0.23828 0.47656 0 0.90137-0.11035 1.2744-0.33008 0.37305-0.2207 0.66309-0.48926 0.87109-0.80762l0.99023 0.75195c-0.42773 0.50098-0.91113 0.87109-1.4492 1.1104-0.53809 0.23828-1.0996 0.36328-1.6865 0.375-0.69727 0.011719-1.3271-0.094727-1.8896-0.32031-0.5625-0.22656-1.042-0.54102-1.4395-0.94531-0.39746-0.40234-0.7002-0.88281-0.9082-1.4395-0.20801-0.55566-0.31152-1.1582-0.31152-1.8066 0-0.64746 0.10352-1.25 0.31152-1.8066 0.20801-0.55566 0.51074-1.0352 0.9082-1.4395 0.39746-0.40234 0.87695-0.71777 1.4395-0.94336 0.5625-0.22656 1.1924-0.33398 1.8896-0.32227 0.58691 0.013672 1.1484 0.13867 1.6865 0.37695s1.0215 0.60742 1.4492 1.1094l-0.99023 0.75195z"/>
<path class="st1" d="m351.35 61.837v-0.21973c0-1.4795-0.7334-2.2188-2.2002-2.2188-1.0029 0-1.877 0.33594-2.623 1.0078l-0.7334-0.86133c0.80664-0.83203 2.0176-1.248 3.6309-1.248 0.41602 0 0.81641 0.0625 1.2021 0.18359 0.38477 0.12305 0.71777 0.30957 0.99902 0.56055 0.28125 0.25 0.50684 0.56445 0.67871 0.94336 0.1709 0.37891 0.25684 0.83203 0.25684 1.3574v3.833c0 0.33008 0.014648 0.67578 0.045898 1.0361 0.030273 0.36133 0.063477 0.6582 0.10059 0.88965h-1.1738c-0.036133-0.20801-0.064453-0.43457-0.082031-0.67871-0.018555-0.24414-0.02832-0.48242-0.02832-0.71484h-0.036133c-0.35449 0.57422-0.77344 0.9873-1.2568 1.2383-0.48242 0.25-1.0723 0.375-1.7695 0.375-0.37891 0-0.74609-0.051758-1.1006-0.15625-0.35449-0.10352-0.66895-0.26172-0.94434-0.47656-0.27441-0.21289-0.49512-0.47656-0.66016-0.78809s-0.24707-0.6748-0.24707-1.0908c0-0.69727 0.17969-1.2441 0.54102-1.6426 0.36035-0.39648 0.8125-0.69336 1.3564-0.88867s1.125-0.31836 1.7422-0.36719c0.61816-0.048828 1.1836-0.073242 1.6973-0.073242h0.60449zm-0.62305 0.99121c-0.30566 0-0.6875 0.014648-1.1465 0.044922-0.45801 0.03125-0.89844 0.10449-1.3203 0.2207s-0.78223 0.29688-1.082 0.54102-0.44922 0.58008-0.44922 1.0078c0 0.28125 0.057617 0.52344 0.17383 0.72461 0.11621 0.20215 0.27246 0.36719 0.46777 0.49609 0.19531 0.12793 0.41309 0.21875 0.65137 0.27441s0.47949 0.083008 0.72461 0.083008c0.43945 0 0.82129-0.074219 1.1455-0.2207s0.59668-0.3457 0.81641-0.5957 0.38184-0.54395 0.48633-0.88086c0.10352-0.33594 0.15527-0.69336 0.15527-1.0723v-0.62305h-0.62305z"/>
<path class="st1" d="m355.49 61.196c0-0.37891-0.0097656-0.76367-0.027344-1.1553-0.018555-0.3916-0.03418-0.89941-0.045898-1.5225h1.1914v1.5957h0.037109c0.084961-0.23242 0.20801-0.45508 0.36719-0.66992 0.1582-0.21289 0.35059-0.40625 0.57715-0.57715s0.48926-0.30859 0.78906-0.41309c0.29883-0.10352 0.63867-0.15625 1.0176-0.15625 0.3418 0 0.6416 0.037109 0.89844 0.11133l-0.23828 1.1914c-0.15918-0.060547-0.3916-0.091797-0.69727-0.091797-0.46484 0-0.86133 0.088867-1.1914 0.26562-0.33008 0.17773-0.60547 0.4043-0.8252 0.67969-0.2207 0.27441-0.38281 0.57031-0.48633 0.88867-0.10449 0.31836-0.15625 0.62305-0.15625 0.91699v4.8418h-1.21v-5.9053z"/>
<path class="st1" d="m361.96 63.139c0.036133 0.42871 0.14062 0.83203 0.31152 1.2109s0.39746 0.70605 0.67871 0.98145c0.28125 0.27441 0.60547 0.49219 0.97168 0.65137 0.36719 0.1582 0.76367 0.23828 1.1924 0.23828 0.64746 0 1.207-0.15039 1.6777-0.44922 0.4707-0.2998 0.82812-0.64551 1.0732-1.0371l0.93555 0.77051c-0.51367 0.64844-1.0791 1.1123-1.6973 1.3936-0.61719 0.28125-1.2803 0.42188-1.9893 0.42188-0.63574 0-1.2256-0.11328-1.7695-0.33887-0.54492-0.22559-1.0117-0.54102-1.4033-0.94434-0.3916-0.4043-0.7002-0.88086-0.92578-1.4307-0.22656-0.5498-0.33984-1.1494-0.33984-1.7979 0-0.64746 0.11035-1.2461 0.33008-1.7969 0.2207-0.55078 0.52539-1.0273 0.91699-1.4297 0.3916-0.4043 0.84961-0.71875 1.376-0.94531 0.52539-0.22656 1.0938-0.33984 1.7051-0.33984 0.64844 0 1.2285 0.11719 1.7422 0.34961s0.94434 0.54102 1.293 0.92578 0.61426 0.83789 0.79785 1.3574 0.27539 1.0723 0.27539 1.6592v0.5498h-7.1523zm5.832-0.99023c0-0.81836-0.24512-1.4824-0.7334-1.9893-0.48926-0.50684-1.1738-0.76074-2.0547-0.76074-0.3916 0-0.77051 0.076172-1.1367 0.22852-0.36719 0.15332-0.6875 0.35742-0.96289 0.61523-0.27539 0.25586-0.49512 0.5498-0.66016 0.87988s-0.24805 0.67285-0.24805 1.0264h5.7959z"/>
<path class="st2" d="m164.9 63.628l-6.008-8.127-0.46701 3.1162-54.949 0.0029297h-5.98c-2.678-0.01709-4.746-0.67383-6.191-1.981-0.90601-0.8208-1.565-1.7988-2.031-2.8989h-8.962c1.017 3.5508 2.69 6.3799 5.025 8.48 2.913 2.6182 6.9 4.0107 11.932 4.2061l0.64299 0.020996 0.561 0.018066 0.016998 9.766e-4h7.191l30.049-0.0039062h21.519l-0.47601 3.1738 8.127-6.0083z"/>
<path class="st3" d="m21.436 14.488h-0.119l-11.342 14.49h9.442l2.019-14.49zm-3.088 21.971h-18.348l1.068-7.481 20.843-26.128h9.738l-3.681 26.128h5.403l-1.068 7.481h-5.404l-1.128 8.4321h-8.551l1.128-8.4321z"/>
<path class="st1" d="m56.113 24.523c-1.068-1.6226-2.692-2.4336-4.869-2.4336-0.752 0-1.505 0.17773-2.256 0.53271-0.75301 0.35693-1.188 0.97119-1.307 1.8413-0.119 0.71289 0.179 1.2388 0.89101 1.5747 0.712 0.33594 1.603 0.6333 2.672 0.89111 1.069 0.25684 2.227 0.5332 3.474 0.83008 1.247 0.29785 2.384 0.7627 3.415 1.396 1.028 0.63379 1.83 1.4941 2.405 2.584 0.572 1.0889 0.741 2.543 0.504 4.3628-0.238 1.8613-0.852 3.395-1.841 4.6021-0.99 1.209-2.168 2.1782-3.533 2.9111-1.366 0.73193-2.86 1.2461-4.483 1.543-1.624 0.29785-3.207 0.4458-4.751 0.4458-2.018 0-4.018-0.28857-5.997-0.86084-1.98-0.57373-3.583-1.5952-4.81-3.0591l6.235-5.998c0.71301 1.0303 1.534 1.811 2.465 2.3462 0.929 0.53516 2.067 0.80273 3.414 0.80273 1.029 0 1.979-0.1499 2.85-0.44678 0.87-0.2959 1.366-0.83984 1.485-1.6318 0.118-0.75195-0.169-1.3159-0.862-1.6934-0.692-0.375-1.583-0.69092-2.671-0.94971-1.09-0.25732-2.257-0.5332-3.504-0.83105-1.247-0.29688-2.396-0.74219-3.444-1.3359-1.05-0.59521-1.871-1.4341-2.465-2.5239-0.594-1.0894-0.752-2.543-0.475-4.3643 0.238-1.7021 0.792-3.166 1.663-4.395 0.871-1.2261 1.93-2.2349 3.177-3.0288 1.247-0.79004 2.622-1.374 4.127-1.751 1.504-0.37695 3.008-0.56494 4.513-0.56494 1.9 0 3.78 0.27783 5.641 0.83301 1.86 0.55371 3.364 1.543 4.513 2.9688l-6.176 5.4028z"/>
<path class="st1" d="m67.93 6.9473c0.119-0.71289 0.35699-1.3857 0.713-2.0195 0.356-0.6333 0.802-1.1772 1.336-1.6323 0.535-0.4541 1.138-0.8208 1.812-1.0991 0.672-0.27588 1.365-0.41504 2.077-0.41504 1.426 0 2.564 0.50537 3.415 1.5142 0.851 1.0093 1.177 2.2261 0.98 3.6519-0.080002 0.7124-0.29799 1.3862-0.653 2.0181-0.356 0.6333-0.802 1.1792-1.337 1.6333-0.53401 0.45605-1.137 0.82178-1.811 1.0986-0.673 0.27734-1.365 0.41699-2.078 0.41699-0.71201 0-1.366-0.13965-1.959-0.41699-0.59399-0.27686-1.089-0.64258-1.484-1.0986-0.397-0.4541-0.683-1-0.862-1.6333-0.17801-0.63184-0.22801-1.3057-0.149-2.0181m-0.534 9.084h8.907l-4.038 28.86h-8.907l4.038-28.86z"/>
<path class="st1" d="m127.73 0l-2.79 19.951h0.118c0.27701-0.55469 0.683-1.1069 1.217-1.6631 0.53499-0.55273 1.167-1.0469 1.9-1.4839 0.73199-0.43506 1.575-0.79199 2.524-1.0679 0.95001-0.27686 1.96-0.41699 3.029-0.41699 2.256 0 4.037 0.34814 5.344 1.04 1.307 0.69287 2.256 1.6528 2.85 2.8789 0.59402 1.229 0.91 2.6738 0.95102 4.335 0.037994 1.6631-0.080017 3.4648-0.35699 5.4048l-2.197 15.913h-8.907l1.959-14.132c0.11902-0.83105 0.21802-1.6938 0.297-2.584 0.07901-0.89014 0.019012-1.7109-0.17798-2.4639-0.198-0.75098-0.57401-1.3652-1.128-1.8413-0.55499-0.4751-1.406-0.71289-2.554-0.71289s-2.107 0.20801-2.88 0.62305c-0.77101 0.41797-1.394 0.97217-1.87 1.6641-0.47499 0.69287-0.83099 1.4741-1.069 2.3457-0.237 0.87109-0.41499 1.7812-0.534 2.7314l-2.019 14.37h-8.907l6.294-44.891h8.907z"/>
<path class="st1" d="m168.1 23.157h-7.839l-1.365 9.6201c-0.11902 0.79199-0.17801 1.5142-0.17801 2.1689 0 0.65234 0.108 1.2153 0.32602 1.6899 0.21799 0.47607 0.59399 0.84229 1.129 1.0991 0.53497 0.25928 1.276 0.38721 2.227 0.38721 0.47501 0 1.098-0.049316 1.87-0.1499 0.772-0.098144 1.375-0.3252 1.81-0.68213l-1.009 7.4229c-1.029 0.35596-2.088 0.59326-3.177 0.71289-1.089 0.11816-2.148 0.17822-3.176 0.17822-1.505 0-2.871-0.15918-4.097-0.4751-1.228-0.31689-2.267-0.82275-3.118-1.5142-0.85199-0.69287-1.465-1.5947-1.841-2.7026-0.37698-1.1079-0.466-2.4541-0.267-4.0381l1.959-13.717h-5.7l1.01-7.126h5.7l1.187-8.5498h8.908l-1.188 8.5498h7.839l-1.01 7.126z"/>
<path class="st1" d="m101.6 30.423c-0.118 0.95068-0.42601 1.8516-0.92 2.7017-0.49501 0.85205-1.109 1.603-1.84 2.2563-0.73299 0.65283-1.565 1.1787-2.495 1.5728-0.92999 0.39697-1.89 0.59521-2.879 0.59521-1.031 0-1.951-0.19824-2.761-0.59521-0.813-0.39404-1.485-0.91992-2.02-1.5728-0.534-0.65332-0.92-1.4043-1.157-2.2563-0.23799-0.8501-0.29799-1.751-0.179-2.7017 0.119-0.9502 0.425-1.8501 0.92101-2.7012 0.494-0.85205 1.108-1.604 1.841-2.2568 0.73199-0.65234 1.553-1.1772 2.464-1.5732 0.91-0.396 1.88-0.59473 2.91-0.59473 0.989 0 1.899 0.19873 2.731 0.59473s1.515 0.9209 2.049 1.5732c0.534 0.65283 0.92 1.4048 1.158 2.2568 0.237 0.85107 0.29601 1.751 0.177 2.7012m2.02-14.252l-0.535 3.8022h-0.119c-0.27701-0.51416-0.673-1.04-1.187-1.5732-0.515-0.53564-1.158-1.0195-1.93-1.4556-0.772-0.43506-1.672-0.79199-2.702-1.0684-1.03-0.27686-2.177-0.41699-3.444-0.41699-2.059 0-3.959 0.42529-5.701 1.2773-1.742 0.85205-3.276 1.9697-4.601 3.355-1.327 1.3867-2.416 2.9897-3.267 4.8086-0.851 1.8223-1.415 3.6821-1.692 5.583-0.317 2.1772-0.267 4.1763 0.149 5.9971 0.41499 1.8213 1.158 3.394 2.226 4.7212 1.069 1.3271 2.424 2.355 4.068 3.0869 1.642 0.73389 3.533 1.0981 5.671 1.0981 1.345 0 2.82-0.28613 4.423-0.86133 1.604-0.57275 3.019-1.5508 4.246-2.938h0.119l-0.41501 2.791c-0.31799 2.0571-1.208 3.751-2.673 5.0771-1.445 1.3081-3.512 1.9648-6.191 1.9829h-46.982l0.476-3.1738-8.127 6.0078 6.008 8.127 0.467-3.1157 48.385-0.040039c5.032-0.19482 9.019-1.5879 11.932-4.207 3.147-2.8301 5.097-6.9761 5.85-12.439l3.74-26.426h-8.194z"/>
</svg>
