
<svg viewBox="0 0 301 215" version="1.1" xmlns="http://www.w3.org/2000/svg" xmlns:xlink="http://www.w3.org/1999/xlink">

    <g id="Page-1">
        <g id="Services-Page" transform="translate(-568.000000, -145.000000)">
            <path d="M836.749928,268.624878 C824.894894,268.624878 815.250322,258.980256 815.250322,247.125161 C815.250322,235.269734 824.894894,225.625113 836.749928,225.625113 C848.604962,225.625113 858.249865,235.269734 858.249865,247.125161 C858.249865,258.980256 848.604962,268.624878 836.749928,268.624878 M836.749928,214.874923 C820.614941,214.874923 807.210194,226.785744 804.864728,242.276314 L781.623023,242.276314 L760.043809,175.298673 C759.32103,173.055028 757.228985,171.558712 754.86428,171.572312 C752.507536,171.600175 750.444017,173.159847 749.774311,175.419413 L725.579294,257.060686 L703.761254,197.636937 C702.946925,195.419829 700.778257,193.992839 698.422176,194.122535 C696.063774,194.251568 694.0656,195.905111 693.498058,198.197848 L662.256361,324.400216 L642.234156,149.762784 C641.941595,147.210655 639.883715,145.22209 637.322643,145.017097 C634.765551,144.813431 632.414114,146.448067 631.71953,148.921251 L593.778445,283.983761 L578.535405,231.859486 C577.702169,229.01015 574.716186,227.376177 571.86786,228.209417 C569.018539,229.042326 567.384242,232.02766 568.217478,234.876996 L588.723636,304.996868 C589.394006,307.289605 591.496002,308.86354 593.881936,308.86354 L593.911126,308.86354 C596.309,308.850603 598.408343,307.250796 599.057152,304.942137 L634.670021,178.166253 L654.971187,355.237064 C655.267397,357.820706 657.371052,359.821875 659.966289,359.988722 C660.083048,359.996351 660.198812,360 660.314245,360 C662.768177,360 664.93187,358.327549 665.528934,355.916394 L699.71681,217.811828 L721.078427,275.991357 C721.877166,278.16667 723.976509,279.574753 726.295438,279.511066 C728.611051,279.437428 730.619176,277.887708 731.277273,275.666287 L755.142246,195.139539 L772.591437,249.29948 C773.306919,251.520569 775.374087,253.026504 777.707611,253.026504 L805.043184,253.026504 C807.823843,268.000279 820.982467,279.374736 836.749928,279.374736 C854.53248,279.374736 869,264.907804 869,247.125161 C869,229.342186 854.53248,214.874923 836.749928,214.874923" id="Fill-1"></path>
        </g>
    </g>
</svg>
